<svg xmlns="http://www.w3.org/2000/svg" width="251" height="117" viewBox="0 0 251 117">
  <g fill="none" fill-rule="evenodd">
    <path fill="#FFF" d="M92.682491,100.078545 C92.682491,102.928204 94.0847175,103.444914 97.0109157,103.090968 L97.0109157,106.976631 C97.0109157,106.976631 88.3549297,109.142509 88.3549297,100.942313 L88.3549297,93.3010255 L85.7585656,93.3010255 L85.7585656,89.7202215 L88.3549297,89.7202215 L88.3549297,84.1087452 L92.682491,84.1087452 L92.682491,89.7202215 L97.0109157,89.7202215 L97.0109157,93.3010255 L92.682491,93.3010255 L92.682491,100.078545 Z M137.616772,81.1005426 L137.616772,100.955145 C137.616772,102.637899 138.101162,103.493054 140.213136,103.113272 L140.213136,106.996352 C140.213136,106.996352 133.289211,109.154479 133.289211,101.818051 L133.289211,81.1005426 L137.616772,81.1005426 Z M162.172833,98.3646164 C162.172833,103.37068 157.91003,107.42858 152.652543,107.42858 C147.394194,107.42858 143.131391,103.37068 143.131391,98.3646164 C143.131391,93.3594137 147.394194,89.3015137 152.652543,89.3015137 C157.91003,89.3015137 162.172833,93.3594137 162.172833,98.3646164 Z M157.845272,98.3646164 C157.845272,95.5037624 155.520028,93.1854545 152.652543,93.1854545 C149.784196,93.1854545 147.458952,95.5037624 147.458952,98.3646164 C147.458952,101.224609 149.784196,103.544639 152.652543,103.544639 C155.520028,103.544639 157.845272,101.224609 157.845272,98.3646164 Z M181.320047,92.0823637 L179.092371,94.987138 C178.00012,93.8865446 176.366491,93.1855407 174.466923,93.1855407 C171.611527,93.1855407 169.274195,95.5047097 169.274195,98.3647025 C169.274195,101.224695 171.593395,103.544726 174.466923,103.544726 C176.366491,103.544726 178.00012,102.843722 179.092371,101.741406 L181.320047,104.647041 C179.587986,106.359076 177.16172,107.428666 174.466923,107.428666 C169.210301,107.428666 164.946634,103.370766 164.946634,98.3647025 C164.946634,93.3586387 169.210301,89.3015999 174.466923,89.3015999 C177.16172,89.3015999 179.587986,90.3711907 181.320047,92.0823637 Z M201.245738,106.996696 C201.245738,106.996696 195.983934,108.692368 193.301226,102.407446 C192.771074,101.165618 191.98448,99.3132108 191.98448,99.3132108 L189.994251,99.9565154 L189.994251,106.996696 L185.66669,106.996696 L185.66669,81.1008871 L189.994251,81.1008871 L189.994251,95.8934483 C195.195614,94.2218897 195.620426,92.6717582 195.620426,89.7325364 L199.947124,89.7325364 C199.947124,93.9790358 198.254782,96.2293101 195.696409,97.7208812 C195.926084,98.2522318 196.368165,99.2787634 196.823198,100.376773 C197.956895,103.111894 199.307315,103.284992 201.245738,103.111894 L201.245738,106.996696 Z M235.241184,93.6171662 C228.749842,92.7973188 228.749842,99.2277813 228.749842,101.385909 L228.749842,106.997385 L224.423144,106.997385 L224.423144,89.7323642 L228.749842,89.7323642 L228.749842,93.6653925 C229.416418,91.6088846 231.087174,88.9030438 235.241184,89.7323642 L235.241184,93.6171662 Z M239.203424,101.927938 C239.203424,101.927938 241.160842,103.71834 243.985154,103.71834 C245.210376,103.71834 246.495174,103.267941 246.495174,102.24916 C246.495174,99.5304014 237.710536,100.523347 237.710536,94.4804172 C237.710536,91.2544212 240.760206,89.3012554 244.504945,89.3012554 C248.418919,89.3012554 250.306399,91.2148067 250.306399,91.2148067 L248.827326,94.1678074 C248.827326,94.1678074 247.071089,93.0215712 244.416874,93.0215712 C243.293539,93.0215712 242.038097,93.3936028 242.038097,94.4804172 C242.038097,96.9235968 250.692356,96.2062304 250.692356,102.24916 C250.692356,105.134988 248.134847,107.428322 244.016238,107.428322 C239.694721,107.428322 237.278816,104.882661 237.278816,104.882661 L239.203424,101.927938 Z M212.344827,89.3011693 C217.104972,89.3011693 220.13392,92.927616 220.13392,97.9328186 C220.13392,98.677743 220.052756,99.5234259 220.052756,99.5234259 L208.157143,99.5234259 C208.685569,101.82451 210.737965,103.544295 213.209994,103.544295 C215.107835,103.544295 216.743191,102.844152 217.835442,101.742698 L220.062254,104.646611 C218.33192,106.359506 215.903064,107.429097 213.209994,107.429097 C207.951645,107.429097 203.689705,103.370336 203.689705,98.3642719 C203.689705,92.7536568 208.016403,89.3011693 212.344827,89.3011693 Z M212.344827,92.7536568 C210.595498,92.7536568 208.846168,93.6019232 208.240897,96.2070055 L216.056756,96.2070055 C215.559414,93.6019232 214.093293,92.7536568 212.344827,92.7536568 Z M12.0444478,84.9818138 C8.58205345,84.5400263 7.71688657,85.1445776 7.71688657,87.9942361 L7.71688657,89.7209105 L11.6118644,89.7209105 L11.6118644,93.3008532 L7.71688657,93.3008532 L7.71688657,106.98507 L3.39018873,106.98507 L3.39018873,93.3008532 L0.793824648,93.3008532 L0.793824648,89.7209105 L3.39018873,89.7209105 L3.39018873,87.1304684 C3.39018873,78.9302723 12.0444478,81.0961506 12.0444478,81.0961506 L12.0444478,84.9818138 Z M55.7641278,106.984984 L55.7641278,89.7208243 L60.0916891,89.7208243 L60.0916891,106.984984 L55.7641278,106.984984 Z M55.7641278,85.4045691 L55.7641278,81.0874526 L60.0916891,81.0874526 L60.0916891,85.4045691 L55.7641278,85.4045691 Z M70.5653027,81.0879693 L70.5653027,100.942571 C70.5653027,102.625325 71.0496925,103.480481 73.1616667,103.10156 L73.1616667,106.98464 C73.1616667,106.98464 66.2368779,109.142767 66.2368779,101.805478 L66.2368779,81.0879693 L70.5653027,81.0879693 Z M31.3026136,106.983606 L26.9741889,106.983606 L26.9741889,105.191482 C25.626359,106.574544 23.8355845,107.415921 21.7762801,107.415921 C17.2380394,107.415921 13.5589216,103.358021 13.5589216,98.3528182 C13.5589216,93.3467543 17.2380394,89.2888543 21.7762801,89.2888543 C23.8355845,89.2888543 25.626359,90.1310925 26.9741889,91.512432 L26.9741889,89.7203076 L31.3026136,89.7203076 L31.3026136,106.983606 Z M27.4067723,98.3528182 C27.4067723,95.4919642 25.2758024,93.1736563 22.6466276,93.1736563 C20.0174528,93.1736563 17.8873463,95.4919642 17.8873463,98.3528182 C17.8873463,101.212811 20.0174528,103.53198 22.6466276,103.53198 C25.2758024,103.53198 27.4067723,101.212811 27.4067723,98.3528182 Z M51.5316313,92.0705655 L49.3039561,94.9753398 C48.2117045,93.8738852 46.5772126,93.1728812 44.678508,93.1728812 C41.8222485,93.1728812 39.4857799,95.4920503 39.4857799,98.3529043 C39.4857799,101.212036 41.8041163,103.532066 44.678508,103.532066 C46.5772126,103.532066 48.2117045,102.831923 49.3039561,101.729608 L51.5316313,104.635243 C49.7995707,106.347277 47.3724408,107.416007 44.678508,107.416007 C39.4210219,107.416007 35.1582186,103.358107 35.1582186,98.3529043 C35.1582186,93.3459793 39.4210219,89.2889405 44.678508,89.2889405 C47.3724408,89.2889405 49.7995707,90.3585312 51.5316313,92.0705655 Z M77.6661469,106.984984 L77.6661469,89.7208243 L81.9937082,89.7208243 L81.9937082,106.984984 L77.6661469,106.984984 Z M77.6661469,85.4045691 L77.6661469,81.0874526 L81.9937082,81.0874526 L81.9937082,85.4045691 L77.6661469,85.4045691 Z M101.72668,111.948506 C105.621657,112.812273 106.767442,112.350679 108.311273,106.985501 L106.148356,106.983779 L100.188029,89.7196187 L104.765125,89.7196187 L109.379348,103.086059 L113.993572,89.7196187 L118.570667,89.7196187 C118.570667,89.7196187 111.647605,109.773154 111.222793,111.003786 C108.546129,118.757028 100.428929,115.401854 100.428929,115.401854 L101.72668,111.948506 Z"/>
    <path fill="#FF585A" d="M144.87018,50.8898836 C145.497785,51.1481166 146.261164,51.3864872 146.768652,51.3864872 C151.120284,51.3864872 151.120284,43.1512387 151.120284,43.1512387 C151.120284,43.1512387 160.600327,50.2190007 160.600327,55.1319403 C160.600327,57.4335006 157.564729,59.6544783 155.250866,60.3826291 C159.289473,65.6591198 160.993427,70.3836702 161.030617,70.4919288 L157.632558,72.3981717 C157.521192,72.2627097 146.140965,58.6089832 126.757688,58.6089832 C107.366059,58.6089832 96.6999674,70.8564192 96.5927775,70.9793125 L93.2169914,69.0577079 C93.2571388,68.9383201 95.4080723,62.8082547 100.958017,56.8901626 C100.340274,56.9495205 99.7301043,56.9819036 99.1340136,56.9819036 C77.644525,56.9819036 73.6743222,41.3032304 73.4863918,29.6269691 C73.2553071,15.1758325 66.5079111,13.9818122 62.749304,15.5445124 C68.3301396,-5.95343848 103.397945,-5.77608108 103.397945,22.3860391 C103.397945,34.2185323 92.1257832,54.5539575 109.94887,49.9510238 C114.43462,47.5591761 119.977962,45.9314206 126.757688,45.9314206 C134.13117,45.9314206 140.103943,47.9781101 144.87018,50.8898836 Z"/>
  </g>
</svg>
