<svg xmlns="http://www.w3.org/2000/svg" width="38" height="38" viewBox="0 0 38 38">
  <path fill="#213C6D" fill-rule="evenodd" d="M9.44468705,35.4685125 C12.3703473,37.1555116 15.5626949,38 19.0217301,38 C22.4353296,38 25.6296527,37.1555116 28.555313,35.4685125 C31.437513,33.7380035 33.7428779,31.429999 35.4714078,28.5444988 C37.1564774,25.613511 38,22.4175081 38,19 C38,15.5370043 37.1564774,12.3410014 35.4714078,9.4555012 C33.7428779,6.5264911 31.437513,4.26199646 28.555313,2.52950973 C25.6296527,0.844488394 22.4353296,1.81188398e-13 19.0217301,1.81188398e-13 C15.5626949,1.81188398e-13 12.3703473,0.844488394 9.44468705,2.52950973 C6.562487,4.26199646 4.25712206,6.5264911 2.52661676,9.4555012 C0.841547099,12.3410014 6.75015599e-14,15.5370043 6.75015599e-14,19 C6.75015599e-14,22.4175081 0.841547099,25.613511 2.52661676,28.5444988 C4.25712206,31.429999 6.562487,33.7380035 9.44468705,35.4685125 L9.44468705,35.4685125 Z M13.2288162,26.67201 C13.364486,26.5395024 13.5912773,26.4505048 13.8180685,26.4505048 L16.2277259,26.4505048 L16.2277259,18.5494952 L13.8180685,18.5494952 C13.5912773,18.5494952 13.364486,18.4604976 13.2288162,18.32799 C13.0911215,18.1499948 13,17.9719996 13,17.7504944 L13,13.7990007 C13,13.5774956 13.0911215,13.3559904 13.2288162,13.2215052 C13.364486,13.0889976 13.5912773,13 13.8180685,13 L21.9096573,13 C22.1830218,13 22.3632399,13.0889976 22.5009346,13.2215052 C22.6811526,13.3559904 22.7277259,13.5774956 22.7277259,13.7990007 L22.7277259,26.4505048 L25.1819315,26.4505048 C25.4087227,26.4505048 25.5909657,26.5395024 25.7732087,26.67201 C25.9088785,26.8500052 26,27.0280004 26,27.2495056 L26,31.2009993 C26,31.4225044 25.9088785,31.6440096 25.7732087,31.7784948 C25.5909657,31.9110024 25.4087227,32 25.1819315,32 L13.8180685,32 C13.5912773,32 13.364486,31.9110024 13.2288162,31.7784948 C13.0911215,31.6440096 13,31.4225044 13,31.2009993 L13,27.2495056 C13,27.0280004 13.0911215,26.8500052 13.2288162,26.67201 Z M16.8868743,4.76229528 C16.8868743,4.54023988 16.976093,4.31620184 17.1089297,4.18336513 C17.2437491,4.05052842 17.4658045,3.96130973 17.6878599,3.96130973 L22.4501551,3.96130973 C22.6722105,3.96130973 22.8506479,4.05052842 23.0290853,4.18336513 C23.161922,4.31620184 23.2511407,4.54023988 23.2511407,4.76229528 L23.2511407,8.72162237 C23.2511407,8.94566041 23.161922,9.16771581 23.0290853,9.30055252 C22.8506479,9.43537187 22.6722105,9.52260792 22.4501551,9.52260792 L17.6878599,9.52260792 C17.4658045,9.52260792 17.2437491,9.43537187 17.1089297,9.30055252 C16.976093,9.16771581 16.8868743,8.94566041 16.8868743,8.72162237 L16.8868743,4.76229528 L16.8868743,4.76229528 Z"/>
</svg>
