<svg xmlns="http://www.w3.org/2000/svg" width="160" height="160" viewBox="0 0 160 160">
  <g fill="#213C6D" fill-rule="evenodd" transform="translate(22 25)">
    <g transform="translate(72)">
      <path d="M7.71072308 32.3406911C7.51776154 31.6211231 7.94495385 30.8803913 8.66549231 30.6876897L17.8049538 28.242718C18.5254923 28.0489024 19.2661077 28.4766332 19.4601846 29.1962012 19.6531462 29.9168831 19.2248385 30.656501 18.5043 30.8503165L9.36595385 33.2952882C8.64541538 33.4879899 7.90368462 33.0602591 7.71072308 32.3406911zM2.39524615 28.17388L16.7558231 24.330986C17.4763615 24.1382843 17.9035538 23.3975526 17.7105923 22.6779846 17.5187462 21.9573027 16.7770154 21.5306858 16.0553615 21.7233874L1.69478462 25.5662815C.974246154 25.7589831.547053846 26.4997149.740015385 27.2192829.931861538 27.9399647 1.67470769 28.3665817 2.39524615 28.17388M57.5320828 8.66324175L62.9518505 30.6223005 57.1182911 34.8059307 55.802157 29.4747307C55.6293073 28.7052398 54.8645781 28.221451 54.0950873 28.3943008 54.080326 28.397634 54.0660409 28.4014433 54.0512797 28.4047765 53.2875029 28.6019109 52.8279988 29.3809252 53.024657 30.1451781 53.0260855 30.1499398 53.027514 30.1547015 53.0284664 30.1594632L54.6188744 36.6029965 48.7886481 40.8004357 43.365071 18.8270918 49.1991067 14.6434616 50.5185739 19.9889468C50.6966615 20.7574853 51.4642477 21.2360362 52.2327862 21.0579486 53.0013247 20.879861 53.4798756 20.1122748 53.301788 19.3437363 53.2984548 19.3304036 53.2955978 19.317547 53.2922646 19.3042142L51.6980472 12.846872 57.5320828 8.66324175zM23.3221206 17.1066894L40.5913804 19.5118244 46.0149575 41.4851682 28.7418883 39.0657481 23.3221206 17.1066894zM30.1294479 10.9050504L46.3197063 13.1625727 41.3756325 16.727658 25.1815647 14.4563268 30.1294479 10.9050504zM38.462424 4.92483056L54.6531586 7.18235285 49.7086087 10.7474381 33.5002558 8.47944011 38.462424 4.92483056zM37.7095992 2.06066762C37.5319877 2.11066547 37.3767563 2.18590034 37.2543806 2.26494457L20.5879521 14.2258605C20.1260671 14.5601319 19.8998864 15.1882002 20.0422612 15.7400813L26.2034257 40.7037732C26.338658 41.2523211 26.828637 41.6956354 27.3876606 41.775632L47.7053612 44.6083677C48.0677266 44.6602702 48.4491388 44.5664647 48.7453166 44.351712L65.4117451 32.3907961C65.8693445 32.0598579 66.0964777 31.4398845 65.9612454 30.8913366L59.7996047 5.92716855C59.6686579 5.37243043 59.1758219 4.92197354 58.6120366 4.84102463L38.294336 2.00828891C38.0867259 1.98590892 37.8872106 2.01066976 37.7095992 2.06066762L37.7095992 2.06066762zM19.5541 34.7609346L14.3318692 36.1577431C13.6113308 36.3515586 13.1830231 37.0911765 13.3759846 37.8118583 13.5700615 38.5314263 14.3106769 38.9591571 15.0312154 38.7664555L20.2534462 37.3685332C20.9739846 37.1758315 21.4022923 36.4350998 21.2093308 35.7155318 21.0163692 34.9948499 20.2746385 34.568233 19.5541 34.7609346"/>
    </g>
    <g transform="translate(0 21)">
      <path d="M51,96 L10,96 C5.9975,96 3,92.9445403 3,89 L3,83 L58,83 L58,89 C58,92.9445403 55.0025,96 51,96 L51,96 Z M3,80 L58,80 L58,16 L3,16 L3,80 Z M10,3 L51,3 C55.0025,3 58,5.97814208 58,10 L58,13 L3,13 L3,10 C3,5.97814208 5.9975,3 10,3 L10,3 Z M9.83870968,0 L51.1612903,0 C56.5742321,0 61,4.52847203 61,10 L61,89 C61,94.4726425 56.5742321,99 51.1612903,99 L9.83870968,99 C4.42576786,99 0,94.4726425 0,89 L0,10 C0,4.52847203 4.42576786,0 9.83870968,0 Z"/>
      <path d="M28.91445 26.4876645C28.91445 25.8794847 29.1598346 25.2846715 29.59595 24.854713 30.4570269 23.9892264 32.0118731 23.9892264 32.8718346 24.854713 33.3023731 25.2846715 33.5466423 25.8794847 33.5466423 26.4876645 33.5466423 27.0958442 33.3023731 27.6906574 32.8651423 28.1195021 32.4424115 28.556144 31.8467962 28.8000842 31.2311038 28.8000842 30.6221038 28.8000842 30.0264885 28.556144 29.59595 28.1195021 29.1598346 27.6895435 28.91445 27.0958442 28.91445 26.4876645M31.2244115 36.5916911C33.0536423 34.8339848 37.1861423 30.4241246 37.1861423 26.4876645 37.1861423 23.2083949 34.5147962 20.5395328 31.2311038 20.5395328 27.9474115 20.5395328 25.27495 23.2083949 25.27495 26.4876645 25.27495 30.1345152 29.0114885 34.471973 31.2244115 36.5916911M8.58846154 52.0874652L53.8730769 52.0874652 53.8730769 43.323439 8.58846154 43.323439 8.58846154 52.0874652zM7.58573077 53.0910732L54.8780385 53.0910732 54.8780385 42.319831 7.58573077 42.319831 7.58573077 53.0910732zM8.58957692 68.3278697L53.8741923 68.3278697 53.8741923 59.5638435 8.58957692 59.5638435 8.58957692 68.3278697zM7.58573077 69.3303638L54.8780385 69.3303638 54.8780385 58.5591216 7.58573077 58.5591216 7.58573077 69.3303638z"/>
    </g>
  </g>
</svg>
