<svg xmlns="http://www.w3.org/2000/svg" width="160" height="160" viewBox="0 0 160 160">
  <g fill="none" fill-rule="evenodd" transform="translate(11 2)">
    <path fill="#213C6D" d="M58.9834258,70.1793654 L3.33826452,70.1793654 L3.33826452,66.7692692 C3.33826452,63.0542051 6.37203871,60.03225 10.1002645,60.03225 L52.2225387,60.03225 C55.9507645,60.03225 58.9834258,63.0542051 58.9834258,66.7692692 L58.9834258,70.1793654 Z M3.33826452,135.697571 L58.9834258,135.697571 L58.9834258,73.5062885 L3.33826452,73.5062885 L3.33826452,135.697571 Z M58.9834258,145.144923 C58.9834258,148.859987 55.9507645,151.881942 52.2225387,151.881942 L10.1002645,151.881942 C6.37203871,151.881942 3.33826452,148.859987 3.33826452,145.144923 L3.33826452,139.024494 L58.9834258,139.024494 L58.9834258,145.144923 Z M52.2225387,56.7053269 L10.1002645,56.7053269 C4.52128065,56.7053269 -0.00044516129,61.2110897 -0.00044516129,66.7692692 L-0.00044516129,145.144923 C-0.00044516129,150.703103 4.52128065,155.208865 10.1002645,155.208865 L52.2225387,155.208865 C57.8015226,155.208865 62.3221355,150.703103 62.3221355,145.144923 L62.3221355,66.7692692 C62.3221355,61.2110897 57.8015226,56.7053269 52.2225387,56.7053269 L52.2225387,56.7053269 Z"/>
    <path fill="#213C6D" d="M30.9761032,148.727576 C32.9737645,148.727576 34.5930387,147.114018 34.5930387,145.123409 C34.5930387,143.1328 32.9737645,141.519242 30.9761032,141.519242 C28.9784419,141.519242 27.3591677,143.1328 27.3591677,145.123409 C27.3591677,147.114018 28.9784419,148.727576 30.9761032,148.727576"/>
    <polygon fill="#213C6D" stroke="#213C6D" stroke-width="2" points="17.418 106.94 15.725 105.254 15.168 105.81 17.418 108.052 22.215 103.255 21.657 102.699"/>
    <path fill="#213C6D" d="M18.4994565 112.658517C14.5052468 112.658517 11.225521 109.408113 11.225521 105.428004 11.225521 101.447896 14.5052468 98.1797481 18.4994565 98.1797481 22.4936661 98.1797481 25.7733919 101.430152 25.7733919 105.428004 25.7733919 109.425857 22.4936661 112.658517 18.4994565 112.658517M18.44715 97.2581904C13.9298758 97.2581904 10.2483919 100.925569 10.2483919 105.428004 10.2483919 109.929331 13.9298758 113.59671 18.44715 113.59671 22.9655371 113.59671 26.6447952 109.912697 26.6447952 105.428004 26.6447952 100.943312 22.9477306 97.2581904 18.44715 97.2581904M18.4994565 93.1089628C14.5052468 93.1089628 11.225521 89.858559 11.225521 85.87845 11.225521 81.898341 14.5052468 78.6301936 18.4994565 78.6301936 22.4936661 78.6301936 25.7733919 81.8805974 25.7733919 85.87845 25.7733919 89.8763026 22.4936661 93.1089628 18.4994565 93.1089628M18.44715 77.7086359C13.9298758 77.7086359 10.2483919 81.3760141 10.2483919 85.87845 10.2483919 90.3797769 13.9298758 94.0471551 18.44715 94.0471551 22.9655371 94.0471551 26.6447952 90.3631423 26.6447952 85.87845 26.6447952 81.3937577 22.9477306 77.7086359 18.44715 77.7086359M18.4994565 132.207961C14.5052468 132.207961 11.225521 128.957557 11.225521 124.977448 11.225521 120.997339 14.5052468 117.729192 18.4994565 117.729192 22.4936661 117.729192 25.7733919 120.979596 25.7733919 124.977448 25.7733919 128.975301 22.4936661 132.207961 18.4994565 132.207961M18.44715 116.807634C13.9298758 116.807634 10.2483919 120.476121 10.2483919 124.977448 10.2483919 129.478775 13.9298758 133.146153 18.44715 133.146153 22.9655371 133.146153 26.6447952 129.46214 26.6447952 124.977448 26.6447952 120.492756 22.9477306 116.807634 18.44715 116.807634"/>
    <path stroke="#213C6D" d="M34.5930387 85.8782282L50.5120065 85.8782282M34.5930387 105.37555L50.5120065 105.37555M34.5930387 124.873094L50.5120065 124.873094"/>
    <path fill="#213C6D" d="M120.117493,121.265247 C119.95946,121.436029 119.875993,121.662259 119.881557,121.894035 L119.914944,126.398689 C119.918283,126.896618 120.325605,127.299176 120.826412,127.298067 C121.326105,127.296958 121.727863,126.891074 121.725638,126.393144 L121.682234,121.898471 C121.691138,121.401651 121.294944,120.990221 120.795251,120.98024 C120.539283,120.974695 120.292218,121.078939 120.117493,121.265247 M111.104089,121.273009 C111.080718,121.300734 111.05846,121.330676 111.038428,121.360618 C110.91267,121.52142 110.847009,121.718817 110.850347,121.921759 L110.873718,126.417542 C110.873718,126.915471 111.279928,127.320247 111.779622,127.321356 C112.279315,127.322465 112.683299,126.918798 112.683299,126.420868 L112.683299,126.410888 L112.659928,121.916215 C112.668831,121.419394 112.270412,121.007965 111.771831,120.997984 C111.520315,120.993548 111.278815,121.093356 111.104089,121.273009 M101.996089,121.378362 C101.878122,121.541381 101.819138,121.738779 101.826928,121.939503 L101.841396,126.444157 C101.801331,126.939868 102.171928,127.375695 102.668283,127.416727 C103.166863,127.458868 103.602009,127.090689 103.642073,126.594977 C103.646525,126.546183 103.646525,126.497388 103.642073,126.448593 L103.628718,121.943939 C103.644299,121.447118 103.25367,121.030144 102.753976,121.012401 C102.456831,121.00242 102.171928,121.138824 101.996089,121.378362 M100.953299,110.593586 C104.602509,107.009381 109.90438,104.84799 115.409912,104.828029 L124.01488,104.784779 L126.432105,116.475586 L97.0325409,116.558759 C97.870557,114.304215 99.2260732,112.289208 100.953299,110.593586 M99.5866538,94.3892531 C99.2772667,94.7773941 99.3440409,95.34408 99.7357828,95.6534838 C99.9004925,95.7843428 100.107493,95.8530992 100.317831,95.8486633 L122.156331,95.7998685 L123.649847,102.993785 L115.392105,103.014856 C109.702944,103.034817 104.201863,105.156285 100.238815,108.765997 C97.8605409,110.931824 96.0376054,113.63883 95.0582506,116.748394 C95.0003796,116.909195 94.9881377,117.083304 95.0248635,117.250759 C94.9091215,117.734272 95.2084925,118.220003 95.6937183,118.337554 C95.7693957,118.355298 95.847299,118.36417 95.9263151,118.361952 L127.542783,118.269907 C128.041363,118.274343 128.448686,117.875112 128.450912,117.377183 C128.450912,117.31508 128.445347,117.252977 128.433105,117.191984 L123.782283,94.7164005 C123.694363,94.2983172 123.322654,93.9988941 122.894186,94.0000031 L100.318944,94.0543428 C100.035154,94.045471 99.7647183,94.1685672 99.5866538,94.3892531"/>
    <path fill="#003A6F" fill-rule="nonzero" d="M90.0063162,148.983295 L90.0069383,150.28366 L131.781149,150.28366 L132.158825,148.983295 L90.0063162,148.983295 Z M90.0057167,147.730154 L132.387053,147.730154 L131.844184,145.890252 L115.352377,141.134434 L104.17277,136 L101.159965,136 L95.7159082,138.748309 L89.9079471,135.781022 L90.817871,136 L88.0008522,136 L89.999148,134 L90.0057167,147.730154 Z M88,134 L90.817871,134 L95.7213226,136.505173 L100.683758,134 L104.610081,134 L116.050726,139.254321 L133.452081,144.272429 L134.539387,147.957551 L133.282919,152.28366 L88.0077903,152.28366 L88,134 Z M108.420702,142.290302 L107.273298,141.779065 L108.62325,138.771526 L109.770653,139.282763 L108.420702,142.290302 Z M105.359105,141.316512 L104.211702,140.804165 L105.562766,137.797736 L106.709056,138.310082 L105.359105,141.316512 Z M102.764927,140.17327 L101.617524,139.662033 L102.967476,136.654494 L104.114879,137.165731 L102.764927,140.17327 Z"/>
    <path fill="#213C6D" d="M98.6590095,8.08996795 C99.7563321,7.00428205 101.128542,7.58316667 101.491348,7.8326859 C101.240945,8.31508974 101.031719,8.82189103 100.845864,9.33645513 L100.289413,8.78196795 L99.3523482,9.71461538 L102.007735,12.3595192 L102.9448,11.4268718 L101.894219,10.3822179 C102.064493,9.85101923 102.257026,9.33645513 102.484058,8.83741667 L123.974219,33.3158077 L98.7636224,11.3392628 C98.2962031,10.9289423 97.3112837,9.4329359 98.6590095,8.08996795 M91.0000095,17.2090641 L91.362816,18.4799487 C91.362816,18.4799487 95.720945,17.7879487 99.3367676,13.5904808 L130.599332,40.8512885 L131.535284,39.9175321 L103.137332,7.57540385 C106.155526,2.20353205 112.611477,1.27088462 112.611477,1.27088462 L112.248671,0 C112.248671,0 105.889542,0.828403846 102.144622,6.67491667 C101.580381,6.31228205 99.5304128,5.34747436 97.7141547,7.15732051 C95.6652999,9.19117949 97.1421224,11.6930256 97.8844289,12.3362308 L98.3273644,12.7221538 C95.7610095,16.1067436 90.9922192,17.2090641 91.0000095,17.2090641"/>
    <g stroke="#213C6D" stroke-width="2" transform="translate(90 44)">
      <path d="M15.6331581 6.84066218C15.6331581 3.43056603 18.4076258.667001923 21.8286903.667001923 25.2519806.667001923 28.0253355 3.43056603 28.0253355 6.84066218 28.0253355 10.2507583 25.2519806 13.0143224 21.8286903 13.0143224L21.8286903 17.1075468M39.8757516 31.7172859L3.78207419 31.7172859C.714912903 31.7172859-.481458065 28.6043949 2.07933226 27.2847154L16.6539129 19.774741 18.9119935 18.6103179 21.8289129 17.1076577 41.5784935 27.2847154C44.1403968 28.6043949 42.9440258 31.7172859 39.8757516 31.7172859z"/>
    </g>
    <path stroke="#213C6D" d="M93.7997129,86.381259 C98.4037935,88.9341179 103.917116,89.0727397 109.184487,89.1503679 C112.937197,89.2047077 116.689906,89.2590474 120.442616,89.3144962 C123.552068,89.3599641 126.858503,89.3533103 129.493858,87.7087013 C132.326197,85.9398872 133.778535,82.6539962 134.823552,79.4912013 C137.264148,72.1143038 138.362584,64.0420795 136.185745,56.5842269 C133.247681,46.5191756 124.037294,38.5578487 113.617181,37.1250538 C103.197068,35.692259 92.1459387,40.8911308 86.6715677,49.8405538 C81.1960839,58.7910859 81.6334548,70.9886949 87.772229,79.5011821"/>
    <path fill="#213C6D" d="M39.9108242,48.115766 L48.1173726,47.0145545 L48.2564855,48.115766 L40.5084532,49.0794647 C40.3392919,49.1005353 40.1322919,49.1238237 39.9108242,49.1349135 C39.8217919,49.3223301 38.7144532,49.0606122 38.7534048,48.9785481 C38.5953726,48.9186635 38.4417919,48.8410353 38.2982274,48.7334647 C37.5970984,48.2067019 37.4468565,47.2829263 37.3578242,46.7306571 L36.5031145,41.4330865 L37.60155,41.2567596 L38.4562597,46.5543301 C38.5452919,47.0999455 38.6510177,47.6089647 38.9681952,47.8485032 C39.0438726,47.9050609 47.698921,31.6120096 55.1687274,27.4245224 C60.9903242,24.1608109 68.4167274,23.2825032 77.2453887,24.8162147 C85.5198242,26.2545545 91.6886468,29.3652276 95.4625016,34.0473173 L94.5966629,34.7415353 C90.9953081,30.2756955 85.0913565,27.3058622 77.0539694,25.9085545 C68.4868403,24.4203109 61.3063887,25.2553686 55.7151629,28.3904391 C48.6560177,32.3472596 39.9108242,48.115766 39.9108242,48.115766 Z"/>
  </g>
</svg>
