<svg xmlns="http://www.w3.org/2000/svg" width="160" height="160" viewBox="0 0 160 160">
  <g fill="#213C6D" fill-rule="evenodd" transform="translate(5 21)">
    <path d="M58.2759854 10.3650909L67.9548175 8.47563636 89.8307299 22.5232727 83.0807299 33.3570909 72.8380292 26.7745455C72.649708 26.6545455 72.4263504 26.5901818 72.2018978 26.5923636 71.9785401 26.5945455 71.7562774 26.6643636 71.570146 26.7898182 71.3851095 26.9152727 71.2372993 27.0952727 71.1518978 27.3014545 71.0675912 27.5076364 71.0435036 27.7389091 71.0862044 27.9581818L80.7551825 77.1221818 57.3639416 81.6887273 45.3310949 20.4963636 50.5920438 24.92C50.73 25.0356364 50.8964234 25.1185455 51.0716058 25.1589091 51.2456934 25.2003636 51.4307299 25.1992727 51.6059124 25.1567273 51.78 25.1152727 51.9453285 25.0312727 52.0821898 24.9145455 52.2190511 24.7978182 52.3263504 24.6483636 52.3964234 24.4825455L58.2759854 10.3650909zM17.6664964 18.2927273L27.3453285 16.4032727 38.1376642 27.2665455C38.2646715 27.3941818 38.4212409 27.4901818 38.5909489 27.5469091 38.7628467 27.6036364 38.9467883 27.62 39.1241606 27.5938182 39.3026277 27.5676364 39.4734307 27.4978182 39.620146 27.3941818 39.7668613 27.2905455 39.8883942 27.152 39.9716058 26.9938182L43.099708 21.068 55.1073723 82.1294545 31.8135766 86.6774545 22.1445985 37.5123636C22.1018978 37.2941818 21.9924088 37.088 21.8358394 36.9287273 21.6781752 36.7705455 21.4745255 36.6581818 21.2544526 36.6123636 21.0354745 36.5665455 20.8033577 36.5850909 20.5953285 36.6669091 20.3872993 36.7487273 20.2044526 36.8927273 20.0752555 37.076L13.0832847 47.0218182 2.73875912 39.5261818 17.6664964 18.2927273zM53.6051825 3.36363636L56.9380292 7.59963636 50.8745255 22.1589091 45.1427737 17.3414545C47.9478832 12.6734545 50.780365 8.02072727 53.6051825 3.36363636L53.6051825 3.36363636zM29.0194161 8.16254545C33.4044526 11.4134545 37.7708759 14.6883636 42.1449635 17.9556364L38.6675912 24.5436364 27.5358394 13.34 29.0194161 8.16254545zM31.1533577 6.87745455C37.8037226 5.57927273 44.4551825 4.28109091 51.1055474 2.98290909 48.5117518 7.29309091 45.9212409 11.6054545 43.3121168 15.9069091 39.259927 12.8970909 35.1967883 9.90036364 31.1533577 6.87745455L31.1533577 6.87745455zM28.1741606 5.12545455C28.1654015 5.12654545 28.1555474 5.12872727 28.1456934 5.13090909 27.9409489 5.17236364 27.7460584 5.27054545 27.5927737 5.41127273 27.4372993 5.55309091 27.3223358 5.73854545 27.2654015 5.93927273L25.140219 13.3541818C25.0876642 13.5429091 25.0832847 13.7447273 25.1281752 13.9356364 25.1741606 14.1265455 25.2694161 14.3043636 25.4040876 14.4472727L16.769781 16.1338182C16.4807299 16.1894545 16.2168613 16.3607273 16.0493431 16.6007273L.207372263 39.1334545C.0376642336 39.3767273-.0335036496 39.6865455.0146715328 39.9789091.0639416058 40.2723636.231459854 40.5429091.473430657 40.7174545L12.6781752 49.5603636C12.8008029 49.6498182 12.9420438 49.7141818 13.0887591 49.7490909 13.2376642 49.784 13.3931387 49.7883636 13.5431387 49.7643636 13.6920438 49.7349091 13.8376642 49.6836364 13.9668613 49.604 14.0949635 49.5232727 14.2077372 49.4163636 14.2953285 49.292L20.4081022 40.5952727 29.7781752 88.2418182C29.8351095 88.5363636 30.0146715 88.8047273 30.2654015 88.9727273 30.5150365 89.1396364 30.8325547 89.204 31.1270803 89.1461818L56.4924088 84.1934545C56.6183212 84.1901818 56.7431387 84.1661818 56.860292 84.1225455L82.3252555 79.1501818C82.6208759 79.0934545 82.890219 78.9145455 83.0588321 78.6658182 83.2263504 78.4170909 83.2909489 78.1007273 83.2329197 77.8061818L73.8628467 30.1596364 82.8179562 35.9141818C82.9449635 35.996 83.0894891 36.0527273 83.2394891 36.08 83.3894891 36.1061818 83.5449635 36.1018182 83.6927737 36.0690909 83.8427737 36.0396364 83.9829197 35.972 84.1077372 35.8847273 84.2314599 35.7974545 84.3376642 35.684 84.4175912 35.5552727L92.3807299 22.7741818C92.5372993 22.5232727 92.5909489 22.2090909 92.5252555 21.9189091 92.4606569 21.6298182 92.2778102 21.3690909 92.0270803 21.2076364L68.8110219 6.29927273C68.5646715 6.14109091 68.2548175 6.08218182 67.9679562 6.13781818L59.3325547 7.82436364C59.4015328 7.64109091 59.4234307 7.44036364 59.3938686 7.24618182 59.3643066 7.05309091 59.2843796 6.86763636 59.1628467 6.71272727L54.3869343.644C54.2533577.476 54.0716058.345090909 53.8690511.273090909 53.6654015.201090909 53.4420438.186909091 53.2329197.233818182 53.2219708.236 53.2110219.237090909 53.200073.239272727 44.8581022 1.868 36.5161314 3.49672727 28.1741606 5.12545455L28.1741606 5.12545455zM146.300255 114.407382C146.300255 114.623382 146.123978 114.799018 145.90719 114.799018L130.890766 114.799018 130.890766 115.6052 129.795876 115.6052 129.795876 114.799018 107.980182 114.799018 107.980182 115.6052 106.885292 115.6052 106.885292 114.799018 91.8677737 114.799018C91.6509854 114.799018 91.474708 114.623382 91.474708 114.407382L91.474708 60.5644727C91.474708 60.3473818 91.6509854 60.1717455 91.8677737 60.1717455L106.885292 60.1717455 106.885292 57.5764727 107.980182 57.5764727 107.980182 60.1717455 129.795876 60.1717455 129.795876 57.5764727 130.890766 57.5764727 130.890766 60.1717455 145.90719 60.1717455C146.123978 60.1717455 146.300255 60.3473818 146.300255 60.5644727L146.300255 114.407382zM145.90719 56.8990182L91.8677737 56.8990182C89.8367518 56.8990182 88.1900365 58.5408364 88.1900365 60.5644727L88.1900365 114.407382C88.1900365 116.431018 89.8367518 118.071745 91.8677737 118.071745L145.90719 118.071745C147.938212 118.071745 149.584927 116.431018 149.584927 114.407382L149.584927 60.5644727C149.584927 58.5408364 147.938212 56.8990182 145.90719 56.8990182L145.90719 56.8990182z"/>
    <polygon points="107.98 86.612 129.796 86.612 129.796 71.516 107.98 71.516"/>
    <polygon points="130.343 98.101 130.343 97.11 130.891 97.11 130.891 87.108 130.343 87.108 130.343 86.612 130.343 86.117 130.891 86.117 130.891 73.289 130.343 73.289 130.343 72.299 130.891 72.299 130.891 60.172 130.891 57.577 129.796 57.577 129.796 60.172 129.796 71.515 129.796 86.612 129.796 104.01 130.343 104.01 130.343 105.2 129.796 105.2 129.796 114.799 129.796 115.606 130.891 115.606 130.891 114.799 130.891 98.101"/>
    <polygon points="107.433 105.201 107.433 104.011 107.98 104.011 107.98 86.612 107.98 71.516 107.98 60.172 107.98 57.576 106.885 57.576 106.885 60.172 106.885 85.801 107.433 85.801 107.433 86.792 106.885 86.792 106.885 114.799 106.885 115.606 107.98 115.606 107.98 114.799 107.98 105.201"/>
    <polygon points="130.343 98.101 130.891 98.101 146.219 98.101 146.219 97.11 130.891 97.11 130.343 97.11"/>
    <polygon points="107.433 104.01 107.433 105.2 107.98 105.2 129.796 105.2 130.343 105.2 130.343 104.01 129.796 104.01 107.98 104.01"/>
    <polygon points="130.343 86.612 130.343 87.107 130.891 87.107 146.219 87.107 146.219 86.117 130.891 86.117 130.343 86.117"/>
    <polygon points="91.557 86.792 106.885 86.792 107.433 86.792 107.433 85.801 106.885 85.801 91.557 85.801"/>
    <polygon points="130.343 73.289 130.891 73.289 146.219 73.289 146.219 72.298 130.891 72.298 130.343 72.298"/>
    <path d="M132.588504,33.1935636 C132.417701,33.2481091 132.251277,33.2797455 132.101277,33.2481091 C131.708212,33.1630182 131.392883,32.7321091 131.099453,32.2946545 L126.817336,25.9401091 L125.907482,26.5477455 L130.189599,32.9022909 C130.445803,33.2841091 130.846533,33.8786545 131.461861,34.1742909 C131.588869,34.2353818 131.726825,34.2844727 131.874635,34.3150182 C132.719891,34.4928364 133.503832,34.0073818 133.97135,33.7172 L138.472445,30.9332 L137.895438,30.0070182 L133.393248,32.7910182 C133.329745,32.8302909 133.265146,32.8673818 133.201642,32.9044727 L133.094343,33.3222909 L132.588504,33.1935636 Z"/>
    <path d="M132.968102 13.4964364C133.618467 14.5764364 134.053139 15.5048 134.33562 16.4168 135.408613 19.8717091 134.405693 23.7858909 133.599854 26.9309818L132.033066 33.0520727 132.588175 33.1938909 133.094015 33.3226182 133.201314 32.9048 134.661898 27.2004364C135.500584 23.9222545 136.546204 19.8433455 135.382336 16.0949818 135.072482 15.0968 134.603869 14.0931636 133.906423 12.9346182 129.791825 6.10334545 122.118832 1.38843636 113.381606.3248 105.763358-.602472727 97.2965693 1.24225455 89.5414599 5.51861818L90.0713869 6.47316364C97.6272263 2.30698182 105.857518.508072727 113.249124 1.40807273 121.652409 2.43025455 129.023212 6.94989091 132.968102 13.4964364M65.934854 33.3224C65.934854 35.7660364 63.9465328 37.7471273 61.4939781 37.7471273 59.0414234 37.7471273 57.0531022 35.7660364 57.0531022 33.3224 57.0531022 30.8787636 59.0414234 28.8976727 61.4939781 28.8976727 63.9465328 28.8976727 65.934854 30.8787636 65.934854 33.3224M45.8483212 60.0172727C45.2822628 59.1074545 44.2727737 58.5947273 43.3957664 57.9783636 42.5176642 57.3609091 41.6756934 56.4489091 41.7643796 55.3830909 41.8585401 54.2169091 43.0322628 53.3452727 43.100146 52.178 43.1724088 50.9310909 41.810365 49.9318182 40.5632847 50.0681818 39.3162044 50.2045455 38.2990511 51.1885455 37.7505109 52.3110909 37.6256934 52.5630909 37.5238686 52.8249091 37.439562 53.0921818 37.3848175 53.1467273 37.3322628 53.2034545 37.2873723 53.2656364 36.8581752 53.8743636 36.8472263 54.6772727 36.9107299 55.4190909 36.9742336 56.1609091 37.0924818 56.9256364 36.870219 57.6358182 35.1490511 58.0950909 33.2735036 58.6623636 32.2957664 60.1481818 31.9859124 60.6194545 31.7888321 61.1572727 31.6607299 61.706 31.2359124 63.5038182 31.5961314 65.5569091 32.9089051 66.8616364 34.2216788 68.1652727 36.5516058 68.4521818 37.9443066 67.2336364 38.6833577 66.5867273 39.1267883 65.5994545 40.0027007 65.1543636 40.9574453 64.6689091 42.110365 64.9798182 43.1756934 64.8576364 44.2683942 64.7332727 45.3074453 64.0994545 45.8581752 63.1503636 46.4078102 62.2001818 46.4264234 60.95 45.8483212 60.0172727M69.4676277 66.9284C69.3285766 67.5284 68.8731022 67.9942182 68.5095985 68.4927636 68.1460949 68.9902182 67.8559489 69.6425818 68.1022993 70.2076727 68.3705474 70.8262182 69.1720073 71.0847636 69.4260219 71.7087636 69.6975547 72.3753091 69.1391606 73.1705818 68.435146 73.3265818 67.7300365 73.4825818 66.9931752 73.1334909 66.4840511 72.6229455 66.3712774 72.5084 66.2661679 72.3840364 66.1698175 72.2542182 66.1304015 72.2345818 66.0909854 72.2138545 66.0559489 72.1876727 65.7077737 71.9345818 65.5533942 71.4993091 65.4504745 71.0836727 65.3464599 70.6669455 65.2698175 70.2284 65.0168978 69.8825818 63.9920803 69.9491273 62.865438 69.9862182 62.055219 69.3556727 61.8001095 69.1560364 61.5931752 68.8996727 61.4201825 68.6247636 60.855219 67.7225818 60.6701825 66.5367636 61.1431752 65.5833091 61.6161679 64.6309455 62.8336861 64.0451273 63.8190876 64.4520364 64.3413504 64.6680364 64.7672628 65.1251273 65.3278467 65.2058545 65.9377007 65.2942182 66.5092336 64.9124 67.1125182 64.7825818 67.7311314 64.6494909 68.4143431 64.8022182 68.8917153 65.2189455 69.3668978 65.6345818 69.6110584 66.3131273 69.4676277 66.9284"/>
  </g>
</svg>
