<svg xmlns="http://www.w3.org/2000/svg" xmlns:xlink="http://www.w3.org/1999/xlink" width="160" height="160" viewBox="0 0 160 160">
  <defs>
    <polygon id="03-a" points="0 20.452 0 .07 18.752 .07 18.752 20.452 0 20.452"/>
  </defs>
  <g fill="none" fill-rule="evenodd" transform="translate(9 8)">
    <g transform="translate(0 15.947)">
      <path fill="#213C6D" d="M51.079942,124.737226 L10.6854042,124.737226 C7.11019412,124.737226 4.20093361,121.833212 4.20093361,118.263139 L4.20093361,112.381577 L57.5622782,112.381577 L57.5622782,118.263139 C57.5622782,121.833212 54.6551521,124.737226 51.079942,124.737226 L51.079942,124.737226 Z M4.20093361,109.184496 L57.5622782,109.184496 L57.5622782,49.4204088 L4.20093361,49.4204088 L4.20093361,109.184496 Z M10.6854042,36.4722336 L51.079942,36.4722336 C54.6551521,36.4722336 57.5622782,39.3762482 57.5622782,42.9463212 L57.5622782,46.2233285 L4.20093361,46.2233285 L4.20093361,42.9463212 C4.20093361,39.3762482 7.11019412,36.4722336 10.6854042,36.4722336 L10.6854042,36.4722336 Z M51.079942,33.2751533 L10.6854042,33.2751533 C5.33646303,33.2751533 0.999252941,37.6050657 0.999252941,42.9463212 L0.999252941,118.263139 C0.999252941,123.60546 5.33646303,127.934307 10.6854042,127.934307 L51.079942,127.934307 C56.4288832,127.934307 60.7639588,123.60546 60.7639588,118.263139 L60.7639588,42.9463212 C60.7639588,37.6050657 56.4288832,33.2751533 51.079942,33.2751533 L51.079942,33.2751533 Z"/>
      <path fill="#213C6D" d="M30.7046597,114.779707 C28.7889874,114.779707 27.2361723,116.330291 27.2361723,118.24321 C27.2361723,120.15613 28.7889874,121.706714 30.7046597,121.706714 C32.6203319,121.706714 34.1731471,120.15613 34.1731471,118.24321 C34.1731471,116.330291 32.6203319,114.779707 30.7046597,114.779707"/>
      <g transform="translate(75)">
        <path fill="#213C6D" d="M47.5366714,22.7947562 L5.88707479,40.7122599 L4.28089832,36.9908584 C3.95539412,36.2363474 4.29904118,35.3731358 5.05463782,35.0480993 L43.9347807,18.3220409 C44.6903773,17.9970044 45.5558983,18.3401577 45.8803353,19.0946686 L47.4854445,22.8160701 L47.5366714,22.7947562 Z M56.4971084,43.5651212 C56.8226126,44.3185664 56.4789655,45.1828438 55.7233689,45.5068146 L16.8432261,62.2339387 C16.0876294,62.5589752 15.2242429,62.2147562 14.8976714,61.4602453 L8.82301597,47.379238 L50.4726126,29.4617343 L56.5472681,43.5427416 L56.4971084,43.5651212 Z M42.5890076,15.2038219 L3.70993193,31.9298803 C1.24143613,32.9923766 0.0952344538,35.8697489 1.37590672,38.8377051 L11.9414529,63.3284058 C12.7877639,65.2903474 15.6714109,66.4349022 18.1377723,65.3734715 L57.0189824,48.6474131 C59.4853437,47.5849168 60.6326126,44.7075445 59.7873689,42.7456029 L49.2196882,18.2549022 C47.9400832,15.286946 45.0575034,14.1423912 42.5890076,15.2038219 L42.5890076,15.2038219 Z"/>
        <path fill="#213C6D" d="M42.525721,46.0572453 L49.8287546,42.915581 C50.5843513,42.5905445 50.9279983,41.7273328 50.6024941,40.9728219 L48.7796706,36.7484131 C48.4552336,35.9939022 47.5897126,35.6507489 46.834116,35.9757854 L39.5310824,39.1174496 C38.7754857,39.4424861 38.4318387,40.3056978 38.7584101,41.0602088 L40.5801664,45.2846175 C40.9558303,46.0167489 41.8213513,46.3609679 42.525721,46.0572453"/>
        <path stroke="#213C6D" d="M48.5704941 9.36787153C51.0240487 6.39778394 53.4765361 3.42769635 55.9300908.457608759M55.2250807 18.2354C59.2538622 17.9519255 63.2826437 17.6673854 67.310358 17.3839109M34.7966504 11.0528394C33.7294235 7.77583212 32.6611294 4.49882482 31.5939025 1.22288321"/>
      </g>
    </g>
    <g transform="translate(11 79)">
      <path fill="#FF585A" d="M33.7379713,26 C33.6983235,25.9513335 29.6468127,21.0460504 22.7461111,21.0460504 C15.8424358,21.0460504 12.0451666,25.4461049 12.0070056,25.4902559 L10.8051813,24.7998939 C10.8329348,24.716609 13.69402,16.4914673 22.7461111,16.4914673 C31.7937417,16.4914673 34.9174937,25.226353 34.9477252,25.3151569 L33.7379713,26 Z"/>
      <mask id="03-b" fill="#fff">
        <use xlink:href="#03-a"/>
      </mask>
      <path fill="#FF585A" d="M12.953188,20.4521457 C5.30264705,20.4521457 3.88920255,14.8193736 3.82229687,10.6245212 C3.74002766,5.43275797 1.33786585,5.00379029 -0.000247798825,5.56521115 C1.98660318,-2.15821398 14.4712036,-2.09449597 14.4712036,8.02312071 C14.4712036,12.5501095 9.92013034,20.5414513 18.1743092,17.4875024 L18.7516805,18.7859449 C18.6178691,18.8531749 15.4410882,20.4521457 12.953188,20.4521457" mask="url(#03-b)"/>
      <path fill="#FF585A" d="M30.6913046,21.8699281 L30.5743435,21.7841346 L28.2058824,19.7060245 L29.1162952,18.3589154 C29.3427834,18.4793274 29.7774225,18.6489076 30.0316641,18.6489076 C31.5809023,18.6489076 31.5809023,15.6902849 31.5809023,15.6902849 C31.5809023,15.6902849 34.9559223,18.2294726 34.9559223,19.9945115 C34.9559223,21.0039653 33.34523,21.9702714 32.5577253,21.9702714 C31.7077753,21.9702714 30.8667461,21.9752886 30.6913046,21.8699281 Z"/>
    </g>
    <text fill="#213C6D" font-family=".SFNSDisplay, .SF NS Display" font-size="36" transform="rotate(-20 53.918 27.717)">
      <tspan x="44.313" y="36.717">€</tspan>
    </text>
  </g>
</svg>
