<svg xmlns="http://www.w3.org/2000/svg" xmlns:xlink="http://www.w3.org/1999/xlink" width="160" height="160" viewBox="0 0 160 160">
  <defs>
    <polygon id="04-a" points=".018 59.975 35.378 59.975 35.378 .119 .018 .119"/>
  </defs>
  <g fill="none" fill-rule="evenodd" transform="translate(6)">
    <g transform="translate(0 86)">
      <g transform="translate(13.891 13.491)"/>
      <path fill="#213C6D" stroke="#213C6D" d="M43.5387299,71.4444101 L19.63963,71.4444101 C17.5250174,71.4444101 15.8037771,69.6080995 15.8037771,67.3506168 L15.8037771,63.6314983 L47.3745828,63.6314983 L47.3745828,67.3506168 C47.3745828,69.6080995 45.6539739,71.4444101 43.5387299,71.4444101 L43.5387299,71.4444101 Z M15.8037771,61.609872 L47.3745828,61.609872 L47.3745828,23.8189377 L15.8037771,23.8189377 L15.8037771,61.609872 Z M19.63963,15.6313512 L43.5387299,15.6313512 C45.6539739,15.6313512 47.3745828,17.4676618 47.3745828,19.7251445 L47.3745828,21.7973114 L15.8037771,21.7973114 L15.8037771,19.7251445 C15.8037771,17.4676618 17.5250174,15.6313512 19.63963,15.6313512 L19.63963,15.6313512 Z M43.5387299,13.6097249 L19.63963,13.6097249 C16.4756038,13.6097249 13.9095287,16.3476808 13.9095287,19.7251445 L13.9095287,67.3506168 C13.9095287,70.7280805 16.4756038,73.4660364 19.63963,73.4660364 L43.5387299,73.4660364 C46.7033875,73.4660364 49.2688312,70.7280805 49.2688312,67.3506168 L49.2688312,19.7251445 C49.2688312,16.3476808 46.7033875,13.6097249 43.5387299,13.6097249 L43.5387299,13.6097249 Z"/>
      <path fill="#213C6D" d="M31.4838598 65.1475159C30.3504678 65.1475159 29.4317574 66.1280046 29.4317574 67.337611 29.4317574 68.5472175 30.3504678 69.5277062 31.4838598 69.5277062 32.6172517 69.5277062 33.5359621 68.5472175 33.5359621 67.337611 33.5359621 66.1280046 32.6172517 65.1475159 31.4838598 65.1475159M23.0805953 29.7803983L40.097891 29.7803983 31.5895588 35.3634563 23.0805953 29.7803983zM21.8499652 42.1621855L21.8499652 30.1887668 31.5895588 36.5791276 41.328521 30.1887668 41.328521 42.1621855 21.8499652 42.1621855zM20.8788473 43.1979321L42.2990075 43.1979321 42.2990075 28.7446518 20.8788473 28.7446518 20.8788473 43.1979321z"/>
      <text fill="#213C6D" font-family="Muli" font-size="12" font-style="italic">
        <tspan x="18.121" y="50.404">SMS</tspan>
      </text>
    </g>
    <g fill="#213C6D" transform="translate(57 99)">
      <path d="M54.1055891,57.3643701 C54.1055891,57.5767601 53.9435245,57.749461 53.7442152,57.749461 L39.9385257,57.749461 L39.9385257,58.5421691 L38.9319132,58.5421691 L38.9319132,57.749461 L18.8741538,57.749461 L18.8741538,58.5421691 L17.8675414,58.5421691 L17.8675414,57.749461 L4.06185186,57.749461 C3.86153599,57.749461 3.700478,57.5767601 3.700478,57.3643701 L3.700478,4.42133789 C3.700478,4.20787523 3.86153599,4.03517427 4.06185186,4.03517427 L17.8675414,4.03517427 L17.8675414,1.48327636 L18.8741538,1.48327636 L18.8741538,4.03517427 L38.9319132,4.03517427 L38.9319132,1.48327636 L39.9385257,1.48327636 L39.9385257,4.03517427 L53.7442152,4.03517427 C53.9435245,4.03517427 54.1055891,4.20787523 54.1055891,4.42133789 L54.1055891,57.3643701 Z M53.7442152,0.817144116 L4.06185186,0.817144116 C2.1945858,0.817144116 0.680640693,2.43152258 0.680640693,4.42133789 L0.680640693,57.3643701 C0.680640693,59.3541854 2.1945858,60.9674912 4.06185186,60.9674912 L53.7442152,60.9674912 C55.6114813,60.9674912 57.1254264,59.3541854 57.1254264,57.3643701 L57.1254264,4.42133789 C57.1254264,2.43152258 55.6114813,0.817144116 53.7442152,0.817144116 L53.7442152,0.817144116 Z"/>
      <polygon points="18.874 30.034 38.932 30.034 38.932 15.19 18.874 15.19"/>
      <polygon points="39.435 41.33 39.435 40.356 39.938 40.356 39.938 30.521 39.435 30.521 39.435 30.034 39.435 29.547 39.938 29.547 39.938 16.933 39.435 16.933 39.435 15.959 39.938 15.959 39.938 4.035 39.938 1.483 38.932 1.483 38.932 4.035 38.932 15.189 38.932 30.034 38.932 47.141 39.435 47.141 39.435 48.311 38.932 48.311 38.932 57.75 38.932 58.542 39.938 58.542 39.938 57.75 39.938 41.33"/>
      <polygon points="18.371 48.312 18.371 47.141 18.874 47.141 18.874 30.033 18.874 15.189 18.874 4.036 18.874 1.483 17.868 1.483 17.868 4.036 17.868 29.236 18.371 29.236 18.371 30.21 17.868 30.21 17.868 57.749 17.868 58.543 18.874 58.543 18.874 57.749 18.874 48.312"/>
      <polygon points="39.435 41.33 39.938 41.33 54.031 41.33 54.031 40.356 39.938 40.356 39.435 40.356"/>
      <polygon points="18.371 47.141 18.371 48.311 18.874 48.311 38.932 48.311 39.435 48.311 39.435 47.141 38.932 47.141 18.874 47.141"/>
      <polygon points="39.435 30.034 39.435 30.521 39.938 30.521 54.031 30.521 54.031 29.547 39.938 29.547 39.435 29.547"/>
      <polygon points="3.775 30.21 17.868 30.21 18.371 30.21 18.371 29.236 17.868 29.236 3.775 29.236"/>
      <polygon points="39.435 16.933 39.938 16.933 54.031 16.933 54.031 15.959 39.938 15.959 39.435 15.959"/>
    </g>
    <g transform="translate(36 1)">
      <path fill="#213C6D" d="M83.87205,28.39549 L91.6846125,31.4616344 L100.939987,51.6002233 L91.1264875,56.3236789 L86.795675,46.8910344 C86.7161125,46.7174567 86.5843,46.5688456 86.4216125,46.46779 C86.2613,46.3679233 86.068925,46.3156122 85.8777375,46.3215567 C85.6877375,46.3275011 85.498925,46.3893233 85.3433625,46.4987011 C85.1878,46.6092678 85.0654875,46.7650122 84.995425,46.9433456 L69.38455,86.8186789 L50.5033,79.4095233 L69.93555,29.7781678 L71.6823625,35.3754567 C71.7274875,35.52169 71.809425,35.6572233 71.9163,35.7666011 C72.0219875,35.8759789 72.156175,35.96039 72.30105,36.0103233 C72.4447375,36.0602567 72.602675,36.0745233 72.7534875,36.0531233 C72.9054875,36.0305344 73.05155,35.9734678 73.1762375,35.88549 L83.87205,28.39549 Z M51.0923,15.5317122 L58.90605,18.5978567 L61.668175,31.3689011 C61.7002375,31.5187011 61.7691125,31.6601789 61.8653,31.7790678 C61.9614875,31.8979567 62.086175,31.9930678 62.2251125,32.0560789 C62.366425,32.11909 62.5208,32.1476233 62.6728,32.1393011 C62.8248,32.1321678 62.9768,32.08699 63.1098,32.01209 L68.071175,29.1694567 L48.681675,78.6938122 L29.8799875,71.3155678 L45.49205,31.4402344 C45.560925,31.2619011 45.57755,31.0645456 45.537175,30.87789 C45.4979875,30.6912344 45.4018,30.5176567 45.2652375,30.3833122 C45.1298625,30.2501567 44.9553,30.1574233 44.7664875,30.1217567 C44.58005,30.0849011 44.382925,30.1051122 44.207175,30.1776344 L34.626425,34.1509011 L30.641175,24.0132456 L51.0923,15.5317122 Z M83.731925,21.2098456 L84.1808,25.7894456 L73.1513,33.5136567 L71.24655,27.4170344 C75.4016125,25.33529 79.56855,23.2761344 83.731925,21.2098456 Z M63.886425,13.4214344 C65.5418,17.7715789 67.173425,22.1312344 68.8133625,26.4885122 L63.297425,29.64739 L60.447425,16.47569 L63.886425,13.4214344 Z M66.0061125,13.4713678 C71.3759875,15.5780789 76.7434875,17.68479 82.1133625,19.7915011 C78.2729875,21.7127456 74.4373625,23.6363678 70.59105,25.5457233 C69.063925,21.5201456 67.5213625,17.5005122 66.0061125,13.4713678 L66.0061125,13.4713678 Z M64.6737375,10.8439233 C64.665425,10.8415456 64.6583,10.8391678 64.6499875,10.8356011 C64.484925,10.7714011 64.3008625,10.7535678 64.123925,10.7844789 C63.948175,10.8165789 63.7807375,10.8962344 63.6477375,11.0151233 L58.7208,15.3902344 C58.5973,15.50199 58.5011125,15.6458456 58.4464875,15.8039678 C58.3918625,15.96209 58.3788,16.1344789 58.409675,16.2997344 L51.43905,13.5641011 C51.2074875,13.4725567 50.9403,13.4749344 50.7087375,13.5712344 L29.0048,22.5711233 C28.77205,22.6686122 28.5784875,22.8600233 28.479925,23.0942344 C28.3813625,23.3272567 28.3766125,23.5995122 28.4692375,23.8349122 L33.1717375,35.7963233 C33.2192375,35.9164011 33.2904875,36.0281567 33.3807375,36.12089 C33.472175,36.2136233 33.57905,36.2873344 33.6989875,36.3384567 C33.8201125,36.3860122 33.947175,36.4157344 34.0766125,36.4169233 C34.2072375,36.4181122 34.3354875,36.3919567 34.4566125,36.3420233 L42.8308625,32.86809 L27.700925,71.5129233 C27.6083,71.75189 27.61305,72.0265233 27.7163625,72.2619233 C27.8184875,72.4973233 28.0168,72.6887344 28.2554875,72.7814678 L48.729175,80.8171678 C48.8206125,80.8718567 48.9203625,80.91109 49.0248625,80.93249 L69.5804875,88.9991011 C69.819175,89.0930233 70.0934875,89.0870789 70.3298,88.9848344 C70.5637375,88.88259 70.754925,88.6840456 70.84755,88.4450789 L85.9774875,49.8002456 L89.7656125,58.0475678 C89.81905,58.1652678 89.8962375,58.2722678 89.9912375,58.3590567 C90.087425,58.4470344 90.2002375,58.5148011 90.32255,58.55879 C90.4424875,58.6063456 90.5754875,58.6218011 90.7037375,58.6158567 C90.833175,58.6099122 90.961425,58.5766233 91.0778,58.5207456 L102.65355,52.9484233 C102.882738,52.8378567 103.064425,52.6357456 103.149925,52.3967789 C103.236613,52.1590011 103.224738,51.8867456 103.11905,51.6561011 L93.2972375,30.2846344 C93.1927375,30.0575567 92.9979875,29.8732789 92.7652375,29.7817344 L85.7958,27.0461011 C85.9288,26.9462344 86.0368625,26.8107011 86.10455,26.6585233 C86.1722375,26.5051567 86.19955,26.3339567 86.182925,26.1675122 L85.5393,19.6060344 C85.5214875,19.4241344 85.4502375,19.24699 85.337425,19.1019456 C85.2258,18.9569011 85.071425,18.8451456 84.89805,18.7821344 C84.8897375,18.7785678 84.8826125,18.7750011 84.8743,18.7714344 C78.1399875,16.1285344 71.4068625,13.4868233 64.6737375,10.8439233 Z"/>
      <path fill="#213C6D" d="M30.1312933,58.7390045 L28.7532162,63.7048426 L29.4690135,63.905024 L30.8656731,58.8744433 C30.8961484,58.7643063 30.9325701,58.6303559 30.9608154,58.4844988 C31.093866,58.4443137 31.2246867,58.4033844 31.3584806,58.3631993 L31.1429238,57.6510298 C31.0849464,57.6681457 31.0284557,57.6860058 30.9712216,57.7038658 C30.9466927,57.5929847 30.9102711,57.484336 30.853037,57.3786641 C30.5720698,56.8629551 29.9737138,56.6731921 29.6169301,56.5600784 L26.18809,55.4735921 L25.9643569,56.1827849 L29.3924537,57.2692713 C29.7455209,57.3816407 30.073316,57.5014519 30.2004201,57.7343767 C30.2308954,57.7901894 30.2479913,57.8541879 30.2569109,57.9219073 C24.0109661,59.8448393 18.581164,61.9136284 15.0735342,66.4441278 C12.3404223,69.9737202 11.0322154,74.8003987 11.185335,80.790213 C11.3295351,86.4049662 12.7886318,90.7910968 15.5239736,93.7476793 L16.0695553,93.2423887 C13.4605745,90.4227333 12.069118,86.2248774 11.9286344,80.7716088 C11.7799745,74.9574183 13.0354072,70.2899919 15.661484,66.9003032 C18.9751127,62.6205888 24.1529363,60.5949614 30.1312933,58.7390045" transform="rotate(-17 21.266 74.61)"/>
      <path stroke="#213C6D" stroke-width="2" d="M97.6559563 25.6127767C101.615081 24.0303656 105.574206 22.4479544 109.533331 20.8655433M102.318912 35.45L111.818912 35.45M41.5171438 12.5501489C38.2016438 8.49247111 34.8873313 4.43479333 31.5730188.375926667M17.6121625 30.1321C12.072475 29.8313111 6.5327875 29.5317111.9931 29.2309222M78.3683438 86.6154978C81.9676563 90.4187533 85.5669688 94.2231978 89.1650938 98.0264533"/>
    </g>
  </g>
</svg>
