<?xml version="1.0" encoding="UTF-8"?>
<svg width="160px" height="160px" viewBox="0 0 160 160" version="1.1" xmlns="http://www.w3.org/2000/svg" xmlns:xlink="http://www.w3.org/1999/xlink" style="background: #FFFFFF;">
    <!-- Generator: Sketch 46.2 (44496) - http://www.bohemiancoding.com/sketch -->
    <title>picto/click&amp;collect/04</title>
    <desc>Created with Sketch.</desc>
    <defs></defs>
    <g id="Symbols" stroke="none" stroke-width="1" fill="none" fill-rule="evenodd">
        <g id="picto/click&amp;collect/04">
            <g id="step4" transform="translate(6.000000, 9.000000)">
                <text id="1234" font-family="Muli" font-size="16" font-style="italic" font-weight="normal" line-spacing="26" fill="#213C6D">
                    <tspan x="34" y="108">1234</tspan>
                </text>
                <text id="SMS" transform="translate(82.127849, 21.651336) rotate(-12.000000) translate(-82.127849, -21.651336) " font-family="Muli" font-size="16" font-style="italic" font-weight="normal" line-spacing="26" fill="#213C6D">
                    <tspan x="39.7773929" y="23.6513359">SMS</tspan>
                </text>
                <path d="M73,133 L32,133 C27.9975,133 25,129.94454 25,126 L25,120 L80,120 L80,126 C80,129.94454 77.0025,133 73,133 L73,133 Z M25,117 L80,117 L80,53 L25,53 L25,117 Z M32,40 L73,40 C77.0025,40 80,42.9781421 80,47 L80,50 L25,50 L25,47 C25,42.9781421 27.9975,40 32,40 L32,40 Z M31.8387097,37 C26.4257679,37 22,41.528472 22,47 L22,126 C22,131.472643 26.4257679,136 31.8387097,136 L73.1612903,136 C78.5742321,136 83,131.472643 83,126 L83,47 C83,41.528472 78.5742321,37 73.1612903,37 L31.8387097,37 Z M39,64 L67,64 L53.0005195,73 L39,64 Z M37,83 L37,65 L53,75 L69,65 L69,83 L37,83 Z M35,85 L35,62 L71,62 L71,85 L35,85 Z M52.625,122 C54.6271154,122 56.25,123.620699 56.25,125.620118 C56.25,127.619536 54.6271154,129.240235 52.625,129.240235 C50.6228846,129.240235 49,127.619536 49,125.620118 C49,123.620699 50.6228846,122 52.625,122 Z" id="Fill-10" fill="#213C6D"></path>
                <path d="M92.9892418,18.9782509 L93.0057692,20.0146145 L86.8296593,20.1109964 C85.2523187,23.6491418 83.5035055,27.16656 81.6297033,30.5720509 L81.2175495,31.3192691 L79.1051319,28.1210509 L79.9666264,27.5489782 L81.1359451,29.3201236 C82.8940549,26.0783782 84.5344066,22.7412873 86.0198132,19.3886509 L86.1540989,19.0860327 L92.9892418,18.9782509 Z M26.9217033,27.2205545 C26.9568242,23.7591 27.9939231,20.2800273 29.8522308,17.3605909 L23.4767582,13.9509545 L23.9632857,13.0358455 L31.347967,16.9864636 L31.0215495,17.4642273 C29.1756374,20.1701727 28.1003187,23.4378273 27.9680989,26.7179182 L31.0298132,26.7759545 L31.0091538,27.8123182 L26.9165385,27.7335545 L26.9217033,27.2205545 Z M10.6575341,44.2791 L16.488633,43.0489364 L16.7003912,44.0635364 L10.8692923,45.2937 C10.7184791,45.3258273 10.4922593,45.3735 10.2443473,45.3735 C9.94995165,45.3735 9.6256,45.3071727 9.3559956,45.0698455 C8.94694066,44.7102273 8.90872088,44.1713182 8.88496264,43.8479727 L8.46970989,37.8691909 C8.43252308,37.3323545 8.38087473,36.8649545 8.12883077,36.5768455 C7.82410549,36.2275909 7.21775385,36.1550455 6.6237978,36.1094455 L0.000413186813,35.6099182 L0.0768527473,34.5766636 L6.70023736,35.0761909 C7.29729231,35.1217909 8.29617143,35.1964091 8.90562198,35.8928455 C9.40764396,36.4669909 9.46135824,37.2359727 9.50061099,37.7976818 L9.91173187,43.7246455 C9.92619341,43.9163727 9.94685275,44.2117364 10.0356879,44.2894636 C10.1482813,44.3868818 10.5315121,44.3060455 10.6575341,44.2791 Z" id="Fill-13" fill="#213C6D"></path>
                <path d="M139.000162,30.3024667 C139.172731,30.3531492 139.339572,30.3870331 139.470187,30.3870331 C141.506329,30.3870331 141.506329,26.5180649 141.506329,26.5180649 C141.506329,26.5180649 145.942069,29.838541 145.942069,32.1466689 C145.942069,33.2329076 144.508664,34.2809406 143.424187,34.6181293 C145.172267,36.9889079 145.914512,39.0553821 145.931296,39.1044359 L144.341334,40 C144.289225,39.9363592 138.964382,33.5217583 129.894889,33.5217583 C120.821487,33.5217583 115.83079,39.2756756 115.780636,39.3334116 L114.201095,38.4306305 C114.219898,38.374489 115.228189,35.4892206 117.830422,32.7064591 C117.557504,32.7315129 117.287903,32.7451136 117.02419,32.7451136 C106.969193,32.7451136 105.111523,25.3791808 105.02359,19.8936047 C104.915465,13.1043758 101.758338,12.5434181 99.9996743,13.2775838 C102.610964,3.17772018 119.019296,3.26104373 119.019296,16.4917732 C119.019296,22.037174 113.770744,31.5578171 122.023646,29.4575969 C124.123661,28.3320361 126.719437,27.5657649 129.894889,27.5657649 C133.678138,27.5657649 136.673297,28.7219929 139.000162,30.3024667 Z" id="Fill-36" fill="#FF585A"></path>
                <g id="icon/locker" transform="translate(94.000000, 52.000000)" fill="#213C6D">
                    <path d="M36.5538462,26.5846154 L27.4153846,26.5846154 L17.4461538,26.5846154 L17.4461538,43.2 L36.5538462,43.2 L36.5538462,44.0307692 L17.4461538,44.0307692 L17.4461538,51.5076923 L16.6153846,51.5076923 L16.6153846,26.5846154 L2.49230769,26.5846154 L2.49230769,25.7538462 L16.6153846,25.7538462 L16.6153846,2.49230769 L17.4461538,2.49230769 L17.4461538,13.2923077 L36.5538462,13.2923077 L36.5538462,2.49230769 L37.3846154,2.49230769 L37.3846154,19.5230769 L37.3846154,25.7538462 L51.5076923,25.7538462 L51.5076923,4.49230769 C51.5076923,3.38773819 50.6122618,2.49230769 49.5076923,2.49230769 L4.49230769,2.49230769 C3.38773819,2.49230769 2.49230769,3.38773819 2.49230769,4.49230769 L2.49230769,49.5076923 C2.49230769,50.6122618 3.38773819,51.5076923 4.49230769,51.5076923 L4.49230769,51.5076923 L49.5076923,51.5076923 C50.6122618,51.5076923 51.5076923,50.6122618 51.5076923,49.5076923 L51.5076923,49.5076923 L51.5076923,26.5846154 L37.3846154,26.5846154 L37.3846154,51.5076923 L36.5538462,51.5076923 L36.5538462,26.5846154 Z M50.6769231,0 C52.5516282,0 54,1.44930896 54,3.32307692 L54,50.6769231 C54,52.551654 52.5516282,54 50.6769231,54 L3.32307692,54 C1.44837179,54 0,52.551654 0,50.6769231 L0,3.32307692 C0,1.44930896 1.44837179,0 3.32307692,0 L50.6769231,0 Z M37.3846154,13.2923077 L51.5076923,13.2923077 L51.5076923,14.1230769 L37.3846154,14.1230769 L37.3846154,13.2923077 Z M37.3846154,38.2153846 L51.5076923,38.2153846 L51.5076923,39.0461538 L37.3846154,39.0461538 L37.3846154,38.2153846 Z" id="Fill-13"></path>
                </g>
            </g>
        </g>
    </g>
</svg>
