<svg xmlns="http://www.w3.org/2000/svg" width="24" height="24" viewBox="0 0 24 24">
  <g fill="none" fill-rule="evenodd">
    <path fill="#FF595A" d="M8,16.3043333 C8.08927525,16.2738999 8.17507095,16.2381129 8.25738969,16.1969713 C8.33970843,16.1558297 8.41970713,16.1115891 8.49738819,16.0642482 L8.78434291,16.0185981 L8.78434291,18.2081075 L9.16173185,18.2081075 L9.16173185,18.4498834 L8.10434717,18.4498834 L8.10434717,18.2081075 L8.48521435,18.2081075 L8.48521435,16.3449111 C8.40753329,16.3877434 8.32956354,16.4271937 8.25130277,16.463263 C8.173042,16.4993323 8.08927525,16.5342739 8,16.5680889 L8,16.3043333 Z M11.3947613,18.4498834 L9.76694545,18.4498834 L9.76520633,18.2013445 C9.84636565,18.1258244 9.93563956,18.0446696 10.0330307,17.9578778 C10.1304219,17.871086 10.2278116,17.7817595 10.3252028,17.6898954 C10.422594,17.5980314 10.5170852,17.5047598 10.6086793,17.4100778 C10.7002734,17.3153959 10.7814315,17.2226878 10.852156,17.131951 C10.9228806,17.0412141 10.9794014,16.9541418 11.0217202,16.8707315 C11.064039,16.7873212 11.0851981,16.7101115 11.0851981,16.6391 C11.0851981,16.5804874 11.073604,16.526666 11.0504157,16.4776343 C11.0272273,16.4286025 10.9938945,16.3866162 10.9504163,16.3516741 C10.9069381,16.3167319 10.854765,16.2893986 10.7938955,16.2696732 C10.733026,16.2499477 10.6654909,16.2400852 10.5912881,16.2400852 C10.5240418,16.2400852 10.4599849,16.2491024 10.3991154,16.267137 C10.3382459,16.2851717 10.2823048,16.3108144 10.2312904,16.3440658 C10.1802759,16.3773172 10.1347694,16.4178945 10.0947695,16.4657991 C10.0547695,16.5137037 10.0214367,16.567525 9.99477011,16.6272648 L9.82607551,16.463263 C9.85390156,16.3911243 9.89303136,16.326595 9.94346608,16.2696732 C9.9939008,16.2127513 10.0533201,16.1642838 10.1217258,16.1242694 C10.1901315,16.084255 10.2654926,16.053822 10.3478114,16.0329694 C10.4301301,16.0121169 10.5176649,16.0016907 10.6104184,16.0016907 C10.722882,16.0016907 10.8266485,16.0163437 10.9217208,16.04565 C11.0167932,16.0749563 11.0991107,16.1166608 11.1686758,16.1707648 C11.2382409,16.2248688 11.2924429,16.2905252 11.3312835,16.3677361 C11.370124,16.444947 11.389544,16.5314557 11.389544,16.6272648 C11.389544,16.7287098 11.3637473,16.8318439 11.3121532,16.9366704 C11.260559,17.0414969 11.1915746,17.1474489 11.1051979,17.2545297 C11.0188212,17.3616105 10.918533,17.4698168 10.8043303,17.5791519 C10.6901275,17.688487 10.5704193,17.7989476 10.4452021,17.9105371 C10.3907094,17.9590052 10.3376668,18.0066273 10.2860726,18.0534047 C10.2344785,18.1001821 10.1808562,18.150622 10.1252041,18.204726 L11.3947613,18.204726 L11.3947613,18.4498834 Z M12.3304076,17.0736204 C12.3477989,17.0747476 12.3663493,17.0753111 12.3860595,17.0753111 L12.4399722,17.0753111 C12.542001,17.0753111 12.6338836,17.0677029 12.7156226,17.0524861 C12.7973616,17.0372694 12.8666359,17.0116268 12.9234474,16.9755574 C12.9802589,16.9394881 13.0240263,16.8921479 13.0547509,16.8335352 C13.0854755,16.7749226 13.1008376,16.7022214 13.1008376,16.6154296 C13.1008376,16.5511812 13.0886639,16.4956691 13.0643161,16.4488917 C13.0399683,16.4021143 13.0060558,16.3635094 12.9625776,16.3330759 C12.9190994,16.3026425 12.8672162,16.2798177 12.8069264,16.2646009 C12.7466366,16.2493842 12.6811304,16.2417759 12.6104059,16.2417759 C12.4875075,16.2417759 12.3779441,16.2665732 12.2817123,16.3161685 C12.1854805,16.3657638 12.1066412,16.4412828 12.045192,16.5427278 L11.8747583,16.3922519 C11.9002655,16.3313849 11.9373664,16.2767182 11.986062,16.22825 C12.0347576,16.1797819 12.0918581,16.1386409 12.1573652,16.1048259 C12.2228724,16.0710109 12.2950452,16.0450865 12.3738856,16.0270519 C12.4527261,16.0090172 12.5350436,16 12.6208406,16 C12.7228695,16 12.8219983,16.013244 12.91823,16.0397324 C13.0144618,16.0662208 13.0996778,16.1053893 13.1738806,16.1572389 C13.2480834,16.2090885 13.3077926,16.273336 13.3530099,16.3499833 C13.3982273,16.4266306 13.4208356,16.5145483 13.4208356,16.6137389 C13.4208356,16.6881319 13.4086619,16.7560426 13.3843141,16.8174732 C13.3599663,16.8789037 13.3257639,16.9338523 13.281706,16.9823204 C13.2376481,17.0307885 13.1848953,17.0722113 13.1234462,17.1065899 C13.061997,17.1409684 12.9935923,17.1683018 12.91823,17.1885908 L12.9356212,17.1919723 C13.0167806,17.2077526 13.0912721,17.2325499 13.1590981,17.2663649 C13.2269241,17.3001798 13.285184,17.3424479 13.3338796,17.3931704 C13.3825752,17.4438929 13.4205456,17.5022229 13.4477919,17.5681621 C13.4750383,17.6341013 13.4886613,17.7076478 13.4886613,17.7888038 C13.4886613,17.8970117 13.464024,17.9945101 13.4147487,18.0813019 C13.3654734,18.1680937 13.2985179,18.2416402 13.2138804,18.3019436 C13.1292428,18.362247 13.0312734,18.4084601 12.9199692,18.4405843 C12.808665,18.4727086 12.6909857,18.4887705 12.5669279,18.4887705 C12.4764932,18.4887705 12.3915671,18.480035 12.3121469,18.462564 C12.2327267,18.4450929 12.1617134,18.4188867 12.0991047,18.3839445 C12.0364961,18.3490024 11.9837434,18.3056071 11.9408449,18.2537575 C11.8979464,18.2019078 11.8683816,18.1416054 11.8521498,18.0728482 L11.9964967,17.9020834 C12.0185257,17.9584417 12.0486701,18.0080363 12.0869309,18.0508686 C12.1251917,18.0937009 12.1698287,18.1297697 12.2208431,18.159076 C12.2718575,18.1883823 12.3280885,18.2106435 12.3895377,18.2258603 C12.4509869,18.241077 12.5153337,18.2486853 12.58258,18.2486853 C12.6660581,18.2486853 12.7440279,18.2379773 12.8164916,18.2165612 C12.8889552,18.195145 12.9521426,18.164712 13.0060556,18.1252612 C13.0599686,18.0858104 13.1022867,18.0373429 13.1330113,17.9798575 C13.1637359,17.922372 13.179098,17.8569973 13.179098,17.7837315 C13.179098,17.6991941 13.1625765,17.6270565 13.1295331,17.5673167 C13.0964896,17.5075769 13.049244,17.4588277 12.9877948,17.4210676 C12.9263456,17.3833076 12.8515642,17.3559742 12.7634484,17.3390667 C12.6753326,17.3221592 12.5767835,17.3137056 12.4677981,17.3137056 C12.448088,17.3137056 12.4257695,17.3139874 12.400842,17.314551 C12.3759145,17.3151146 12.353596,17.3159599 12.3338859,17.3170871 L12.3304076,17.0736204 Z M14.9964779,18.4498834 L14.9964779,17.8564334 L13.7773551,17.8564334 L13.7773551,17.6467815 L14.9338696,16.0490315 L15.2956065,16.0490315 L15.2956065,17.6332556 L15.667778,17.6332556 L15.667778,17.8564334 L15.2956065,17.8564334 L15.2956065,18.4498834 L14.9964779,18.4498834 Z M14.9964779,17.6332556 L14.9964779,16.2654463 L14.8434354,16.5122945 L14.0747445,17.6332556 L14.9964779,17.6332556 Z"/>
    <path fill="#FF595A" d="M15.7272727,22 L8.27272727,22 C7.545,22 7,21.5299293 7,20.9230769 L7,20 L17,20 L17,20.9230769 C17,21.5299293 16.455,22 15.7272727,22 L15.7272727,22 Z M7,19 L17,19 L17,7 L7,7 L7,19 Z M15.7272727,4 C16.455,4 17,4.59562842 17,5.4 L17,6 L7,6 L7,5.4 C7,4.59562842 7.545,4 8.27272727,4 L15.7272727,4 Z M7.93548387,3 L16.0645161,3 C17.1293571,3 18,3.91484284 18,5.02020202 L18,20.979798 C18,22.0853823 17.1293571,23 16.0645161,23 L7.93548387,23 C6.87064286,23 6,22.0853823 6,20.979798 L6,5.02020202 C6,3.91484284 6.87064286,3 7.93548387,3 Z"/>
    <path fill="#FF595A" d="M8,13 L8,8 L16,8 L16,13 L8,13 Z M8,9 L12,12 L16,9 L16,8 L12,11 L8,8 L8,9 Z"/>
    <path stroke="#FF595A" d="M19.5 8L22 4.5M5 5L2 1.5M5 10L1 7.5M18 3C19 1.33333333 19.5.5 19.5.5"/>
  </g>
</svg>
