<svg xmlns="http://www.w3.org/2000/svg" width="36" height="36" viewBox="0 0 36 36">
  <path fill="#FFF" fill-rule="evenodd" d="M22.754,11.462 C22.126,10.846 21.108,10.846 20.479,11.462 C19.85,12.079 19.85,13.079 20.479,13.695 L23.865,17.016 L7.45,17.016 C6.649,17.016 6,17.666 6,18.469 C6,19.272 6.649,19.922 7.45,19.922 L23.934,19.922 L20.512,23.279 C19.882,23.895 19.882,24.895 20.512,25.511 C20.825,25.82 21.238,25.974 21.65,25.974 C22.062,25.974 22.473,25.82 22.788,25.511 L29.933,18.502 L22.754,11.462 L22.754,11.462 Z"/>
</svg>
