<svg xmlns="http://www.w3.org/2000/svg" width="24" height="24" viewBox="0 0 24 24">
  <g fill="none" fill-rule="evenodd" stroke="#FF595A" transform="translate(1 3)">
    <path d="M4.99814637 5.957C5.97004383 5.957 6.70141667 6.8953784 6.70141667 8.00066667L6.70141667 15.8491667C6.70141667 16.9544549 5.97004383 17.8928333 4.99814637 17.8928333L1.2032703 17.8928333C.231880381 17.8928333-.5 16.9541773-.5 15.8491667L-.5 8.00066667C-.5 6.89565608.231880381 5.957 1.2032703 5.957L4.99814637 5.957zM20.3833406 12.4269013C21.0446792 12.5099614 21.5439167 13.0804105 21.5439167 13.7655833 21.5439167 14.3005105 21.2375622 14.7816337 20.7683624 15.0011951 20.5974299 15.0812716 20.4146572 15.1245 20.2253333 15.1245L19.69225 15.1245 19.69225 15.1695 20.66575 15.1695 20.66575 15.7978333C20.66575 16.9368989 19.7229591 17.8561667 18.5670833 17.8561667L13.3860833 17.8561667C13.0924313 17.8561667 12.832723 17.7490984 12.5743368 17.5551992 12.3874142 17.414928 11.7509761 16.7874664 11.786849 16.8206667 11.2237624 16.2995304 10.7013312 16.05125 9.94016981 16.0509522L8.70608333 16.0935614 8.70608333 6.96349758 9.12323907 6.89341093C9.29110335 6.86520793 9.58233677 6.75338894 9.87526677 6.51440855 10.18051 6.26538271 10.4135961 5.92513898 10.5490062 5.46799452L10.5905442 5.36861288C10.6158177 5.32276719 10.6630136 5.23836836 10.7297682 5.12089689 10.8405411 4.92596415 10.9661211 4.70896702 11.104156 4.47537169 11.4987448 3.80761244 11.914628 3.13966471 12.3334134 2.51479716 12.6161323 2.09295384 12.8909229 1.70490188 13.1550479 1.35757492 13.8961455.383024258 14.516974-.235658344 15.0649072-.443627849L15.2423333-.476166667C15.2871453-.476207497 15.2871453-.476207497 15.3324167-.476332462 16.0280426-.478259969 16.3123542-.439107255 16.6516188-.186351546 17.0847192.136312835 17.2713333.699776887 17.2713333 1.57116667L17.2713333 1.7014262 15.5707697 4.7437104C15.5562305 4.90249082 15.5863067 5.08634734 15.6906923 5.25725109 15.9465328 5.67612219 16.5963626 5.957 17.8365 5.957L20.4013333 5.957C21.5573001 5.957 22.5 6.87543241 22.5 8.01441667L22.5 9.58508333 19.6931667 9.58508333 19.6931667 9.65391667 21.1429167 9.65391667C21.2062086 9.65391667 21.2610646 9.66382295 21.3032157 9.67611802 21.964456 9.76030348 22.4619747 10.3301092 22.4605833 11.0155833 22.4605833 11.5505105 22.1542288 12.0316337 21.6850291 12.2511951 21.513524 12.3315398 21.3312082 12.3754167 21.142 12.3754167L19.69225 12.3754167 19.69225 12.40575 20.2253333 12.40575C20.3318005 12.41701 20.3590547 12.4198924 20.3833406 12.4269013z"/>
  </g>
</svg>
