<svg xmlns="http://www.w3.org/2000/svg" width="24" height="24" viewBox="0 0 24 24">
  <g fill="none" fill-rule="evenodd">
    <path stroke="#FF595A" d="M19.0823007,7.4368663 L18.4541118,8.06556179 C18.4314403,8.66898388 18.1903719,9.24445333 17.7554549,9.67739854 C16.8105378,10.6246147 15.2733097,10.6253256 14.3267451,9.67761367 C13.3814699,8.73118986 13.3811145,7.19445963 14.3265577,6.25016494 C14.7607,5.81503368 15.3346366,5.57363517 15.9365932,5.55136777 L16.5675728,4.92038825 L16.4334964,4.78571778 C16.3805739,4.78176175 16.3194425,4.77728214 16.2507171,4.77236536 C15.9606165,4.7516109 15.6417971,4.73084714 15.3042104,4.7114678 C14.6409423,4.67339253 13.9893048,4.64545976 13.3803653,4.63194112 C11.8285657,4.59749069 10.6302868,4.68659914 10.5297135,4.7882203 L0.809510791,14.5029538 C0.396873726,14.9174496 0.396873726,15.5887594 0.808694793,16.001818 L8.00438861,23.1966014 C8.41575933,23.6092074 9.08584321,23.6088246 9.50014421,23.1951431 L19.2184897,13.4777088 C19.3280255,13.3681731 19.4604329,12.2305822 19.4908933,10.7373164 C19.5071063,9.94250313 19.5009138,9.08962652 19.4807212,8.26595047 C19.4764224,8.09059782 19.4721291,7.94158987 19.4683529,7.82411993 L19.0823007,7.4368663 Z"/>
    <polygon fill="#FF595A" points="5 14.449 6.42 13.026 5.114 11.72 6.463 10.372 7.769 11.679 9.193 10.256 10.566 11.629 9.143 13.051 10.447 14.359 9.098 15.707 7.793 14.4 6.372 15.823"/>
    <polygon fill="#FF595A" points="8.713 21.113 7.261 19.66 13.252 13.668 12.129 12.546 13.448 11.225 16.023 13.799"/>
    <rect width="8" height="1" x="15.682" y="3.682" fill="#FF595A" transform="rotate(-45 19.682 4.182)"/>
  </g>
</svg>
