<svg xmlns="http://www.w3.org/2000/svg" width="24" height="24" viewBox="0 0 24 24">
  <path fill="#FF595A" fill-rule="evenodd" d="M12,23.789 C5.383,23.789 0,18.453 0,11.895 C0,5.336 5.383,0 12,0 C18.617,0 24,5.336 24,11.895 C24,18.453 18.617,23.789 12,23.789 L12,23.789 L12,23.789 Z M12.0409211,1.45183945 C17.8458651,1.45183945 22.566,6.16618563 22.566,11.9560789 C22.566,17.7482876 17.8458651,22.4591606 12.0409211,22.4591606 C6.23945042,22.4591606 1.517,17.7482876 1.517,11.9560789 C1.517,6.16502789 6.23945042,1.45183945 12.0409211,1.45183945 Z M13.978,11.934 C13.848,11.353 13.543,10.982 12.942,10.899 L12.942,5.976 L12.075,5.976 L12.075,10.872 C11.417,11.018 11.006,11.456 11.006,12.434 C11.006,13.319 11.646,13.85 12.438,13.85 C12.459,13.85 13.834,13.854 13.979,12.801 L17.959,12.801 L17.959,11.934 L13.978,11.934 Z"/>
</svg>
