<svg xmlns="http://www.w3.org/2000/svg" width="24" height="24" viewBox="0 0 24 24">
  <g fill="none" fill-rule="evenodd" transform="translate(0 1)">
    <path stroke="#FF595A" d="M15.978 5.044C15.978 7.77 13.749 12.982 10.999 12.982 8.249 12.982 6.02 7.769 6.02 5.044 6.02 2.317 8.25.107 10.999.107 13.748.107 15.978 2.317 15.978 5.044L15.978 5.044zM21.966 14.96C21.016 13.894 19.468 13.07 17.459 13.07 16.182 14.796 11.935 15.237 11.935 15.237 11.935 15.237 7.592 14.813 6.314 13.108.186 13.109.5 22 .5 22L18.982 21.992"/>
    <polygon fill="#FF595A" points="24 18 22 18 22 16 20.084 16 20.084 18 18.084 18 18.084 19.979 20.084 19.979 20.084 21.916 22 21.916 22 19.979 24 19.979"/>
  </g>
</svg>
