<svg xmlns="http://www.w3.org/2000/svg" width="255" height="110" viewBox="0 0 255 110">
  <path fill="#240058" fill-rule="evenodd" d="M39.3,65.4807692 L40.8,65.3798077 L40.9,67.0288462 C37.1333145,67.3429503 33.950013,67.5 31.35,67.5 C27.749982,67.477564 25.2333405,66.7596225 23.8,65.3461538 C22.3666595,63.9326852 21.65,61.756425 21.65,58.8173077 C21.65,52.9390732 25.083299,50 31.95,50 C35.2500165,50 37.7166585,50.6338078 39.35,51.9014423 C40.9833415,53.1690769 41.8,55.1938963 41.8,57.9759615 L41.7,59.5913462 L24.7,59.5913462 C24.7,61.655459 25.2249948,63.1866937 26.275,64.1850962 C27.3250053,65.1834986 29.1249873,65.6826923 31.675,65.6826923 C34.2250128,65.6826923 36.766654,65.6153853 39.3,65.4807692 Z M24.7,57.9086538 L38.8,57.9086538 C38.8,55.6874889 38.2583387,54.1057739 37.175,53.1634615 C36.0916613,52.2211491 34.3583452,51.75 31.975,51.75 C29.5916547,51.75 27.7833395,52.2379759 26.55,53.2139423 C25.3166605,54.1899087 24.7,55.7547969 24.7,57.9086538 Z M57.25,50 C58.7500075,50 60.533323,50.1121784 62.6,50.3365385 L63.75,50.4375 L63.6,52.1538462 C60.9666535,51.9294861 59.016673,51.8173077 57.75,51.8173077 C54.7833185,51.8173077 52.7500055,52.3052836 51.65,53.28125 C50.5499945,54.2572164 50,56.0520703 50,58.6658654 C50,61.2796605 50.499995,63.1025589 51.5,64.1346154 C52.500005,65.1666718 54.5833175,65.6826923 57.75,65.6826923 L63.7,65.3798077 L63.8,67.0961538 C60.8333185,67.365386 58.6333405,67.5 57.2,67.5 C53.2333135,67.5 50.5250073,66.8381476 49.075,65.5144231 C47.6249928,64.1906985 46.9,61.9134777 46.9,58.6826923 C46.9,55.4519069 47.6916588,53.1971218 49.275,51.9182692 C50.8583413,50.6394167 53.516648,50 57.25,50 Z M70.925,51.9855769 C72.5083413,50.6618524 75.2083143,50 79.025,50 C82.8416858,50 85.5416588,50.6618524 87.125,51.9855769 C88.7083412,53.3093015 89.5,55.5528688 89.5,58.7163462 C89.5,61.8798235 88.7750072,64.1346087 87.325,65.4807692 C85.8749927,66.8269298 83.116687,67.5 79.05,67.5 C74.983313,67.5 72.216674,66.8269298 70.75,65.4807692 C69.283326,64.1346087 68.55,61.8798235 68.55,58.7163462 C68.55,55.5528688 69.3416587,53.3093015 70.925,51.9855769 Z M73.025,64.1850962 C73.9416712,65.2059346 75.9416513,65.7163462 79.025,65.7163462 C82.1083488,65.7163462 84.116662,65.2003257 85.05,64.1682692 C85.983338,63.1362128 86.45,61.3020965 86.45,58.6658654 C86.45,56.0296343 85.9250053,54.2235626 84.875,53.2475962 C83.8249948,52.2716297 81.8833475,51.7836538 79.05,51.7836538 C76.2166525,51.7836538 74.2750053,52.2660208 73.225,53.2307692 C72.1749947,54.1955176 71.65,56.0071982 71.65,58.6658654 C71.65,61.3245325 72.1083287,63.1642577 73.025,64.1850962 Z M98.9,67.1634615 L95.95,67.1634615 L95.95,50.3365385 L98.9,50.3365385 L98.9,51.5817308 C101.700014,50.5272383 104.416654,50 107.05,50 C110.38335,50 112.608328,50.5945453 113.725,51.7836538 C114.841672,52.9727624 115.4,55.1490226 115.4,58.3125 L115.4,67.1634615 L112.4,67.1634615 L112.4,58.4134615 C112.4,55.8333204 112.033337,54.0889469 111.3,53.1802885 C110.566663,52.2716301 109.000012,51.8173077 106.6,51.8173077 C105.433328,51.8173077 104.20834,51.935095 102.925,52.1706731 C101.64166,52.4062512 100.650004,52.6474347 99.95,52.8942308 L98.9,53.2307692 L98.9,67.1634615 Z M123.925,51.9855769 C125.508341,50.6618524 128.208314,50 132.025,50 C135.841686,50 138.541659,50.6618524 140.125,51.9855769 C141.708341,53.3093015 142.5,55.5528688 142.5,58.7163462 C142.5,61.8798235 141.775007,64.1346087 140.325,65.4807692 C138.874993,66.8269298 136.116687,67.5 132.05,67.5 C127.983313,67.5 125.216674,66.8269298 123.75,65.4807692 C122.283326,64.1346087 121.55,61.8798235 121.55,58.7163462 C121.55,55.5528688 122.341659,53.3093015 123.925,51.9855769 Z M126.025,64.1850962 C126.941671,65.2059346 128.941651,65.7163462 132.025,65.7163462 C135.108349,65.7163462 137.116662,65.2003257 138.05,64.1682692 C138.983338,63.1362128 139.45,61.3020965 139.45,58.6658654 C139.45,56.0296343 138.925005,54.2235626 137.875,53.2475962 C136.824995,52.2716297 134.883348,51.7836538 132.05,51.7836538 C129.216653,51.7836538 127.275005,52.2660208 126.225,53.2307692 C125.174995,54.1955176 124.65,56.0071982 124.65,58.6658654 C124.65,61.3245325 125.108329,63.1642577 126.025,64.1850962 Z M158.25,50 C159.750008,50 161.533323,50.1121784 163.6,50.3365385 L164.75,50.4375 L164.6,52.1538462 C161.966653,51.9294861 160.016673,51.8173077 158.75,51.8173077 C155.783318,51.8173077 153.750006,52.3052836 152.65,53.28125 C151.549994,54.2572164 151,56.0520703 151,58.6658654 C151,61.2796605 151.499995,63.1025589 152.5,64.1346154 C153.500005,65.1666718 155.583318,65.6826923 158.75,65.6826923 L164.7,65.3798077 L164.8,67.0961538 C161.833318,67.365386 159.633341,67.5 158.2,67.5 C154.233313,67.5 151.525007,66.8381476 150.075,65.5144231 C148.624993,64.1906985 147.9,61.9134777 147.9,58.6826923 C147.9,55.4519069 148.691659,53.1971218 150.275,51.9182692 C151.858341,50.6394167 154.516648,50 158.25,50 Z M171.925,51.9855769 C173.508341,50.6618524 176.208314,50 180.025,50 C183.841686,50 186.541659,50.6618524 188.125,51.9855769 C189.708341,53.3093015 190.5,55.5528688 190.5,58.7163462 C190.5,61.8798235 189.775007,64.1346087 188.325,65.4807692 C186.874993,66.8269298 184.116687,67.5 180.05,67.5 C175.983313,67.5 173.216674,66.8269298 171.75,65.4807692 C170.283326,64.1346087 169.55,61.8798235 169.55,58.7163462 C169.55,55.5528688 170.341659,53.3093015 171.925,51.9855769 Z M174.025,64.1850962 C174.941671,65.2059346 176.941651,65.7163462 180.025,65.7163462 C183.108349,65.7163462 185.116662,65.2003257 186.05,64.1682692 C186.983338,63.1362128 187.45,61.3020965 187.45,58.6658654 C187.45,56.0296343 186.925005,54.2235626 185.875,53.2475962 C184.824995,52.2716297 182.883348,51.7836538 180.05,51.7836538 C177.216653,51.7836538 175.275005,52.2660208 174.225,53.2307692 C173.174995,54.1955176 172.65,56.0071982 172.65,58.6658654 C172.65,61.3245325 173.108329,63.1642577 174.025,64.1850962 Z M199.9,67.1634615 L196.95,67.1634615 L196.95,50.3365385 L199.9,50.3365385 L199.9,51.5817308 C202.433346,50.5272383 205.133319,50 208,50 C210.866681,50 212.899994,50.5945453 214.1,51.7836538 C215.300006,51.2900616 216.758325,50.8693928 218.475,50.5216346 C220.191675,50.1738765 221.733326,50 223.1,50 C226.43335,50 228.658328,50.5889364 229.775,51.7668269 C230.891672,52.9447174 231.45,55.1265866 231.45,58.3125 L231.45,67.1634615 L228.5,67.1634615 L228.5,58.4134615 C228.5,55.8333204 228.14167,54.0889469 227.425,53.1802885 C226.70833,52.2716301 225.150012,51.8173077 222.75,51.8173077 C221.549994,51.8173077 220.316673,51.935095 219.05,52.1706731 C217.783327,52.4062512 216.81667,52.6474347 216.15,52.8942308 L215.15,53.2307692 C215.650002,54.0833376 215.9,55.8108844 215.9,58.4134615 L215.9,67.1634615 L212.9,67.1634615 L212.9,58.4807692 C212.9,55.8557561 212.54167,54.0889469 211.825,53.1802885 C211.10833,52.2716301 209.566678,51.8173077 207.2,51.8173077 C206.033327,51.8173077 204.841673,51.935095 203.625,52.1706731 C202.408327,52.4062512 201.483336,52.6474347 200.85,52.8942308 L199.9,53.2307692 L199.9,67.1634615 Z"/>
</svg>
