<svg xmlns="http://www.w3.org/2000/svg" width="255" height="110" viewBox="0 0 255 110">
  <g fill="none" fill-rule="evenodd">
    <path fill="#FE7A22" d="M155.784875,73.0926182 C155.802566,73.76894 155.777799,74.4470094 155.791952,75.1233312 C155.777799,75.6930493 156.211229,76.229563 156.76142,76.3763615 C157.046246,75.2980914 156.44652,74.207588 156.82157,73.1398035 C157.200158,73.260388 157.555748,73.4351481 157.904261,73.6256367 C158.148397,72.8269828 157.677816,72.0859998 157.099319,71.5722049 C156.602201,72.0265813 156.223613,72.5858138 155.784875,73.0926182 M186.678721,71.1405473 C187.046694,71.418416 187.395208,71.7557031 187.856944,71.87454 C188.127616,71.9811437 188.518588,72.0056101 188.61235,72.3376544 C188.729111,72.7675644 188.806952,73.2079599 188.976786,73.6221415 C189.634892,73.2481548 189.54113,72.374354 189.130698,71.8500736 C188.865332,71.7522079 188.477899,71.87454 188.332832,71.5809429 C188.097542,71.255889 187.855174,70.8189887 187.398746,70.8050079 C187.147533,70.8976307 186.914012,71.023458 186.678721,71.1405473 M162.564078,71.6875466 C161.916586,73.0838802 161.875897,74.654974 161.840515,76.1649017 C162.180183,75.3977047 162.656071,74.7074021 163.13196,74.0205947 C163.436246,73.5959275 163.432708,72.9685385 163.899751,72.6662035 C164.3951,72.580571 164.778995,72.9475673 165.146968,73.2114551 C165.051437,74.0240899 164.784302,74.8052677 164.653389,75.6126596 C165.371645,74.8227438 166.303962,74.0939939 166.480872,72.9790241 C166.457874,72.1559038 165.711312,71.6123998 165.039053,71.2681223 C165.224809,70.988506 165.407027,70.7071422 165.585706,70.4222831 C164.441096,70.1514049 163.1125,70.6232573 162.564078,71.6875466 M159.696362,70.0378108 C159.170939,70.8189887 158.449145,71.5512337 158.337691,72.5246478 C158.14309,73.7986493 158.029867,75.1355644 158.420839,76.3868471 C158.889651,76.2138346 159.300083,75.9289755 159.664518,75.593436 C159.510606,75.0272131 159.298314,74.4609902 159.32485,73.8650581 C159.321312,73.3093208 159.600831,72.813002 159.834352,72.3271688 C160.518995,72.4110537 160.966578,72.9860146 161.17887,73.5889371 C161.354012,73.0087334 161.695449,72.3586256 161.442467,71.7574507 C161.293862,71.3467643 160.796744,71.3380263 160.520764,71.0688957 C160.480075,70.694909 160.658754,70.3558743 160.816204,70.0308204 C160.441154,70.0378108 160.067874,70.0395584 159.696362,70.0378108 M214.365183,69.6079008 C214.733156,70.4030595 215.417799,70.9954964 215.787542,71.7871599 C215.900764,71.5494861 216.021063,71.3153075 216.146669,71.0811289 C215.727392,70.721123 215.838846,70.1793665 215.828231,69.6970285 C215.702625,69.2443997 215.263887,68.9682787 214.96137,68.637982 C214.752616,68.9560454 214.554477,69.2793517 214.365183,69.6079008 M187.218297,68.6572056 C186.572575,68.7323524 186.342591,69.4016838 186.020615,69.8595554 C186.825556,69.7616897 187.664111,69.8490698 188.41598,69.4873163 C188.851179,69.9661591 189.300532,70.4327687 189.656121,70.9780204 C189.905565,71.4690964 190.576055,71.1003525 190.887417,71.5075437 C191.372151,72.0737666 191.269543,72.8846537 191.312002,73.5767039 C191.559676,73.4508766 191.80912,73.3250492 192.060332,73.2009695 C192.058563,72.804264 192.171786,72.3795968 191.970108,72.0126005 C191.777276,71.3956972 191.105017,71.1912278 190.636204,70.8294743 C190.710507,70.7158802 190.857342,70.4904396 190.931645,70.3768455 C190.698123,70.050044 190.438065,69.7389709 190.186852,69.4278979 C190.724659,69.5327539 191.423455,69.3946934 191.803812,69.8840218 C192.055025,70.1216957 192.159402,70.4607304 192.295623,70.7700558 C193.272168,70.9640396 193.572915,72.0108529 193.808206,72.8322256 C193.970963,72.2572647 194.165565,71.6910418 194.39201,71.1370521 C194.123106,70.988506 193.843588,70.8626787 193.560532,70.7508322 C193.480922,70.2772322 193.364161,69.7512041 192.907733,69.4908115 C192.237243,69.1185724 191.497757,68.8826462 190.78304,68.6082727 C189.633123,68.1486535 188.392982,68.5121547 187.218297,68.6572056 M207.594826,69.2024573 C208.008796,69.0137163 208.362616,68.6607008 208.824352,68.5873015 C209.482458,68.5471067 209.551453,69.3859554 209.733671,69.8473222 C210.411238,69.8246034 211.065806,70.0343156 211.638995,70.3838359 C211.750449,70.2160661 211.861902,70.050044 211.976894,69.8840218 C211.580615,69.2566329 210.812824,68.9368218 210.082184,68.9717739 C210.121105,68.6834196 210.161794,68.3950654 210.204252,68.1049635 C209.797359,68.0647687 209.471844,67.8235997 209.149867,67.6051495 C208.654518,68.1608867 208.111404,68.6694388 207.594826,69.2024573 M165.500789,67.4810698 C165.276113,67.8340853 165.115125,68.2238004 165.083281,68.6449724 C165.369875,68.6327392 165.690083,68.4876882 165.967832,68.6344868 C167.006296,69.1779908 168.198671,69.5135303 169.026611,70.3820883 C169.431736,71.1562758 169.667027,72.0091053 170.024385,72.8077592 C170.378206,72.0702714 170.496736,71.2663747 170.326902,70.4642256 C169.828015,70.3016986 169.323821,70.1583953 168.819626,70.0255776 C168.586105,69.6148912 168.61441,69.1308056 168.444576,68.7061384 C167.905,68.2762284 167.246894,68.0210786 166.647168,67.6820439 C166.302193,67.4653413 165.888223,67.4950506 165.500789,67.4810698 M215.959145,67.9354462 C216.215664,68.3338993 216.477492,68.7271096 216.748164,69.1185724 C217.32843,68.2377812 217.23113,67.0948498 216.650864,66.2420203 C216.327118,66.7663007 216.180282,67.3674757 215.959145,67.9354462 M185.619028,66.4290136 C185.412043,66.9130993 185.210365,67.3989325 185.00515,67.8830181 C185.71456,67.295824 186.630955,67.0913546 187.513738,66.9096041 C187.575656,66.9830033 187.699493,67.1315494 187.761412,67.2049487 C188.916636,67.2101915 190.07363,66.9113517 191.223547,67.1665015 C191.59152,67.778162 192.30093,67.9634078 192.91304,68.2447716 C192.87412,67.8777753 192.835199,67.5125266 192.796279,67.1472779 C191.426993,65.883762 189.466827,66.2193015 187.775565,65.9886181 C187.03608,66.0253177 186.340822,66.2944483 185.619028,66.4290136 M194.315939,65.6373501 C194.675066,67.054655 195.47647,68.4457458 195.166877,69.9521783 C195.435781,70.2422802 195.672841,70.558596 195.904593,70.8801547 C195.904593,69.6638241 195.911669,68.4335126 195.724145,67.2311627 C195.395091,66.598531 194.791827,66.1546402 194.315939,65.6373501 M209.721287,65.5429797 C209.569145,65.9903657 209.362159,66.4499849 209.521379,66.9270801 C210.298015,66.8327096 211.283405,66.2909531 211.914975,67.0004793 C212.16265,67.5754402 212.316561,68.2989473 213.022434,68.484193 C213.144502,68.0665163 213.250648,67.6435967 213.360332,67.2224247 C213.165731,66.8431952 212.999435,66.4517325 212.776528,66.0899789 C211.861902,65.5534653 210.773904,65.3210343 209.721287,65.5429797 M165.884684,66.3363908 C166.450797,66.2577487 167.018679,65.9501708 167.598945,66.0777457 C168.350814,66.5932882 169.005382,67.2835908 169.882857,67.6086447 C170.42951,67.8061236 170.988547,68.0053502 171.452051,68.3705989 C171.384826,68.4772026 171.252143,68.69041 171.184917,68.7952661 C171.473281,69.2863421 171.466204,69.8665458 171.590042,70.4065547 C171.906711,70.1059672 172.218073,69.7983894 172.527666,69.4908115 C172.430365,69.085368 172.409136,68.6519628 172.232226,68.2709856 C172.011088,68.1171967 171.735108,68.0770019 171.51397,67.9302033 C171.338829,67.7379672 171.329983,67.4670889 171.260988,67.2346579 C170.434817,66.7558151 169.750174,66.0899789 168.964693,65.5552129 C168.29951,65.1654977 167.561794,64.7181117 166.751545,64.8998623 C166.201354,65.1602549 166.104053,65.8383243 165.884684,66.3363908 M176.75936,64.0085855 C177.01588,64.3895627 177.298937,64.7530638 177.578455,65.1200601 C178.142799,65.247635 178.726603,65.1724881 179.216645,64.8579199 C179.071578,64.5730608 178.931819,64.2899494 178.79206,64.0050903 C178.112724,64.0068379 177.435158,64.0033427 176.75936,64.0085855 M188.187766,63.8390682 C187.818023,64.1012084 187.269601,63.9946047 186.97593,64.3773294 C186.710565,64.60277 186.645108,64.9522904 186.563729,65.2668586 C187.152841,65.0973413 187.715415,64.8229678 188.154153,64.3895627 C188.775108,64.3546106 189.300532,64.7198593 189.886105,64.8579199 C190.149701,64.8299582 190.374377,64.6674313 190.611437,64.5573324 C190.961719,64.817725 191.25539,65.1462741 191.621595,65.3856955 C191.945341,65.5045324 192.297392,65.4870564 192.638829,65.5185132 C192.173555,64.7285974 191.69059,63.6328512 190.614975,63.6013944 C190.142625,63.6066372 189.741038,63.3829442 189.353605,63.1522608 C188.886561,63.2326505 188.566354,63.5978992 188.187766,63.8390682 M181.228115,63.1714844 C181.281188,63.4668291 181.337799,63.7604261 181.401487,64.0557708 C181.916296,64.3109206 182.418721,64.6184985 183.000756,64.7023833 C182.788463,64.1833457 182.551404,63.6747936 182.300191,63.173232 C181.942832,63.173232 181.583704,63.173232 181.228115,63.1714844 M168.037683,62.5528335 C167.655556,62.9775006 167.186744,63.3689634 167.008065,63.9247007 C167.606022,63.6625604 168.274743,63.4668291 168.932849,63.6171228 C169.339743,63.7289693 169.760789,63.7813973 170.178297,63.8513014 C170.542733,64.2445117 170.76387,64.7618018 171.19907,65.0955937 C171.524585,65.3070535 171.942093,65.3542387 172.235764,65.6216217 C172.685116,66.0025989 172.950482,66.5391125 173.159236,67.0756262 C173.182234,66.4290136 173.238846,65.7824011 173.26892,65.1357885 C172.897409,65.0082136 172.529435,64.8788911 172.161462,64.7513162 C172.159693,64.6289841 172.157924,64.3825723 172.157924,64.2602401 C171.67142,63.8041161 171.050465,63.5367331 170.551578,63.1015803 C169.909394,62.4462298 168.876238,62.5633191 168.037683,62.5528335 M209.979576,64.4472335 C210.333397,64.1641221 210.673065,63.8635346 211.012733,63.5594519 C211.478007,63.5839184 211.998123,63.5559567 212.385556,63.8652822 C213.034817,64.2689782 213.004743,65.221421 213.710615,65.5622033 C213.730075,64.8736483 213.717691,64.1850933 213.726537,63.4982859 C213.142733,63.3497398 212.569543,63.1400276 212.056503,62.8272069 C211.677915,62.5703095 211.262176,62.2592364 210.772135,62.3640925 C210.036188,62.7852645 210.082184,63.7254741 209.979576,64.4472335 M200.716553,62.528367 C200.415806,62.9722578 200.964228,63.3182829 201.031453,63.7429501 C201.063297,64.2759686 200.95892,64.8054918 200.891694,65.3332675 C201.21544,65.4521044 201.687791,65.3612291 201.900083,65.6827878 C202.038073,66.203573 201.935465,66.7470771 201.92662,67.278348 C202.294593,66.7296011 202.766944,66.2018254 202.860706,65.5255037 C202.669643,65.2581206 202.273364,65.2808394 201.993846,65.1532645 C202.071686,64.7548114 202.250365,64.352863 202.154834,63.9439243 C201.940772,63.129542 202.046919,62.2837028 201.903621,61.4623301 C201.526802,61.8345692 200.976611,62.0565146 200.716553,62.528367 M197.523322,62.5213766 C197.452558,63.120804 198.172583,63.3217781 198.480407,63.7289693 C198.422027,63.853049 198.305266,64.1012084 198.248654,64.2252881 C198.733389,64.7880158 198.929759,65.50628 198.977525,66.2332823 C199.039444,65.4258904 199.644477,64.7408306 199.564867,63.9229531 C199.306578,63.6992601 198.993447,63.5489663 198.708621,63.3672158 C198.954527,62.6454563 198.936836,61.8293264 198.506944,61.1774711 C198.094743,61.5514578 197.66485,61.9691346 197.523322,62.5213766 M209.659369,60.3893028 C209.832741,60.7475611 210.013189,61.1058194 210.211329,61.4535921 C211.081728,61.2246563 212.081271,60.7528039 212.939286,61.2491227 C213.054277,61.4693205 213.079045,61.7227227 213.14804,61.9603965 C213.558472,62.1875847 214.007824,62.3326357 214.46956,62.4287538 C214.50848,61.5357294 213.795532,60.9520305 213.480631,60.186581 C212.252874,59.7619138 210.872973,59.9995876 209.659369,60.3893028 M204.80495,60.1289101 C205.103929,60.9695065 205.524975,61.76117 205.896487,62.5703095 C206.16539,61.7664128 206.207849,60.8104747 205.570972,60.1568718 C205.314452,60.1184245 205.057932,60.1306577 204.80495,60.1289101 M177.417467,59.971626 C176.978729,60.883874 176.333007,61.6877707 175.584676,62.3710829 C176.377234,62.0040866 177.43162,62.002339 177.955274,61.2211611 C178.374551,60.7143567 178.774369,60.1760954 178.965432,59.5382208 C178.411703,59.5259876 177.886279,59.6920098 177.417467,59.971626 M172.745266,60.3997884 C173.4476,60.5011493 174.183547,60.4889161 174.862882,60.2617279 C175.63598,59.919198 176.009261,59.1170489 176.368389,58.4110178 C176.023414,58.4110178 175.681977,58.4127655 175.342309,58.4110178 C174.604593,59.2288954 173.753654,59.9331788 172.745266,60.3997884 M180.564701,58.3218902 C181.270573,59.2288954 181.930449,60.1848334 182.820307,60.9310592 C183.391728,60.8541648 183.943688,60.6741618 184.456728,60.4155168 C183.94015,59.8213323 183.391728,59.2428762 182.783156,58.7395669 C182.052517,58.5630592 181.302417,58.4651935 180.564701,58.3218902 M199.055365,59.3564703 C199.129668,59.9838592 199.552483,60.4836733 199.941686,60.9537781 C200.214128,60.7143567 200.491877,60.4504688 200.580332,60.0852201 C200.509568,59.7182238 200.217666,59.4613264 199.985914,59.1887005 C199.966453,58.9248127 199.950532,58.6609249 199.936379,58.3987846 C199.793081,58.2659669 199.649784,58.1331492 199.510025,58.0020791 C199.294194,58.4267463 199.057135,58.8671418 199.055365,59.3564703 M184.973306,58.2449957 C185.769402,58.844423 186.62211,59.4316171 187.623422,59.6290961 C188.19838,59.7549234 188.776877,59.5819109 189.341221,59.4770548 C188.838796,59.1921957 188.308065,58.9562695 187.819792,58.6521869 C187.653497,58.4075226 187.529659,58.138392 187.396977,57.8779994 C186.574344,57.8779994 185.764095,58.0352835 184.973306,58.2449957 M172.08539,57.9723699 C171.453821,58.8968511 170.767409,59.8353131 169.741329,60.3683316 C170.348131,60.3875552 170.977932,60.5011493 171.568812,60.3036703 C171.77049,60.2337662 172.021703,60.1411434 172.044701,59.8912363 C172.228688,59.2690902 172.354294,58.6329632 172.548895,58.0160599 C172.433904,58.0038267 172.202151,57.9828555 172.08539,57.9723699 M209.004801,57.7207152 C209.024261,58.1855773 208.902193,58.6906341 209.066719,59.1327773 C209.659369,59.3512275 210.324551,59.2341382 210.867666,58.9370459 C210.952583,58.6556821 211.032193,58.3725706 211.11711,58.0912068 C211.458547,58.14713 211.799983,58.2135389 212.143189,58.2799477 C212.479319,57.862271 213.406329,57.5442075 213.500091,58.3218902 C213.753073,59.291809 214.943679,59.2900614 215.755698,59.3966651 C215.623015,58.8811227 215.437259,58.3813086 215.272733,57.8779994 C214.80392,57.5214887 214.306802,57.1282783 213.678771,57.1789588 C212.880905,57.9286798 211.851287,56.8329337 210.975581,57.3205145 C210.359934,57.6141116 209.685905,57.7486769 209.004801,57.7207152 M199.977068,56.4904038 C200.513106,56.8329337 201.158829,57.1387639 201.387043,57.7766385 C201.801013,58.7622858 202.460889,59.6325913 202.77402,60.660181 C203.103073,61.7262179 203.591346,62.7660408 203.623189,63.8984866 C203.612575,64.1134416 203.846096,64.2060645 203.973472,64.3406298 C203.97701,63.4283818 204.107924,62.5231242 204.127384,61.6126238 C204.033621,61.1285382 203.511736,60.9328068 203.143762,60.6828998 C203.38436,60.3368747 203.651495,60.0100732 203.936321,59.6972526 C203.46397,59.2236526 203.251678,58.585778 202.940316,58.0143123 C202.365357,57.9444082 201.954925,57.5197411 201.813397,56.9814798 C201.293281,56.563803 200.629867,56.4379757 199.977068,56.4904038 M169.500731,56.4834134 C169.399892,57.2296392 169.138065,57.9444082 169.035457,58.6906341 C169.859859,58.1366444 170.553347,57.2593484 170.574576,56.2370016 C170.199527,56.2317587 169.83863,56.3348672 169.500731,56.4834134 M197.574626,56.0237942 C197.551628,56.4397233 197.463173,56.8643905 197.546321,57.2803197 C197.675465,57.5809071 197.891296,57.8325617 198.082359,58.0981972 C198.285806,57.8395522 198.586553,57.6158592 198.634319,57.2680865 C198.427334,56.761282 198.084128,56.2667108 197.574626,56.0237942 M188.175382,56.4414709 C189.091777,57.388671 190.361993,58.0370311 191.713588,57.9985839 C190.944028,57.4218754 190.323073,56.6878827 189.739269,55.9346665 C189.199693,56.046513 188.667193,56.1950591 188.175382,56.4414709 M178.27902,55.5099993 C178.365706,55.9346665 178.425855,56.3698193 178.563846,56.7840008 C179.499701,56.4170045 179.616462,55.2216451 179.644767,54.3548347 C179.221952,54.7760067 178.770831,55.169217 178.27902,55.5099993 M201.779784,54.3268731 C202.738638,55.4313573 203.536503,56.7490488 204.831487,57.5057603 C204.838563,57.1579876 204.84387,56.8102149 204.852716,56.4624422 C204.546661,56.1443787 204.247683,55.805344 203.846096,55.6043698 C203.083613,55.2810635 202.650183,54.4422148 201.779784,54.3268731 M191.621595,54.9962045 C192.615831,55.6043698 193.942658,56.2265159 195.076653,55.6270886 C194.223945,55.3859196 193.521611,54.8441631 192.824585,54.3286207 C192.433613,54.5697897 192.049718,54.8231919 191.621595,54.9962045 M181.090125,55.5956318 C181.574859,55.9032097 182.103821,56.1303979 182.645166,56.3278768 C182.317882,55.5921366 182.18343,54.7987255 182.029518,54.0158 C181.516478,54.3775535 180.937982,54.9053292 181.090125,55.5956318 M175.108787,54.0891993 C175.294543,55.0503801 176.002184,55.7843728 176.699211,56.4292377 C176.594834,55.7284495 176.430307,55.0363993 176.359543,54.3303683 C175.957957,54.178327 175.53691,54.0839565 175.108787,54.0891993 M209.618679,54.4439624 C209.24363,54.739307 208.9075,55.0940702 208.447533,55.2653351 C208.516528,55.6358266 208.596138,56.0045706 208.681055,56.3733145 C209.512533,55.8105868 210.432467,55.2985395 211.453239,55.1901882 C212.818987,55.1727122 214.13343,55.6620407 215.343497,56.2492348 C215.106437,55.6637883 214.897683,55.0259137 214.412949,54.5890133 C213.905216,54.1171609 213.328488,54.7288214 212.751761,54.6851314 C212.590772,54.4177484 212.481088,53.8462827 212.049427,54.0053144 C211.278098,54.3303683 210.423621,54.2709498 209.618679,54.4439624 M167.613098,53.9756052 C167.349502,54.2290074 167.114211,54.5086236 166.956761,54.8371727 C167.061138,55.1552362 167.151362,55.4785425 167.222126,55.8070916 C167.657326,55.1762074 168.269435,54.7026074 168.879776,54.2464834 C168.455191,54.1556081 168.032375,54.0717233 167.613098,53.9756052 M194.439776,53.4233631 C195.117342,53.8777395 196.02843,54.0105572 196.744917,53.559676 C196.306179,53.3709351 195.879826,53.1594753 195.480008,52.9025778 C195.129726,53.0720952 194.781213,53.2451077 194.439776,53.4233631 M184.348812,55.6113602 C184.70794,56.2632156 185.55711,56.0622414 186.130299,55.8420436 C185.663256,55.4366001 184.952076,55.1499934 184.835316,54.4771668 C184.686711,53.7606502 184.536337,53.0441336 184.339967,52.3381026 C183.807467,53.3499638 183.64294,54.6379462 184.348812,55.6113602 M209.455922,52.1493616 C208.746512,52.4744155 208.160939,53.1944273 208.463455,54.0018192 C208.826121,53.6907461 209.171096,53.3115166 209.661138,53.2049129 C210.462542,52.9392775 211.297558,53.2101557 212.113115,53.2293793 C211.821213,52.1633424 210.414776,51.4695446 209.455922,52.1493616 M172.59843,51.6408095 C172.782417,52.5093675 173.139776,53.327245 173.551977,54.1119181 C173.700581,53.5579284 173.838571,53.0004435 173.974792,52.4429586 C173.527209,52.1580996 173.067243,51.8872214 172.59843,51.6408095 M185.472193,51.2930368 C185.601337,51.9309114 185.744635,52.5670384 185.900316,53.2014177 C186.538962,53.5264716 187.097998,54.0158 187.8251,54.1556081 C187.526121,53.7798738 187.197068,53.4321011 186.882168,53.0720952 C186.910473,52.621214 186.887475,52.1633424 186.613264,51.7841129 C186.232907,51.6180907 185.850781,51.450321 185.472193,51.2930368 M189.033397,52.0672243 C189.587126,52.6911181 190.461063,52.4499491 191.182857,52.3643166 C190.731736,51.9833394 190.284153,51.5988671 189.859568,51.191676 C189.592434,51.4905158 189.314684,51.7823653 189.033397,52.0672243 M169.474194,51.1322575 C169.511346,51.4066309 169.550266,51.6810044 169.617492,51.950135 C169.854551,53.2346221 171.013314,54.0996849 172.138463,54.6274606 C172.025241,53.4198679 170.974394,52.6753897 170.433048,51.6722664 C170.229601,51.3402221 169.813862,51.2580848 169.474194,51.1322575 M191.266005,49.625825 C191.347384,49.84078 191.43407,50.055735 191.522525,50.2724376 C192.256703,50.2304951 192.969651,50.3510796 193.680831,50.5153542 C193.319934,50.2514663 192.994419,49.9508789 192.723746,49.599611 C192.338081,49.1452346 191.734817,49.5559209 191.266005,49.625825 M208.061869,51.0885675 C208.466993,50.8491461 208.889809,50.6254531 209.356852,50.5223446 C210.344012,50.1990383 211.272791,50.8473985 212.180341,51.1375003 C212.017583,50.7075903 211.930897,50.1885527 211.548771,49.8879652 C211.180797,49.8023327 210.80044,49.8058279 210.434236,49.7341763 C210.145872,49.6502914 210.085723,49.3234899 209.949502,49.1032921 C208.834967,48.8306663 207.814194,50.0487446 208.061869,51.0885675 M174.409992,48.1019165 C174.519676,48.8463947 174.555058,49.6834958 175.10348,50.2671948 C175.372384,49.9945689 175.651902,49.7271859 175.980955,49.5244641 C176.003953,50.064473 175.998646,50.6044818 175.984493,51.1444907 C176.34539,51.3559505 176.736362,51.5062442 177.146794,51.5971195 C177.316628,51.0955579 177.681063,50.6569099 177.698754,50.1099106 C177.86505,50.0155401 178.036653,49.9281601 178.213563,49.8477704 C178.275482,50.4174885 178.35686,50.9837114 178.399319,51.5551771 C178.846902,51.7246944 179.321022,51.6180907 179.750914,51.4450782 C179.862367,50.805456 180.030432,50.1780671 180.189651,49.5489305 C180.506321,49.9124316 180.775224,50.3213704 180.856603,50.8072036 C181.608472,50.1605911 181.866761,49.1836818 182.075515,48.2609482 C181.100739,47.9358943 180.148962,47.5129748 179.119344,47.3923902 C177.527151,47.1250072 175.839427,47.3434574 174.409992,48.1019165 M190.963488,44.4494293 C190.944028,44.9702145 190.92103,45.5049806 191.046636,46.0170278 C191.292542,46.7125733 191.952417,47.1896685 192.693671,47.2490869 C192.504377,46.6147076 192.231935,46.0082898 191.973646,45.4001245 C191.853347,45.4088625 191.614518,45.4263385 191.494219,45.4350765 C191.312002,45.1082751 191.143937,44.7744832 190.963488,44.4494293 M188.999784,39.2380815 C188.805183,40.2219812 188.522126,41.1849096 188.348754,42.1723045 C188.688422,42.0884196 189.035166,42.0045347 189.38191,41.9223975 C189.502209,41.4453023 189.650814,40.9699546 189.663198,40.4736358 C189.544668,40.0175118 189.236844,39.6382823 188.999784,39.2380815 M167.066445,38.7435103 C166.797542,39.3114808 166.493256,39.8846941 166.410108,40.5103354 C166.539252,41.2355901 166.882458,41.9066691 166.993912,42.6389141 C167.114211,41.569382 167.51049,40.5382971 167.485723,39.4547841 C167.407882,38.9934173 167.836005,38.7015679 168.088987,38.3782616 C167.749319,38.5058365 167.407882,38.6281686 167.066445,38.7435103 M217.301894,35.880939 C217.823779,36.1972549 218.225365,36.6551265 218.603953,37.1234837 C219.08515,37.2108638 219.539809,37.4258188 219.785714,37.8679619 C219.817558,36.9260047 219.072766,36.2793922 218.667641,35.5034571 C218.202367,35.5978276 217.749477,35.7341405 217.301894,35.880939 M166.954992,36.5939604 C167.269892,36.4925995 167.588331,36.3877435 167.905,36.2828874 C167.901462,35.7551117 167.903231,35.227336 167.901462,34.6978128 C167.473339,35.2657833 167.03637,35.8687058 166.954992,36.5939604 M212.16088,34.73626 C212.631462,35.1119943 213.215266,35.0665567 213.751304,34.8673301 C214.313879,35.1539368 214.96314,35.0211191 215.571711,35.0281095 C215.097591,34.6226659 214.573937,34.2486792 213.981287,34.0424622 C213.383331,34.2993596 212.815449,34.6383943 212.16088,34.73626 M169.622799,30.4091986 C169.24598,31.0453256 168.846163,31.6692193 168.49765,32.3210747 C168.692251,33.0480769 168.97,33.7576032 169.341512,34.4147013 C169.77848,35.0910231 170.500274,35.5086999 171.183148,35.9089006 C170.613497,37.0710556 170.916013,38.39399 171.17961,39.5928446 C170.985008,39.6924579 170.790407,39.7920712 170.597575,39.8916845 C170.852326,41.0660727 171.616578,42.0499724 172.472824,42.8695975 C172.793032,43.1719326 172.709884,43.643785 172.743497,44.0369953 C170.877093,43.8028167 169.044302,44.4354485 167.409651,45.270802 C167.443264,45.5818751 167.478646,45.8929481 167.514028,46.2040212 C168.93108,45.1065275 170.82402,44.582247 172.603738,44.8076876 C172.596661,45.1694411 172.593123,45.5311946 172.587816,45.8929481 C171.149535,46.6321836 169.573264,47.1669496 168.343738,48.2469674 C168.347276,48.5370692 168.349045,48.8271711 168.35789,49.1172729 C169.829784,48.0966737 171.301678,47.0358795 172.975249,46.3543149 C173.284842,46.7562633 173.606819,47.1512212 173.994252,47.4850131 C175.287467,46.8558766 176.637292,46.235478 178.109186,46.200526 C178.133953,45.7653732 178.169336,45.3302204 178.211794,44.8950677 C177.551919,44.5857422 177.031802,43.954858 177.201636,43.1911562 C176.913272,43.3257215 176.619601,43.4410632 176.315316,43.5284433 C176.012799,43.2330986 175.904884,42.8451311 175.885424,42.4379399 C176.815972,41.7546277 178.026038,41.9014263 179.114037,41.9154071 C179.772143,41.9730779 180.557625,41.9451163 181.037051,42.4781348 C181.164427,42.8136743 181.095432,43.187661 180.909676,43.4882484 C180.64608,43.4830056 180.386022,43.4777628 180.127733,43.4760152 C179.851752,44.108647 179.374095,44.6399178 178.715988,44.8968153 C178.875208,45.4385717 178.89113,46.3228581 179.607616,46.4119858 C180.700922,46.6147076 181.668621,47.2001541 182.549635,47.8485142 C182.841537,47.4622943 183.161744,47.0987932 183.503181,46.7562633 C185.415581,47.2910294 186.928164,48.6349349 188.295681,49.9963165 C188.295681,49.5943682 188.292143,49.1924198 188.286836,48.7904715 C187.333289,47.9953128 186.284211,47.3154958 185.160831,46.7754869 C184.663713,46.5098515 184.118829,46.3211105 183.658862,45.9960566 C183.688937,45.6552743 183.734934,45.314492 183.770316,44.9737097 C185.778248,45.0803134 187.68711,45.8003253 189.429676,46.7545157 C189.364219,46.4521806 189.503978,46.0729511 189.296993,45.8160537 C188.076312,45.2096359 186.788405,44.7028315 185.436811,44.4756433 C184.784012,44.3620492 184.115291,44.3707872 183.46603,44.2414647 C183.84108,43.9234012 184.329352,43.7556315 184.674327,43.3991208 C185.006919,43.0723193 185.24044,42.6668757 185.443887,42.2544418 C185.679178,41.7388993 186.132068,41.3579222 186.360282,40.8371369 C186.604419,40.3128565 186.549576,39.7169244 186.671645,39.1629347 C186.431047,39.3743945 186.133837,39.5054646 185.838397,39.6120683 C186.294826,38.5512741 186.526578,37.3524195 186.190449,36.2234689 C187.002467,35.9036578 187.621653,35.2552977 188.152384,34.5912091 C188.362907,33.9830438 188.320449,33.3119648 188.51505,32.6933138 C188.094003,31.9663116 187.849867,31.1327057 187.290831,30.4895883 C186.735332,30.0299691 185.948081,30.113854 185.311204,29.8254997 C184.304585,29.4672414 183.490797,30.389975 182.701777,30.8530894 C182.408106,31.2829994 182.312575,31.8265035 182.093206,32.2983559 C180.877832,32.1305861 179.627076,32.3630171 178.565615,32.9729301 C177.663372,32.376998 176.547068,32.3752504 175.531603,32.1568002 C175.186628,31.5486348 175.032716,30.6101728 174.15701,30.5629876 C174.066786,30.3427898 173.983638,30.1208444 173.905797,29.898899 C173.238846,29.6524872 172.548895,29.4392798 171.835947,29.399085 C171.025698,29.5616119 170.397666,30.1557964 169.622799,30.4091986 M175.168937,26 L175.47853,26 C176.460382,26.232431 177.353779,26.6990406 178.284327,27.0677845 C178.820365,26.9332192 179.321022,26.6868074 179.848214,26.5190377 C179.650075,27.3526436 179.358173,28.1652783 179.237874,29.0163602 C180.039277,28.254406 180.437326,27.2407971 180.815914,26.2341786 C181.656238,26.1398081 182.503638,26.1450509 183.3475,26.2219454 C182.822076,26.4945712 182.570864,26.9943853 182.5974,27.574589 C183.453646,27.4697329 184.201977,26.7567115 185.095374,27.0118613 C185.436811,27.0765225 185.686254,27.3351676 185.960465,27.5291513 C185.525266,27.7563395 185.090066,27.9800325 184.665482,28.2212015 C185.380199,28.2299395 186.098455,28.2369299 186.814942,28.2037255 C187.039618,28.1478023 187.319136,27.8349816 187.534967,28.0796458 C189.266919,29.2697624 189.829493,31.3826127 190.622051,33.1966231 C190.319535,33.0340961 190.025864,32.8698216 189.726885,32.7090422 C189.781728,33.0603102 189.714502,33.4849773 190.002865,33.754108 C190.413297,33.9847914 190.908646,34.0844046 191.232392,34.4496534 C192.033796,35.2850069 193.155407,35.8582202 193.652525,36.9434807 C193.967425,37.6390261 194.275249,38.3398144 194.552998,39.0510882 C194.972276,40.1311059 195.104958,41.2967561 195.538389,42.3732787 C195.007658,42.1478381 194.464543,41.9590971 193.924967,41.7651133 C194.177949,42.2439562 194.379626,42.783965 194.813056,43.1404757 C195.14211,43.3886352 195.579078,43.3903828 195.971819,43.4602868 C196.66,44.2921451 196.684767,45.4106101 196.813912,46.4259666 C196.507857,46.2075164 196.200033,45.9925614 195.886902,45.7898396 C195.472932,46.6618928 196.476013,47.1686973 197.091661,47.5391888 C197.091661,48.222501 197.091661,48.9058132 197.088123,49.5891254 C198.581246,50.7110855 200.3875,51.4747874 202.276902,51.5516819 C203.842558,51.5621675 205.415291,51.1724523 206.761578,50.3703032 C206.704967,49.1714486 207.393148,48.0372552 208.417458,47.4273423 C209.043721,47.165202 209.746055,47.2281157 210.413007,47.2368537 C211.929128,47.3242338 213.209958,48.2452198 214.322724,49.1889246 C216.116595,50.7145807 217.411578,52.7243225 218.405814,54.8266871 C220.475664,59.2795758 221.280606,64.3021826 220.664958,69.1657576 C220.555274,69.9801399 220.381902,70.7840366 220.162533,71.5739525 C221.041777,72.1279422 222.103239,72.5141621 223.159394,72.3096928 C225.984651,71.8605592 228.337558,69.870041 229.761686,67.4863126 C231.82446,64.0749944 232.355191,59.9698784 232.06152,56.0622414 C231.580324,51.8120745 229.73515,47.7191917 226.826744,44.547295 C225.195631,42.8136743 223.309767,41.2583089 221.105465,40.2918853 C219.552193,39.8619753 217.982998,40.5697539 216.413804,40.4614026 C215.623015,40.4718882 214.931296,40.0437258 214.27142,39.6697391 C213.572625,39.2171103 212.841985,38.7382675 212.410324,38.0095177 C213.066661,38.3433096 213.793762,38.4551561 214.522633,38.5058365 C214.42887,38.3363192 214.239576,37.9955369 214.145814,37.8260195 C214.906528,37.4590232 215.757467,37.4397996 216.587176,37.4328092 C216.182051,36.8491103 215.472641,36.758235 214.812766,36.7774586 C214.317417,36.8473627 213.915831,36.2706542 213.44348,36.5292992 C213.4824,36.8683339 213.574394,37.1986306 213.652234,37.5306749 C213.033048,37.2545538 212.35902,37.196883 211.699145,37.1112505 C211.099419,36.5118232 210.874743,35.6520032 210.310399,35.0263619 C210.025573,34.683832 209.639909,34.4496534 209.257782,34.227708 C209.238322,34.1647943 209.195864,34.0407146 209.176404,33.977801 C211.074651,33.574105 212.861445,32.6670998 214.828688,32.600691 C215.511561,32.6111766 216.242201,32.5919529 216.859618,32.9309876 C216.654402,33.1459426 216.449186,33.35915 216.245739,33.5723574 C216.847234,33.9970246 217.52657,34.3080976 218.267824,34.4007205 C218.119219,33.9568297 217.974153,33.5146865 217.836163,33.0707958 C218.586262,33.4919677 219.354053,33.9568297 219.867093,34.6628608 C221.181537,36.9959088 223.26554,38.7959384 225.459228,40.3076137 C228.040349,42.0552152 230.101354,44.4686529 231.691777,47.112774 C233.623638,50.3336036 234.734635,54.0105572 235,57.7416865 L235,60.3106607 C234.66387,65.5045324 232.528563,70.8207363 228.321636,74.1202079 C226.214635,75.7629534 223.497292,76.4829652 220.8401,76.4567512 C220.120075,76.4986936 219.345208,76.3117003 218.680025,76.659473 C217.926387,77.0334597 217.109061,77.3130759 216.256354,77.2903571 C213.291337,77.2833667 210.32809,77.2921047 207.363073,77.2851143 C207.453297,76.6227733 207.568289,75.9621799 207.745199,75.317315 C207.883189,74.7965297 208.371462,74.5011851 208.810199,74.2442876 C209.107409,74.8279866 209.399311,75.4169283 209.710673,75.997132 C209.968962,75.6283881 210.243173,75.2264397 210.195407,74.7528397 C210.200714,74.0922463 209.615141,73.6605887 209.213555,73.2097075 C209.508995,72.9161105 209.804435,72.624261 210.103414,72.3341592 C210.414776,72.5997946 210.621761,73.1607747 211.11711,73.062909 C211.447932,73.0698994 211.716836,72.8601872 211.992816,72.7081459 C211.271022,72.0300765 210.650066,71.0356913 209.540839,71.0077296 C208.771279,71.159771 208.27593,71.8221119 207.833654,72.4058108 C207.371919,73.0821326 206.961487,73.8161253 206.770424,74.6147792 C206.627126,75.4955703 206.641279,76.3938375 206.586437,77.2833667 C206.04863,77.2851143 205.510822,77.2886095 204.973015,77.2990951 C205.086238,76.1823777 204.881022,75.0551748 205.111005,73.9471954 C205.388754,74.1027319 205.666503,74.2617637 205.944252,74.422543 C206.133547,74.0730227 206.317533,73.7217548 206.492674,73.3652441 C206.167159,73.0559186 205.846952,72.7430979 205.528513,72.4302773 C205.675349,72.0318241 205.823953,71.633371 205.977865,71.2366654 C206.409527,71.3729783 206.842957,71.5040485 207.279925,71.6316234 C207.157857,71.4166684 207.037558,71.2017134 206.919028,70.988506 C207.343613,70.6075289 207.876113,70.9989916 208.339618,71.0863717 C208.382076,70.8801547 208.426304,70.6739377 208.472301,70.4677208 C207.488679,70.102472 206.367068,69.826351 205.351603,70.2282993 C205.319759,70.3506315 205.254302,70.5935481 205.222458,70.7141326 C204.152151,70.8574359 203.074767,71.0007392 202.022151,71.220937 C201.470191,71.8465784 201.034992,72.5648426 200.502492,73.2079599 C200.497184,73.9471954 200.490108,74.6934212 200.619252,75.4256663 C200.728937,76.1194641 201.194211,76.676949 201.517957,77.2833667 C195.959435,77.2903571 190.402683,77.2903571 184.84593,77.2833667 C185.128987,76.7241342 185.443887,76.1823777 185.788862,75.6580973 C186.277135,76.3518951 187.186453,76.1893681 187.915324,76.0897549 C188.134693,76.0181032 188.555739,75.8957711 188.446055,75.593436 C187.823331,75.317315 187.101537,75.1792545 186.613264,74.6759452 C186.510656,74.0118566 186.648646,73.3320397 186.517733,72.6714463 C186.347899,71.9793961 185.606645,71.6036617 184.936154,71.5687097 C184.244435,71.5826905 183.655324,71.9706581 183.154668,72.4040632 C182.669934,72.0562905 182.171047,71.7224987 181.613779,71.4988057 C181.608472,70.97103 181.661545,70.4467495 181.776537,69.9312071 C182.119743,69.8805266 182.462949,69.8123702 182.815,69.817613 C183.697782,69.8228558 184.419576,70.4869444 185.318281,70.4152927 C184.729169,69.0032307 182.928223,68.6624484 181.550091,68.8581798 C180.950365,68.9001222 180.674385,69.4978019 180.327641,69.8945075 C180.249801,69.817613 180.09235,69.6638241 180.01451,69.5869296 C179.154726,69.8333414 178.300249,70.084996 177.436927,70.3121842 C177.09549,71.427154 176.150789,72.2607599 175.871271,73.4001961 C175.786354,74.1516648 175.692591,74.9363379 175.890731,75.6773209 C176.134867,76.2348058 176.536453,76.7101534 176.764668,77.2798715 C169.54142,77.2903571 162.318173,77.2990951 155.096694,77.2746287 C154.406744,76.1037357 154.160839,74.7126449 154.390822,73.3809725 C154.509352,72.8741681 154.856096,72.4669769 155.146229,72.0475525 C155.02593,70.8784071 155.857409,69.9049931 156.787957,69.3055657 C157.460216,68.9280838 158.266927,69.0311923 158.981645,69.2286713 C160.117409,67.778162 162.404859,67.6733059 163.811296,68.7917709 C164.596777,65.8470623 165.493713,62.8831301 167.03637,60.2285234 C165.967832,57.6315876 165.062051,54.9560096 164.534859,52.1965468 C164.467633,51.9448922 164.529551,51.6775092 164.718846,51.4922634 C165.219502,50.9347785 165.4601,50.2182619 165.806844,49.5699017 C165.214194,49.8093232 164.63039,50.1029202 164.23588,50.6184627 C164.23588,49.8075756 164.057201,49.0054265 164.081968,48.1962869 C164.129734,47.6580257 164.621545,47.3504478 165.06559,47.1285024 C165.072666,46.5727651 165.072666,46.0152802 165.076204,45.4577954 C164.639236,45.8195489 164.207575,46.1865452 163.791836,46.5710175 C163.800681,45.8178013 163.791836,45.0663326 163.807757,44.314864 C164.11912,44.0527237 164.518937,43.7713599 164.495939,43.3152359 C164.508322,40.7777185 164.596777,38.1912682 165.398181,35.7586069 C165.621088,35.1259752 166.135897,34.6646084 166.6224,34.2259604 C166.629477,33.539153 166.627708,32.8523456 166.633015,32.1655382 C167.110673,31.8282511 167.558256,31.4507692 168.00407,31.0715396 C167.715706,31.0680444 167.429111,31.0628016 167.144286,31.0593064 C167.689169,29.4619986 169.033688,28.3120768 170.381744,27.3666244 C171.338829,27.6112886 172.311836,27.8227484 173.295457,27.9450805 C172.911561,27.5396369 172.439211,27.2390495 171.924402,27.0258421 C172.563048,26.5557373 173.320224,26.2743734 174.11809,26.2376738 C174.537367,26.9611808 174.935415,27.7493491 175.63598,28.2491632 C175.666055,27.4819661 175.770432,26.5959321 175.168937,26 M169.91118,33.3049045 C169.840416,32.1200306 170.56221,30.3916527 172.018182,30.5926269 C172.961114,31.1151598 174.28971,31.4611849 174.48785,32.6932439 C173.520151,33.1581059 172.637368,33.7697665 171.774046,34.398903 C171.264544,33.8099613 170.213697,34.1122964 169.91118,33.3049045 Z M183.745513,31.4787133 C184.161252,31.085503 184.706136,30.8670528 185.194408,30.5752033 C185.967506,31.1589022 186.96528,31.6359974 187.246568,32.6408683 C187.402249,33.3399089 187.474782,34.1403104 187.113885,34.7886706 C186.664533,34.9669259 186.181568,35.0350824 185.710986,35.1102293 C185.189101,34.0773968 184.313395,33.238548 183.294392,32.6828107 C183.39523,32.2721244 183.402307,31.7845436 183.745513,31.4787133 Z M179.692551,34.3150706 C180.102983,33.9078794 180.683249,34.2241953 181.183905,34.2207001 C181.426272,34.6541053 181.742941,35.0612964 182.275441,35.1329481 C182.314362,35.2273186 182.392202,35.4143119 182.431122,35.5086824 C181.925159,35.5156728 181.415657,35.5611105 180.91677,35.4807208 C180.669096,35.1923665 180.585948,34.813137 180.400192,34.4915783 C180.164901,34.4216743 179.929611,34.3640034 179.692551,34.3150706 Z M175.51745,34.6837795 C176.166711,34.3954253 176.851354,34.115809 177.576686,34.1140614 C177.295399,34.6278563 176.812434,34.9983478 176.545299,35.5208807 C175.998646,35.5226283 175.453762,35.5226283 174.908879,35.5068999 C175.038023,35.1923316 175.168937,34.8253353 175.51745,34.6837795 Z M172.232261,36.6201395 C173.284878,36.6096539 174.337494,36.6114015 175.39011,36.6114015 C175.980991,36.543245 176.529412,37.1409248 176.43565,37.7158857 C176.348964,38.8920215 176.055293,40.0419433 175.977452,41.2198267 C175.542253,41.5099286 175.078748,41.8384777 174.981447,42.3837293 C174.454255,42.6056747 173.953599,42.8887862 173.410484,43.0705367 C173.316721,42.5095566 173.426406,41.9503242 173.590932,41.4138105 C174.054437,41.2740024 174.509097,41.1079802 174.95668,40.9192393 C175.444952,40.1170902 175.374188,39.1506665 175.388341,38.2523993 C175.007984,38.3485174 174.625858,38.4358975 174.250808,38.547744 C173.713,38.4271595 173.276032,38.0549204 173.056663,37.5586015 C172.637386,37.3873366 172.310102,37.0780111 172.232261,36.6201395 Z M180.209111,37.4677437 C180.697384,37.2562839 181.058281,36.8211312 181.55186,36.5991858 C182.641628,36.7669555 183.740241,36.878802 184.830008,37.0413289 C184.584103,37.3891017 184.187824,37.5009481 183.786238,37.5533762 C183.612865,38.5949467 182.447027,38.7609688 181.571321,38.5827135 C181.417409,38.4131961 181.263497,38.247174 181.111354,38.0811519 C181.229884,38.8291253 181.233422,39.5875844 181.215731,40.3425482 C181.497018,40.4474043 181.780075,40.5487652 182.063131,40.6623593 C182.135664,40.9332375 182.234734,41.1971254 182.349726,41.4540228 C182.906993,41.6689778 183.536794,41.7720863 183.971993,42.2107343 C183.832234,42.5742354 183.6624,42.9272509 183.416495,43.2330811 C182.855689,42.9045321 182.261271,42.6423918 181.659776,42.3977276 C181.624394,41.7144154 181.113123,41.233825 180.463862,41.0887741 C180.4674,39.8776862 180.513397,38.65087 180.209111,37.4677437 Z M173.527209,44.5874374 C174.125166,44.7254979 174.823962,44.391706 175.34054,44.80414 C174.852267,44.9631717 174.369302,45.1519127 173.96064,45.4647333 C173.712965,45.2253119 173.52544,44.9422005 173.527209,44.5874374 Z M181.122004,44.9876381 C181.613814,44.6643318 182.25423,44.8845296 182.811497,44.830354 C182.809728,45.088999 182.809728,45.347644 182.811497,45.6080367 C182.247153,45.4000721 181.68104,45.2025931 181.122004,44.9876381 Z M178.103896,71.5424782 C178.616936,71.3886893 179.156513,71.3397564 179.683705,71.2418908 C179.489104,71.6927719 179.324577,72.1646244 179.292734,72.6557004 C179.18128,74.240775 179.411264,75.8747824 180.124212,77.3095632 C179.547484,77.2833492 178.970757,77.2833492 178.394029,77.2850968 C178.118049,76.2382835 177.168041,75.3906968 177.293647,74.249513 C177.359104,73.4718303 178.572709,73.7182421 178.652318,72.8968694 C178.572709,72.7762849 178.415259,72.5316207 178.337418,72.4110362 C178.040209,72.5141447 177.744769,72.6190008 177.451097,72.7203616 C177.569627,72.2852089 177.758921,71.8500561 178.103896,71.5424782 Z M202.919122,72.0649586 C203.391472,72.0265114 203.862054,71.9863166 204.336173,71.9496169 C204.097344,72.5839963 203.787751,73.2096376 203.741755,73.8929498 C203.747062,75.041124 203.992967,76.1700746 204.199952,77.2937824 C203.743524,77.2885396 203.290633,77.286792 202.839512,77.2885396 C202.264554,76.1892982 201.645368,74.9607344 201.9355,73.6884805 C202.01511,73.5014871 202.066414,73.0593439 202.363623,73.2603181 C202.549379,73.611586 202.659064,74.0065439 202.92266,74.3158694 C203.136721,73.9646015 203.402087,73.611586 203.432162,73.1869188 C203.425085,72.7535136 203.165027,72.3987505 202.919122,72.0649586 Z M180.506356,73.5207282 C180.49751,73.0191666 180.863715,72.6259562 181.18923,72.2816787 C181.606738,72.7552787 182.167544,73.1310131 182.496597,73.6640315 C182.53021,74.8733718 182.356838,76.0792168 182.360376,77.2903047 C181.965866,77.2868095 181.571356,77.2868095 181.178615,77.2885571 C180.766414,76.0757216 180.483358,74.8052153 180.506356,73.5207282 Z M183.61819,73.4858286 C183.931322,73.2009695 184.286911,72.8531968 184.757493,72.9231009 C185.210383,72.8968869 185.705732,73.2009695 185.640275,73.7042788 C185.410292,74.9590567 184.757493,76.0897549 184.354137,77.2938523 C184.009162,77.2886095 183.664187,77.2868619 183.32275,77.2851143 C183.414744,76.0181032 183.558041,74.7545873 183.61819,73.4858286 Z"/>
    <path fill="#213C6D" d="M110.708167,40.7549997 C114.283524,38.5407885 118.460376,37.3087295 122.674379,37.1741641 C126.585866,36.9714424 130.469047,37.894176 134.067402,39.3569184 C134.783889,39.573621 135.597677,40.0105214 136.337162,39.6819723 C137.101414,39.082545 137.147411,38.0165081 137.333167,37.1409597 L138.787369,37.1409597 C139.201339,41.6812285 139.638308,46.2214972 140.061123,50.761766 C139.479089,50.7635136 138.898823,50.7635136 138.318557,50.7670088 C138.047884,49.7429143 137.674603,48.7467814 137.211099,47.792591 C135.958574,45.2673068 133.805575,43.222613 131.298756,41.9171547 C128.163906,40.3495561 124.478864,39.9056653 121.039728,40.5697539 C118.000409,41.1342292 115.23707,42.9045495 113.416663,45.3651725 C111.376888,48.1054117 110.400343,51.4782826 110.048291,54.8266871 C109.786464,57.691006 109.876688,60.616491 110.62325,63.4074106 C111.385733,66.2927007 112.802785,69.0661443 114.982319,71.1580234 C117.227311,73.4386433 120.333856,74.8594434 123.54124,75.1058552 C126.594711,75.3977047 129.637569,74.5815747 132.392062,73.3285445 C132.377909,69.782661 132.420368,66.2350299 132.370833,62.6891464 C132.331912,61.5025249 132.308914,60.0537633 131.240376,59.2778282 C130.00908,58.4249987 128.427502,58.4983979 126.994529,58.4110178 C126.994529,57.888485 126.994529,57.3676997 126.996298,56.8451669 L144.996921,56.8451669 C144.995152,57.3676997 144.996921,57.888485 144.996921,58.4110178 C143.988532,58.4686887 142.935916,58.4634459 141.998291,58.8811227 C141.313648,59.1799625 140.897909,59.8842459 140.775841,60.5902769 C140.568856,61.7489368 140.625467,62.9303154 140.618391,64.0994608 C140.614853,67.4338845 140.625467,70.7665606 140.613084,74.0992367 C135.978034,76.3920899 130.932552,77.9754169 125.733158,78.2532855 L122.437319,78.2532855 C117.183084,77.9789121 111.836854,76.5546169 107.62462,73.3372825 C104.459695,70.9553016 102.085559,67.5439834 101.05771,63.7412025 C99.9166384,59.5819109 100.245692,55.0643609 101.873266,51.0745867 C103.592834,46.8139341 106.77722,43.1771754 110.708167,40.7549997 Z M22,38.0147255 C28.7031312,38.0094827 35.4044934,38.0234635 42.1076246,38.0077351 C42.114701,38.5320156 42.1164701,39.056296 42.1164701,39.5805765 C40.8816362,39.5700909 39.6184967,39.5421293 38.4243522,39.9038828 C37.6547924,40.1293234 37.0497591,40.7532171 36.7649336,41.4819669 C36.428804,42.3382917 36.3545017,43.2697633 36.3297342,44.1802637 C36.3315033,53.1472071 36.3279651,62.1158981 36.3315033,71.0845891 C36.3775,72.4861656 36.6092525,74.1359014 37.8812375,74.9887309 C39.1319934,75.773404 40.6923422,75.6912668 42.114701,75.7227236 L42.114701,77.2920698 L22,77.2920698 L22,75.7244712 C23.5037375,75.7000048 25.1826163,75.7349568 26.4280648,74.7685332 C27.6133638,73.7217198 27.7531229,72.0352844 27.7902741,70.5638039 C27.7938123,61.8817195 27.7991196,53.1996352 27.7867359,44.5175508 C27.7230482,43.0250991 27.6699751,41.2040983 26.3219186,40.2376747 C25.0322425,39.4739728 23.4471262,39.6015477 22,39.5805765 L22,38.0147255 Z M49.2937209,38.0164382 C53.7978571,38.012943 58.3002243,38.012943 62.8025914,38.0164382 C71.1332973,46.4241491 79.3861628,54.9035117 87.7434053,63.2850086 C87.6938704,62.7380093 87.6301827,62.1927576 87.6319518,61.6440108 C87.63549,56.0516859 87.63549,50.4611086 87.6319518,44.8705313 C87.5629568,43.4497313 87.5452658,41.8489283 86.5386462,40.7199777 C85.4630316,39.6714168 83.8372259,39.5875319 82.413098,39.5752987 C82.4148671,39.0545135 82.413098,38.5337282 82.4166362,38.0146906 C87.1914452,38.0146906 91.9662542,38.0164382 96.7428322,38.012943 C96.7446013,38.5337282 96.7446013,39.0545135 96.7463704,39.5752987 C95.3558555,39.5892795 93.7919684,39.6626788 92.6915864,40.6081312 C91.6619684,41.4976604 91.4461379,42.9237032 91.3205316,44.1942096 C91.1471595,46.9798864 91.2391528,49.7725536 91.2161545,52.5617256 C91.2161545,60.9065229 91.2179236,69.2530678 91.2161545,77.5978651 C90.400598,77.5961175 89.5850415,77.6066031 88.769485,77.5873795 C78.6732143,67.2625497 68.5450997,56.9674291 58.4364452,46.6530849 C58.4718272,47.1057137 58.5284385,47.5548473 58.5319767,48.0092237 C58.5337458,55.1813803 58.5302076,62.3552846 58.5337458,69.5291888 C58.5779734,70.8958132 58.5655897,72.3078753 59.0609385,73.6063432 C59.361686,74.4224731 60.0587126,75.0603477 60.890191,75.3294783 C61.8614286,75.6527846 62.899892,75.7261838 63.9188953,75.7174458 C63.92951,76.2417263 63.92951,76.7677543 63.9259718,77.2937824 C59.1352409,77.2885396 54.34451,77.29553 49.5537791,77.2902872 C49.5537791,76.7695019 49.5537791,76.2487167 49.55201,75.7279314 C51.0769767,75.6912318 52.8885382,75.5968613 53.9305399,74.3298502 C54.87701,73.0506059 54.8663953,71.3851417 54.9530814,69.8734663 C54.9619269,61.6544964 54.9566196,53.4355264 54.9566196,45.2165564 C54.9017774,43.7905136 54.7903239,42.2124294 53.7925498,41.086974 C52.6815532,39.846177 50.8876827,39.5718035 49.29549,39.5735511 C49.2972591,39.0545135 49.2972591,38.5354758 49.2937209,38.0164382 Z"/>
  </g>
</svg>
