<svg xmlns="http://www.w3.org/2000/svg" width="255" height="110" viewBox="0 0 255 110">
  <g fill="none" fill-rule="evenodd" transform="translate(12 9)">
    <path fill="#253F85" d="M200.97406,9.39046986 C202.502369,6.2721682 203.95652,3.11763062 205.523256,0 C205.933142,3.19211556 206.380106,6.34665313 206.827745,9.53876869 C209.922789,8.4993348 212.943676,7.27469513 216.075799,6.38356008 C213.875358,9.05629421 211.750422,11.8028422 209.624813,14.5493903 C211.936489,16.3685673 214.24884,18.1125884 216.523438,19.9310944 C213.428393,20.2652701 210.333349,20.41424 207.238305,20.6739307 C207.126396,23.9398601 206.902576,27.2433676 206.715835,30.546875 C204.926629,28.1714096 203.285062,25.7214592 201.570013,23.3084158 C198.997439,25.6476453 196.387112,27.9855328 193.888694,30.3985762 C194.858129,27.0574907 195.827563,23.7177474 196.759919,20.376662 C193.776785,20.0062504 190.756572,19.5969188 187.773438,19.1889293 C190.681741,17.555629 193.627122,15.8854218 196.536774,14.2158857 C195.342846,11.3572747 194.112514,8.53691278 192.956339,5.67897287 C195.604418,6.97742644 198.325981,8.09134526 200.97406,9.39046986"/>
    <path stroke="#253F85" stroke-width=".094" d="M200.97406,9.39046986 C202.502369,6.2721682 203.95652,3.11763062 205.523256,0 C205.933142,3.19211556 206.380106,6.34665313 206.827745,9.53876869 C209.922789,8.4993348 212.943676,7.27469513 216.075799,6.38356008 C213.875358,9.05629421 211.750422,11.8028422 209.624813,14.5493903 C211.936489,16.3685673 214.24884,18.1125884 216.523438,19.9310944 C213.428393,20.2652701 210.333349,20.41424 207.238305,20.6739307 C207.126396,23.9398601 206.902576,27.2433676 206.715835,30.546875 C204.926629,28.1714096 203.285062,25.7214592 201.570013,23.3084158 C198.997439,25.6476453 196.387112,27.9855328 193.888694,30.3985762 C194.858129,27.0574907 195.827563,23.7177474 196.759919,20.376662 C193.776785,20.0062504 190.756572,19.5969188 187.773438,19.1889293 C190.681741,17.555629 193.627122,15.8854218 196.536774,14.2158857 C195.342846,11.3572747 194.112514,8.53691278 192.956339,5.67897287 C195.604418,6.97742644 198.325981,8.09134526 200.97406,9.39046986 Z"/>
    <path fill="#253F85" d="M113.372043,28.4095831 C116.023378,28.1863749 118.675398,28.0371212 121.289062,27.8515625 C119.395252,37.743318 117.500756,47.5980962 115.569275,57.4522021 C114.659698,61.9150222 112.537808,66.4517969 108.711831,69.203578 C104.658459,72.2162169 99.3167485,72.9597961 94.3538,72.7365879 C89.9586523,72.5133797 85.3367952,71.0625261 82.4957367,67.5678381 C79.5786517,63.8862468 79.4272839,58.7907792 80.7909646,54.4772127 C82.2306717,49.1968588 86.3600695,44.8093378 91.4743858,42.7265091 C97.5736207,40.0117053 104.431065,40.4581218 110.946733,40.6436804 C111.742613,36.5533222 112.576163,32.4622917 113.372043,28.4095831"/>
    <path stroke="#253F85" stroke-width=".094" d="M113.372043,28.4095831 C116.023378,28.1863749 118.675398,28.0371212 121.289062,27.8515625 C119.395252,37.743318 117.500756,47.5980962 115.569275,57.4522021 C114.659698,61.9150222 112.537808,66.4517969 108.711831,69.203578 C104.658459,72.2162169 99.3167485,72.9597961 94.3538,72.7365879 C89.9586523,72.5133797 85.3367952,71.0625261 82.4957367,67.5678381 C79.5786517,63.8862468 79.4272839,58.7907792 80.7909646,54.4772127 C82.2306717,49.1968588 86.3600695,44.8093378 91.4743858,42.7265091 C97.5736207,40.0117053 104.431065,40.4581218 110.946733,40.6436804 C111.742613,36.5533222 112.576163,32.4622917 113.372043,28.4095831 Z"/>
    <path fill="#DA3238" d="M172.331939,52.7152531 C180.237225,46.0088304 187.356114,38.4085323 194.0625,30.546875 C191.02732,40.941965 185.145262,50.5172763 177.203399,57.8946107 C175.329865,59.3846275 173.606024,61.1360035 171.507611,62.4030566 C164.651531,67.0226475 156.559299,70.0033547 148.242188,70.078125 L148.429135,69.929258 C154.985828,66.1287722 161.280389,61.9180602 167.16177,57.1496023 C168.885611,55.6959603 170.721214,54.3177621 172.331939,52.7152531"/>
    <path stroke="#DA3238" stroke-width=".094" d="M172.331939,52.7152531 C180.237225,46.0088304 187.356114,38.4085323 194.0625,30.546875 C191.02732,40.941965 185.145262,50.5172763 177.203399,57.8946107 C175.329865,59.3846275 173.606024,61.1360035 171.507611,62.4030566 C164.651531,67.0226475 156.559299,70.0033547 148.242188,70.078125 L148.429135,69.929258 C154.985828,66.1287722 161.280389,61.9180602 167.16177,57.1496023 C168.885611,55.6959603 170.721214,54.3177621 172.331939,52.7152531 Z"/>
    <path fill="#253F85" d="M57.699745,40.6006323 C62.0966244,40.1530816 66.8699327,40.4887446 70.7782699,42.7628953 C73.6728312,44.4034652 75.7771637,47.3853392 76.2276553,50.7035502 C76.8296697,55.139964 75.4387854,59.7637559 72.9206529,63.4162819 C69.1251085,68.8967559 62.5851665,72.1030792 56.0078535,72.6625176 C51.6863958,72.9981807 47.0632514,72.6625176 43.2296564,70.3883669 C40.2610323,68.6729806 38.1560204,65.5421477 37.8176421,62.112049 C37.3290999,57.2651558 39.0203119,52.3070489 42.1024082,48.5412872 C45.9360032,43.9188433 51.761138,41.1971419 57.699745,40.6006323"/>
    <path stroke="#253F85" stroke-width=".094" d="M57.699745,40.6006323 C62.0966244,40.1530816 66.8699327,40.4887446 70.7782699,42.7628953 C73.6728312,44.4034652 75.7771637,47.3853392 76.2276553,50.7035502 C76.8296697,55.139964 75.4387854,59.7637559 72.9206529,63.4162819 C69.1251085,68.8967559 62.5851665,72.1030792 56.0078535,72.6625176 C51.6863958,72.9981807 47.0632514,72.6625176 43.2296564,70.3883669 C40.2610323,68.6729806 38.1560204,65.5421477 37.8176421,62.112049 C37.3290999,57.2651558 39.0203119,52.3070489 42.1024082,48.5412872 C45.9360032,43.9188433 51.761138,41.1971419 57.699745,40.6006323 Z"/>
    <path fill="#253F85" d="M124.571914,46.5202701 C129.121663,42.1174011 135.648274,40.2883822 141.876198,40.438158 C145.157708,40.5123712 148.738579,41.0352372 151.311466,43.2366717 C153.884353,45.4758874 154.220123,49.4692342 152.803551,52.4168491 C151.497555,54.9913737 148.924668,56.6706169 146.314698,57.7156742 C140.086774,60.0668845 133.224393,59.8057888 126.771948,58.648737 C126.39977,62.2312123 127.966021,66.075458 131.210448,67.866021 C136.319814,70.5903215 142.398057,70.4412203 147.992199,69.8441411 L147.806109,69.9932422 C142.957673,73.3139472 136.767507,74.2847913 131.023685,73.3139472 C127.256724,72.7175427 123.453355,71.0011929 121.103641,67.9038023 C119.163862,65.5519173 118.381073,62.4174201 118.642677,59.395592 C118.865849,54.5440703 120.991717,49.8045431 124.571914,46.5202701"/>
    <path stroke="#253F85" stroke-width=".094" d="M124.571914,46.5202701 C129.121663,42.1174011 135.648274,40.2883822 141.876198,40.438158 C145.157708,40.5123712 148.738579,41.0352372 151.311466,43.2366717 C153.884353,45.4758874 154.220123,49.4692342 152.803551,52.4168491 C151.497555,54.9913737 148.924668,56.6706169 146.314698,57.7156742 C140.086774,60.0668845 133.224393,59.8057888 126.771948,58.648737 C126.39977,62.2312123 127.966021,66.075458 131.210448,67.866021 C136.319814,70.5903215 142.398057,70.4412203 147.992199,69.8441411 L147.806109,69.9932422 C142.957673,73.3139472 136.767507,74.2847913 131.023685,73.3139472 C127.256724,72.7175427 123.453355,71.0011929 121.103641,67.9038023 C119.163862,65.5519173 118.381073,62.4174201 118.642677,59.395592 C118.865849,54.5440703 120.991717,49.8045431 124.571914,46.5202701 Z"/>
    <path fill="#253F85" d="M209.531426,40.7776688 C214.071175,40.1365052 218.913209,40.2496116 223.149305,42.2473712 C226.51616,43.7545486 229.164233,46.9201662 229.769487,50.5763659 C230.564183,55.0611044 229.240146,59.7720558 226.781514,63.5788371 C223.263517,69.0426958 217.021533,72.4726827 210.628406,73.3775342 C206.126272,73.9798601 201.360835,73.7536472 197.199285,71.794044 C193.984256,70.2861853 191.449027,67.3474619 190.768543,63.88 C189.898619,59.620793 190.994915,55.1742109 193.113647,51.4423797 C196.518801,45.5635702 202.873629,41.756789 209.531426,40.7776688"/>
    <path stroke="#253F85" stroke-width=".094" d="M209.531426,40.7776688 C214.071175,40.1365052 218.913209,40.2496116 223.149305,42.2473712 C226.51616,43.7545486 229.164233,46.9201662 229.769487,50.5763659 C230.564183,55.0611044 229.240146,59.7720558 226.781514,63.5788371 C223.263517,69.0426958 217.021533,72.4726827 210.628406,73.3775342 C206.126272,73.9798601 201.360835,73.7536472 197.199285,71.794044 C193.984256,70.2861853 191.449027,67.3474619 190.768543,63.88 C189.898619,59.620793 190.994915,55.1742109 193.113647,51.4423797 C196.518801,45.5635702 202.873629,41.756789 209.531426,40.7776688 Z"/>
    <path fill="#253F85" d="M15.4736824,42.6064211 C18.9042639,41.6692764 22.4838254,41.294283 26.0263104,41.3315789 C29.940908,41.294283 33.8939303,41.5567106 37.734375,42.2321057 C37.1748579,43.7320796 36.6153407,45.1947577 36.1306506,46.6954097 C30.5752521,46.2824422 24.8331232,45.9074487 19.3148012,47.1822909 C17.6362498,47.6332325 15.4736824,48.3079495 15.0260686,50.2954828 C14.9519158,51.7954567 16.3311592,52.6593657 17.5991734,53.0336811 C21.5515215,54.1213657 25.8025035,53.9715039 29.5310448,55.7345836 C31.2837491,56.5218664 32.774896,58.0591363 33.0735298,60.0107299 C33.55822,63.0479737 32.7007431,66.3869753 30.5752521,68.6742321 C28.1518014,71.2998646 24.5715658,72.4628191 21.1787348,73.1002402 C14.1315153,74.2252207 6.86048904,73.6257736 0,71.8626939 C0.372786719,70.28745 0.820400428,68.7122061 1.19318715,67.1362842 C7.12137233,67.8869492 13.1992115,68.824772 19.1280708,67.5865476 C21.3654652,67.0996664 23.9008194,65.8987379 24.3106825,63.3856712 C24.7582962,61.7351574 23.3042258,60.4230193 21.8872318,60.0107299 C18.1209399,58.8477754 14.0944389,59.1095249 10.402974,57.7221168 C8.79992374,57.1219916 7.23327576,56.0343071 6.6373563,54.3844714 C5.51832203,51.4957332 6.56252931,48.0828178 8.79992374,46.0573105 C10.7380102,44.3695008 13.0502316,43.2818162 15.4736824,42.6064211"/>
    <path stroke="#253F85" stroke-width=".094" d="M15.4736824,42.6064211 C18.9042639,41.6692764 22.4838254,41.294283 26.0263104,41.3315789 C29.940908,41.294283 33.8939303,41.5567106 37.734375,42.2321057 C37.1748579,43.7320796 36.6153407,45.1947577 36.1306506,46.6954097 C30.5752521,46.2824422 24.8331232,45.9074487 19.3148012,47.1822909 C17.6362498,47.6332325 15.4736824,48.3079495 15.0260686,50.2954828 C14.9519158,51.7954567 16.3311592,52.6593657 17.5991734,53.0336811 C21.5515215,54.1213657 25.8025035,53.9715039 29.5310448,55.7345836 C31.2837491,56.5218664 32.774896,58.0591363 33.0735298,60.0107299 C33.55822,63.0479737 32.7007431,66.3869753 30.5752521,68.6742321 C28.1518014,71.2998646 24.5715658,72.4628191 21.1787348,73.1002402 C14.1315153,74.2252207 6.86048904,73.6257736 0,71.8626939 C0.372786719,70.28745 0.820400428,68.7122061 1.19318715,67.1362842 C7.12137233,67.8869492 13.1992115,68.824772 19.1280708,67.5865476 C21.3654652,67.0996664 23.9008194,65.8987379 24.3106825,63.3856712 C24.7582962,61.7351574 23.3042258,60.4230193 21.8872318,60.0107299 C18.1209399,58.8477754 14.0944389,59.1095249 10.402974,57.7221168 C8.79992374,57.1219916 7.23327576,56.0343071 6.6373563,54.3844714 C5.51832203,51.4957332 6.56252931,48.0828178 8.79992374,46.0573105 C10.7380102,44.3695008 13.0502316,43.2818162 15.4736824,42.6064211 Z"/>
    <path fill="#253F85" d="M155.429688,41.328125 C157.884202,41.328125 160.376951,41.3650916 162.831466,41.328125 C165.852669,45.3426967 169.100549,49.209402 172.5,52.8899302 L172.310193,53.0754352 C170.686595,54.6744083 168.836321,56.0495654 167.098702,57.5 C162.8697,52.3690373 158.980028,46.9416697 155.429688,41.328125"/>
    <path stroke="#253F85" stroke-width=".094" d="M155.429688,41.328125 C157.884202,41.328125 160.376951,41.3650916 162.831466,41.328125 C165.852669,45.3426967 169.100549,49.209402 172.5,52.8899302 L172.310193,53.0754352 C170.686595,54.6744083 168.836321,56.0495654 167.098702,57.5 C162.8697,52.3690373 158.980028,46.9416697 155.429688,41.328125 Z"/>
    <path fill="#FFFFFE" d="M95.1146884,47.8147805 C99.5626465,45.5519196 104.739221,45.5900884 109.609375,46.1176348 C108.727548,50.1144469 107.960109,54.1098957 107.116411,58.0678574 C106.656779,60.5944915 105.698,63.1960998 103.704184,64.930051 C101.250042,67.1547431 97.6839111,67.6441209 94.501153,67.2678862 C92.2771739,67.0790872 89.899291,66.0233127 88.8642534,63.9499324 C87.5990533,61.5746101 88.0205556,58.7473972 88.6722203,56.2589319 C89.5540474,52.7528608 91.7780265,49.4730758 95.1146884,47.8147805"/>
    <path stroke="#FFFFFE" stroke-width=".094" d="M95.1146884,47.8147805 C99.5626465,45.5519196 104.739221,45.5900884 109.609375,46.1176348 C108.727548,50.1144469 107.960109,54.1098957 107.116411,58.0678574 C106.656779,60.5944915 105.698,63.1960998 103.704184,64.930051 C101.250042,67.1547431 97.6839111,67.6441209 94.501153,67.2678862 C92.2771739,67.0790872 89.899291,66.0233127 88.8642534,63.9499324 C87.5990533,61.5746101 88.0205556,58.7473972 88.6722203,56.2589319 C89.5540474,52.7528608 91.7780265,49.4730758 95.1146884,47.8147805 Z"/>
    <path fill="#FFFFFE" d="M134.321551,47.0719247 C136.95207,45.9115555 140.027373,45.440852 142.879613,46.1652633 C144.214634,46.4917401 145.437118,47.5793404 145.510802,49.0301297 C145.84439,51.3141559 143.806022,53.0907664 141.805836,53.7804322 C137.211304,55.2672782 132.246342,54.9040892 127.578125,54.1429656 C128.911805,51.133217 131.246249,48.4499451 134.321551,47.0719247"/>
    <path stroke="#FFFFFE" stroke-width=".094" d="M134.321551,47.0719247 C136.95207,45.9115555 140.027373,45.440852 142.879613,46.1652633 C144.214634,46.4917401 145.437118,47.5793404 145.510802,49.0301297 C145.84439,51.3141559 143.806022,53.0907664 141.805836,53.7804322 C137.211304,55.2672782 132.246342,54.9040892 127.578125,54.1429656 C128.911805,51.133217 131.246249,48.4499451 134.321551,47.0719247 Z"/>
    <path fill="#FFFFFE" d="M56.4770507,46.1598456 C59.3563127,45.4788993 62.6896542,45.7441676 65.0388142,47.6728317 C66.9708784,49.37383 67.6146715,52.1345339 67.3112669,54.5930508 C66.9708784,57.3913571 65.9476583,60.1896634 64.1669539,62.4205145 C61.7047878,65.5975801 57.6516307,67.5262442 53.6361424,67.3744671 C51.4390272,67.3744671 49.0898673,66.845298 47.5365452,65.2188209 C46.4379876,64.0845941 45.9078856,62.5340056 45.8318632,60.9841008 C45.5668122,54.4795597 49.8857051,47.6728317 56.4770507,46.1598456"/>
    <path stroke="#FFFFFE" stroke-width=".094" d="M56.4770507,46.1598456 C59.3563127,45.4788993 62.6896542,45.7441676 65.0388142,47.6728317 C66.9708784,49.37383 67.6146715,52.1345339 67.3112669,54.5930508 C66.9708784,57.3913571 65.9476583,60.1896634 64.1669539,62.4205145 C61.7047878,65.5975801 57.6516307,67.5262442 53.6361424,67.3744671 C51.4390272,67.3744671 49.0898673,66.845298 47.5365452,65.2188209 C46.4379876,64.0845941 45.9078856,62.5340056 45.8318632,60.9841008 C45.5668122,54.4795597 49.8857051,47.6728317 56.4770507,46.1598456 Z"/>
    <path fill="#FFFFFE" d="M210.223634,46.1392827 C212.911858,45.542955 216.011213,45.6923735 218.28898,47.3676101 C220.081354,48.6706468 220.977878,50.8668289 221.014333,53.0259929 C221.089944,58.5733213 217.840718,64.2687221 212.575661,66.3915411 C209.625501,67.5821774 206.189949,67.7679409 203.203334,66.5773046 C201.149699,65.7952134 199.692847,63.7477767 199.506521,61.5515946 C198.908388,54.8129568 203.38966,47.6280828 210.223634,46.1392827"/>
    <path stroke="#FFFFFE" stroke-width=".094" d="M210.223634,46.1392827 C212.911858,45.542955 216.011213,45.6923735 218.28898,47.3676101 C220.081354,48.6706468 220.977878,50.8668289 221.014333,53.0259929 C221.089944,58.5733213 217.840718,64.2687221 212.575661,66.3915411 C209.625501,67.5821774 206.189949,67.7679409 203.203334,66.5773046 C201.149699,65.7952134 199.692847,63.7477767 199.506521,61.5515946 C198.908388,54.8129568 203.38966,47.6280828 210.223634,46.1392827 Z"/>
    <path fill="#253F85" d="M171.601562,63.0073247 C173.710241,61.7120435 175.442515,59.9216496 177.325215,58.3984375 C181.95505,63.5403112 186.661119,68.6064374 191.367188,73.671875 C188.091862,73.595439 184.7791,73.7104373 181.503093,73.6340013 C180.637977,73.1003262 180.073031,72.3008464 179.357659,71.6156764 C176.646599,68.8343683 174.011091,66.0158751 171.601562,63.0073247"/>
    <path stroke="#253F85" stroke-width=".094" d="M171.601562,63.0073247 C173.710241,61.7120435 175.442515,59.9216496 177.325215,58.3984375 C181.95505,63.5403112 186.661119,68.6064374 191.367188,73.671875 C188.091862,73.595439 184.7791,73.7104373 181.503093,73.6340013 C180.637977,73.1003262 180.073031,72.3008464 179.357659,71.6156764 C176.646599,68.8343683 174.011091,66.0158751 171.601562,63.0073247 Z"/>
  </g>
</svg>
