<svg xmlns="http://www.w3.org/2000/svg" width="129" height="95" viewBox="0 0 129 95">
  <path fill="#FF595A" fill-rule="evenodd" d="M109.370019,67.903951 C109.853962,68.045564 110.321844,68.1402394 110.688133,68.1402394 C116.398183,68.1402394 116.398183,57.3298872 116.398183,57.3298872 C116.398183,57.3298872 128.837542,66.6076882 128.837542,73.056869 C128.837542,76.0919478 124.817776,79.0202752 121.776524,79.9624201 C126.67875,86.5866545 128.760263,92.3606263 128.80733,92.4976885 L124.348523,95 C124.202392,94.8221801 109.269681,76.8990304 83.8356665,76.8990304 C58.390692,76.8990304 44.3950427,92.9761525 44.2543921,93.1374737 L39.8248111,90.614997 C39.8775402,90.4581311 42.7051385,82.3963517 50.0027058,74.6209886 C49.2373491,74.6909918 48.4812919,74.7289939 47.7417499,74.7289939 C19.544042,74.7289939 14.3344894,54.1477112 14.0878942,38.820366 C13.7846734,19.8504618 4.93099129,18.2830799 -0.000913315668,20.3344254 C7.32205171,-7.88578184 53.3367217,-7.65296605 53.3367217,29.3152487 C53.3367217,44.8097517 38.6179544,71.4115507 61.7619684,65.5432844 C67.6511357,62.3983362 74.9305959,60.2572842 83.8356665,60.2572842 C94.4452143,60.2572842 102.84468,63.4879213 109.370019,67.903951 Z"/>
</svg>
