<svg xmlns="http://www.w3.org/2000/svg" viewBox="0 0 108 27">
  <path fill="#213C6D" fill-rule="evenodd" d="M67.8345847,23.877965 C67.8435548,24.2208887 67.8309967,24.5646986 67.8381728,24.9076223 C67.8309967,25.1964934 68.0507641,25.4685285 68.3297342,25.5429616 C68.4741528,24.9962331 68.1700664,24.4433018 68.3602326,23.9018899 C68.5521927,23.9630314 68.7324917,24.0516421 68.9092027,24.1482279 C69.03299,23.7432766 68.7943854,23.3675669 68.5010631,23.1070512 C68.2490033,23.3374392 68.0570432,23.6209937 67.8345847,23.877965 M83.4990698,22.8881826 C83.6856478,23.0290737 83.8623588,23.2000925 84.0964784,23.2603479 C84.2337209,23.3144004 84.4319601,23.3268059 84.4795017,23.4951664 C84.5387043,23.7131489 84.5781728,23.9364481 84.6642857,24.1464557 C84.9979734,23.9568286 84.9504319,23.5137747 84.7423256,23.2479423 C84.6077741,23.1983203 84.4113289,23.2603479 84.3377741,23.1114817 C84.2184718,22.9466657 84.0955814,22.7251387 83.8641528,22.7180499 C83.7367774,22.7650136 83.6183721,22.8288133 83.4990698,22.8881826 M71.2719269,23.1655343 C70.9436213,23.8735345 70.92299,24.6701454 70.9050498,25.4357425 C71.0772757,25.0467412 71.3185714,24.6967286 71.5598671,24.3484883 C71.7141528,24.1331641 71.7123588,23.8150513 71.9491694,23.6617547 C72.2003322,23.6183354 72.3949834,23.8044181 72.5815615,23.9382203 C72.5331229,24.3502605 72.3976744,24.7463507 72.3312957,25.1557325 C72.6954817,24.7552117 73.168206,24.3857048 73.257907,23.820368 C73.2462458,23.4030112 72.8677076,23.1274317 72.5268439,22.9528684 C72.6210299,22.8110912 72.7134219,22.6684278 72.8040199,22.5239923 C72.2236545,22.3866455 71.55,22.6258947 71.2719269,23.1655343 M69.8178738,22.3290485 C69.5514618,22.7251387 69.1854817,23.0964179 69.1289701,23.58998 C69.030299,24.2359526 68.9728904,24.913825 69.1711296,25.5482782 C69.4088372,25.4605536 69.6169435,25.316118 69.8017276,25.1459853 C69.7236877,24.8588864 69.6160465,24.5717874 69.6295017,24.2696247 C69.6277076,23.9878424 69.7694352,23.7361878 69.8878405,23.4898498 C70.2349834,23.532383 70.4619269,23.8239124 70.5695681,24.1296196 C70.6583721,23.8354318 70.831495,23.5057997 70.7032226,23.2009786 C70.6278738,22.9927433 70.375814,22.9883128 70.2358804,22.8518522 C70.2152492,22.6622251 70.3058472,22.4903202 70.3856811,22.3255041 C70.195515,22.3290485 70.0062458,22.3299346 69.8178738,22.3290485 M97.5372757,22.111066 C97.7238538,22.5142451 98.0709967,22.8146356 98.2584718,23.2160425 C98.3158804,23.0955318 98.3768771,22.9767934 98.4405648,22.8580549 C98.2279734,22.6755167 98.284485,22.4008233 98.279103,22.1562575 C98.2154153,21.9267556 97.9929568,21.7867506 97.8395681,21.6192762 C97.7337209,21.7805478 97.6332558,21.9444778 97.5372757,22.111066 M83.7726578,21.6290234 C83.4452492,21.667126 83.3286379,22.0065053 83.1653821,22.2386655 C83.5735216,22.1890435 83.9987043,22.2333489 84.3799336,22.0499246 C84.600598,22.2927181 84.8284385,22.5293089 85.0087375,22.8057745 C85.1352159,23.0547708 85.4751827,22.8678021 85.6330565,23.0742652 C85.8788372,23.3613641 85.8268106,23.7725182 85.8483389,24.1234169 C85.9739203,24.0596171 86.1003987,23.9958173 86.2277741,23.9329037 C86.2268771,23.7317572 86.2842857,23.516433 86.1820266,23.3303504 C86.0842525,23.0175543 85.7433887,22.9138797 85.5056811,22.7304554 C85.5433555,22.6728584 85.6178073,22.5585505 85.6554817,22.5009535 C85.5370764,22.3352513 85.4052159,22.1775241 85.2778405,22.0197969 C85.5505316,22.0729634 85.9048505,22.0029609 86.0977076,22.2510711 C86.2250831,22.3715817 86.2780066,22.5434866 86.3470764,22.7003277 C86.8422259,22.7986857 86.9947176,23.3294643 87.1140199,23.7459349 C87.1965449,23.4544055 87.2952159,23.1673065 87.4100332,22.8864104 C87.2736877,22.8110912 87.1319601,22.7472914 86.9884385,22.6905805 C86.9480731,22.4504453 86.8888704,22.1837269 86.6574419,22.0516968 C86.3174751,21.8629558 85.9425249,21.7433313 85.5801329,21.6042123 C84.9970764,21.371166 84.3682724,21.5554764 83.7726578,21.6290234 M94.1044186,21.905489 C94.3143189,21.8097894 94.4937209,21.6307956 94.7278405,21.5935791 C95.0615282,21.5731986 95.0965116,21.9985303 95.1889037,22.2324628 C95.5324585,22.2209434 95.8643522,22.3272763 96.1549834,22.5044979 C96.211495,22.4194315 96.2680066,22.3352513 96.3263123,22.2510711 C96.1253821,21.9329583 95.7360797,21.7708006 95.3656146,21.7885228 C95.3853488,21.642315 95.4059801,21.4961072 95.4275083,21.3490133 C95.221196,21.3286328 95.0561462,21.2063499 94.8928904,21.0955865 C94.6417276,21.3773687 94.3663455,21.6352261 94.1044186,21.905489 M72.7609635,21.0326728 C72.6470432,21.2116666 72.5654153,21.4092686 72.5492691,21.6228206 C72.6945847,21.6166179 72.8569435,21.5430709 72.9977741,21.617504 C73.5243189,21.8930835 74.1289037,22.0632162 74.5487043,22.5036118 C74.7541196,22.8961575 74.8734219,23.3285782 75.0546179,23.7335294 C75.2340199,23.3595919 75.2941196,22.9519823 75.2080066,22.5452588 C74.9550498,22.4628508 74.699402,22.39019 74.4437542,22.3228458 C74.3253488,22.1146105 74.339701,21.8691586 74.253588,21.6538344 C73.98,21.4358519 73.6463123,21.3064801 73.3422259,21.1345752 C73.167309,21.0246978 72.9574086,21.0397617 72.7609635,21.0326728 M98.3454817,21.2630608 C98.4755482,21.4650934 98.6083056,21.6644677 98.7455482,21.8629558 C99.0397674,21.4163575 98.9904319,20.836843 98.6962126,20.4044224 C98.5320598,20.6702547 98.457608,20.9750758 98.3454817,21.2630608 M82.9617608,20.4992359 C82.8568106,20.7446878 82.7545515,20.9910257 82.6504983,21.2364776 C83.0101993,20.9387454 83.4748505,20.8350708 83.9224585,20.7429156 C83.9538538,20.7801321 84.0166445,20.8554512 84.0480399,20.8926678 C84.6337874,20.8953261 85.2204319,20.7438017 85.8034884,20.8731734 C85.9900664,21.1833111 86.3497674,21.2772386 86.6601329,21.4199019 C86.6403987,21.2338193 86.6206645,21.0486227 86.6009302,20.8634262 C85.9066445,20.2227703 84.9127575,20.392903 84.0552159,20.2759367 C83.6802658,20.294545 83.3277409,20.4310056 82.9617608,20.4992359 M87.3714618,20.0978291 C87.5535548,20.8164625 87.9599003,21.5218043 87.8029236,22.2856293 C87.9392691,22.4327232 88.0594684,22.5931087 88.1769767,22.7561525 C88.1769767,22.1394215 88.1805648,21.5156016 88.0854817,20.9059594 C87.9186379,20.5851884 87.6127575,20.360117 87.3714618,20.0978291 M95.1826246,20.0499792 C95.1054817,20.2768228 95.0005316,20.5098692 95.0812625,20.7517766 C95.4750498,20.7039268 95.9746844,20.4292334 96.2949169,20.7889932 C96.4204983,21.0805226 96.4985382,21.4473713 96.8564452,21.5412987 C96.9183389,21.3295189 96.9721595,21.1150808 97.0277741,20.9015289 C96.929103,20.7092435 96.8447841,20.5107553 96.7317608,20.327331 C96.2680066,20.0552959 95.7163455,19.9374436 95.1826246,20.0499792 M72.9556146,20.4522722 C73.2426578,20.4123973 73.530598,20.2564424 73.8248173,20.3211282 C74.2060465,20.58253 74.5379402,20.9325426 74.9828571,21.0973587 C75.2600332,21.1974889 75.5434884,21.2985052 75.778505,21.4837017 C75.7444186,21.5377543 75.6771429,21.6458594 75.6430565,21.6990259 C75.7892691,21.9480222 75.7856811,22.24221 75.8484718,22.5160173 C76.0090365,22.3636067 76.1669103,22.2076518 76.323887,22.0516968 C76.2745515,21.8461198 76.2637874,21.626365 76.1740864,21.4331935 C76.0619601,21.3552161 75.9220266,21.3348356 75.8099003,21.2604025 C75.7210963,21.1629307 75.7166113,21.0255839 75.6816279,20.9077316 C75.2627243,20.6649381 74.9155814,20.327331 74.517309,20.056182 C74.1800332,19.85858 73.8059801,19.6317364 73.3951495,19.7238916 C73.1161794,19.8559216 73.0668439,20.1997315 72.9556146,20.4522722 M78.4695349,19.2719766 C78.5996013,19.4651481 78.7431229,19.6494585 78.8848505,19.8355412 C79.1709967,19.900227 79.46701,19.8621244 79.7154817,19.702625 C79.6419269,19.5581894 79.5710631,19.4146399 79.5001993,19.2702044 C79.1557475,19.2710905 78.8121927,19.2693183 78.4695349,19.2719766 M84.2642193,19.1860241 C84.0767442,19.3189403 83.7986711,19.2648877 83.6497674,19.4589453 C83.5152159,19.5732532 83.4820266,19.7504748 83.4407641,19.9099742 C83.7394684,19.8240217 84.0247176,19.6849028 84.2471761,19.4651481 C84.5620266,19.4474259 84.8284385,19.6326225 85.1253488,19.702625 C85.2590033,19.6884473 85.3729236,19.6060392 85.4931229,19.5502144 C85.6707309,19.6822445 85.8196346,19.8488328 86.0053156,19.9702295 C86.1694684,20.0304849 86.3479734,20.0216238 86.5210963,20.0375737 C86.2851827,19.637053 86.040299,19.0814634 85.4949169,19.0655135 C85.2554153,19.0681718 85.051794,18.95475 84.8553488,18.8377838 C84.6185382,18.8785447 84.4561794,19.0637412 84.2642193,19.1860241 M80.7353821,18.8475309 C80.7622924,18.9972832 80.7909967,19.1461493 80.823289,19.2959015 C81.0843189,19.4252732 81.3390698,19.5812282 81.634186,19.6237614 C81.5265449,19.3605874 81.4063455,19.10273 81.2789701,18.848417 C81.0977741,18.848417 80.9156811,18.848417 80.7353821,18.8475309 M74.0472757,18.5338488 C73.8535216,18.749173 73.615814,18.9476611 73.5252159,19.2294434 C73.8284053,19.0965272 74.1674751,18.9972832 74.5011628,19.0734884 C74.7074751,19.1301993 74.9209635,19.1567826 75.1326578,19.1922269 C75.3174419,19.3916011 75.4295681,19.653889 75.6502326,19.8231356 C75.8152824,19.9303547 76.0269767,19.9542796 76.1758804,20.0898541 C76.4037209,20.2830256 76.5382724,20.5550607 76.6441196,20.8270958 C76.6557807,20.4992359 76.684485,20.171376 76.6997342,19.8435161 C76.5113621,19.7788303 76.3247841,19.7132583 76.138206,19.6485724 C76.137309,19.5865449 76.136412,19.4616037 76.136412,19.3995761 C75.8897342,19.168302 75.5748837,19.0327275 75.3219269,18.8120866 C74.9963123,18.4797962 74.4724585,18.5391654 74.0472757,18.5338488 M95.313588,19.4943896 C95.49299,19.3508402 95.6652159,19.1984296 95.8374419,19.0442469 C96.0733555,19.0566524 96.3370764,19.0424747 96.5335216,19.1993157 C96.8627243,19.4040066 96.8474751,19.8869354 97.2053821,20.0597264 C97.2152492,19.7105999 97.2089701,19.3614735 97.2134551,19.0132331 C96.9174419,18.9379139 96.6268106,18.831581 96.3666777,18.6729677 C96.1747176,18.5427099 95.9639203,18.3849827 95.7154485,18.4381491 C95.3422924,18.6517011 95.3656146,19.1284271 95.313588,19.4943896 M90.6168439,18.5214433 C90.4643522,18.7465146 90.7424252,18.921964 90.7765116,19.1372882 C90.7926578,19.4075511 90.7397342,19.6760417 90.7056478,19.9436463 C90.8698007,20.0039016 91.1093023,19.957824 91.2169435,20.1208679 C91.2869103,20.384928 91.2348837,20.6605075 91.2303987,20.9298843 C91.4169767,20.6516464 91.6564784,20.3840419 91.7040199,20.0411182 C91.6071429,19.9055437 91.4062126,19.9170631 91.264485,19.8523772 C91.3039535,19.6503446 91.3945515,19.4465398 91.346113,19.2391906 C91.2375748,18.8262644 91.2913953,18.3973882 91.2187375,17.9809175 C91.0276744,18.1696585 90.7487043,18.2821942 90.6168439,18.5214433 M88.9977409,18.5178988 C88.9618605,18.8218338 89.3269435,18.9237362 89.4830233,19.1301993 C89.4534219,19.193113 89.3942193,19.3189403 89.365515,19.381854 C89.6112957,19.6671807 89.7108638,20.031371 89.7350831,20.3999918 C89.7664784,19.99061 90.0732558,19.6432558 90.0328904,19.2285573 C89.9019269,19.1151355 89.7431561,19.0389302 89.5987375,18.946775 C89.7234219,18.5808125 89.7144518,18.1670001 89.4964784,17.8364819 C89.2874751,18.026109 89.0695017,18.2378888 88.9977409,18.5178988 M95.1512292,17.4368473 C95.2391362,17.6184994 95.3306312,17.8001515 95.4310963,17.976487 C95.8724252,17.8604068 96.3792359,17.6211577 96.8142857,17.8728123 C96.8725914,17.9844619 96.8851495,18.1129476 96.9201329,18.2334582 C97.1282392,18.3486522 97.3560797,18.4221992 97.5901993,18.4709351 C97.6099336,18.018134 97.2484385,17.722174 97.0887708,17.3340588 C96.4662458,17.1187346 95.7665781,17.2392453 95.1512292,17.4368473 M92.6898339,17.3048172 C92.8414286,17.7310351 93.0549169,18.1324419 93.243289,18.5427099 C93.3796346,18.1351003 93.4011628,17.6503993 93.0782392,17.318995 C92.9481728,17.2995006 92.8181063,17.3057033 92.6898339,17.3048172 M78.8032226,17.2250675 C78.5807641,17.6876158 78.2533555,18.0952254 77.8739203,18.4416936 C78.2757807,18.2556109 78.8103987,18.2547248 79.0759136,17.8586346 C79.288505,17.6016634 79.4912292,17.3287421 79.5881063,17.0053128 C79.3073422,16.99911 79.0409302,17.0832903 78.8032226,17.2250675 M76.4342193,17.4421639 C76.7903322,17.4935582 77.1634884,17.4873554 77.5079402,17.3721614 C77.8999336,17.1984843 78.0892027,16.7917608 78.2712957,16.4337733 C78.0963787,16.4337733 77.9232558,16.4346594 77.7510299,16.4337733 C77.3769767,16.8484717 76.945515,17.2055732 76.4342193,17.4421639 M80.3990033,16.3885818 C80.7569103,16.8484717 81.091495,17.3331727 81.542691,17.7115407 C81.8324252,17.672552 82.1122924,17.5812829 82.3724252,17.4501389 C82.1104983,17.1488623 81.8324252,16.8555606 81.5238538,16.6003615 C81.1533887,16.5108646 80.7730565,16.4612426 80.3990033,16.3885818 M89.7745515,16.9131576 C89.8122259,17.2312703 90.0266113,17.4846971 90.2239535,17.7230601 C90.362093,17.6016634 90.5029236,17.4678611 90.5477741,17.2826645 C90.5118937,17.0965819 90.363887,16.966324 90.2463787,16.8280912 C90.2365116,16.6942889 90.2284385,16.5604867 90.2212625,16.4275705 C90.1486047,16.3602263 90.0759468,16.2928821 90.0050831,16.226424 C89.8956478,16.4417482 89.7754485,16.6650474 89.7745515,16.9131576 M82.6343522,16.349593 C83.0380066,16.653528 83.4703654,16.9512602 83.9780731,17.0513904 C84.2696013,17.1151902 84.5629236,17.0274655 84.8490698,16.974299 C84.5943189,16.8298634 84.3252159,16.7102389 84.0776412,16.5560561 C83.9933223,16.432001 83.9305316,16.2955404 83.8632558,16.1635104 C83.4461462,16.1635104 83.0353156,16.2432601 82.6343522,16.349593 M76.0996346,16.2113602 C75.779402,16.6801112 75.4313621,17.1559511 74.9110963,17.426214 C75.2187708,17.4359612 75.5381063,17.4935582 75.8377076,17.393428 C75.9399668,17.3579837 76.0673422,17.31102 76.0790033,17.1843066 C76.1722924,16.8688522 76.2359801,16.5463089 76.3346512,16.2335129 C76.2763455,16.2273101 76.1588372,16.2166768 76.0996346,16.2113602 M94.8193355,16.0837607 C94.8292027,16.3194653 94.767309,16.5755505 94.8507309,16.7997358 C95.1512292,16.9104993 95.488505,16.85113 95.763887,16.7004917 C95.8069435,16.5578283 95.847309,16.4142789 95.8903654,16.2716155 C96.0634884,16.299971 96.2366113,16.3336431 96.4106312,16.3673152 C96.5810631,16.1555354 97.0510963,15.9942638 97.0986379,16.3885818 C97.2269103,16.8803716 97.830598,16.8794855 98.2423256,16.9335381 C98.1750498,16.6721363 98.0808638,16.4187094 97.9974419,16.1635104 C97.7597342,15.9827444 97.5076744,15.7833701 97.1892359,15.8090672 C96.7846844,16.1892075 96.2626246,15.6336179 95.8186047,15.880842 C95.5064452,16.0297081 95.1646844,16.0979384 94.8193355,16.0837607 M90.2418937,15.4599408 C90.5136877,15.6336179 90.8410963,15.7886868 90.9568106,16.1121161 C91.166711,16.6118809 91.5012957,17.0531626 91.6600664,17.574194 C91.8269103,18.1147198 92.074485,18.6419539 92.0906312,19.2161518 C92.0852492,19.3251431 92.2036545,19.3721068 92.2682392,19.4403371 C92.2700332,18.9777888 92.336412,18.5187849 92.3462791,18.0571228 C92.2987375,17.8116709 92.0341196,17.7124268 91.8475415,17.5857134 C91.9695349,17.4102641 92.1049834,17.2445619 92.249402,17.0859486 C92.0099003,16.8458134 91.9022591,16.522384 91.7443854,16.2326268 C91.4528571,16.1971825 91.2447508,15.9818583 91.17299,15.7089371 C90.9092691,15.4971573 90.5728904,15.4333575 90.2418937,15.4599408 M74.789103,15.4563963 C74.7379734,15.8347644 74.6052159,16.1971825 74.5531894,16.5755505 C74.971196,16.2946543 75.3228239,15.8498282 75.333588,15.3314551 C75.1434219,15.3287968 74.9604319,15.3810772 74.789103,15.4563963 M89.0237542,15.22335 C89.012093,15.4342436 88.9672425,15.6495678 89.009402,15.8604615 C89.0748837,16.012872 89.1843189,16.1404716 89.281196,16.27516 C89.3843522,16.144016 89.5368439,16.0305942 89.5610631,15.8542587 C89.456113,15.5972875 89.282093,15.346519 89.0237542,15.22335 M84.2579402,15.4351297 C84.7225914,15.9154002 85.3666445,16.2441462 86.0519601,16.2246518 C85.6617608,15.9322362 85.3469103,15.5600709 85.050897,15.1781585 C84.777309,15.2348694 84.507309,15.3101885 84.2579402,15.4351297 M79.2400664,14.9628343 C79.2840199,15.1781585 79.3145183,15.3987993 79.384485,15.6088069 C79.8590033,15.4227242 79.918206,14.8166265 79.9325581,14.377117 C79.7181728,14.590669 79.4894352,14.7900433 79.2400664,14.9628343 M91.1559468,14.3629393 C91.6421262,14.9229594 92.0466777,15.5910847 92.703289,15.9747694 C92.7068771,15.7984339 92.7095681,15.6220985 92.7140532,15.445763 C92.5588704,15.2844914 92.4072757,15.1125865 92.2036545,15.0106841 C91.8170432,14.8467542 91.5972757,14.4214224 91.1559468,14.3629393 M86.0053156,14.7023186 C86.5094352,15.0106841 87.1821927,15.3261385 87.7571761,15.0222035 C87.3248173,14.8999206 86.9687043,14.6252272 86.6152824,14.3638254 C86.4170432,14.4861083 86.222392,14.6145939 86.0053156,14.7023186 M80.6654153,15.0062536 C80.911196,15.1622085 81.179402,15.2774026 81.453887,15.3775327 C81.2879402,15.0044813 81.2197674,14.6021884 81.1417276,14.2052121 C80.8815947,14.3886364 80.5882724,14.656241 80.6654153,15.0062536 M77.6326246,14.2424286 C77.7268106,14.7297879 78.0856146,15.1019532 78.4390365,15.428927 C78.386113,15.0735978 78.302691,14.7226991 78.2668106,14.3647115 C78.0631894,14.2876201 77.849701,14.2397703 77.6326246,14.2424286 M95.130598,14.4223085 C94.9404319,14.5720607 94.77,14.7519406 94.5367774,14.8387792 C94.5717608,15.026634 94.6121262,15.2136028 94.6551827,15.4005715 C95.0767774,15.1152448 95.5432226,14.8556152 96.0607973,14.8006765 C96.753289,14.7918155 97.4197674,15.0399257 98.0333223,15.3376579 C97.9131229,15.0408118 97.8072757,14.7173824 97.561495,14.4958555 C97.3040532,14.2566064 97.0116279,14.5667441 96.7192027,14.5445914 C96.6375748,14.4090169 96.5819601,14.1192596 96.3630897,14.1998955 C95.9719934,14.3647115 95.5387375,14.3345838 95.130598,14.4223085 M73.8319934,14.1848316 C73.6983389,14.3133173 73.5790365,14.4550945 73.4992027,14.6216828 C73.5521262,14.7829544 73.5978738,14.9468843 73.6337542,15.1134726 C73.8544186,14.7935877 74.1647841,14.5534525 74.4742525,14.3221783 C74.2589701,14.2761007 74.0445847,14.2335675 73.8319934,14.1848316 M87.4342525,13.9048215 C87.7778073,14.1352096 88.2397674,14.2025538 88.6030565,13.973938 C88.380598,13.8782383 88.1644186,13.7710193 87.9616944,13.6407614 C87.7840864,13.7267139 87.6073754,13.8144386 87.4342525,13.9048215 M82.3177076,15.0142285 C82.4998007,15.3447467 82.9303654,15.2428443 83.2209967,15.1311948 C82.984186,14.9256178 82.623588,14.7802961 82.5643854,14.4391446 C82.4890365,14.0758404 82.4127907,13.7125362 82.3132226,13.3545486 C82.0432226,13.867605 81.9598007,14.5206665 82.3177076,15.0142285 M95.0480731,13.258849 C94.6883721,13.423665 94.3914618,13.7887414 94.5448505,14.1981232 C94.7287375,14.040396 94.9036545,13.8481106 95.1521262,13.7940581 C95.5584718,13.6593697 95.9818605,13.7967164 96.3953821,13.8064636 C96.2473754,13.2659378 95.5342525,12.914153 95.0480731,13.258849 M76.3597674,13.0009916 C76.4530565,13.4413872 76.6342525,13.8560856 76.8432558,14.253948 C76.9186047,13.9730519 76.9885714,13.6903835 77.0576412,13.4077151 C76.8306977,13.2632795 76.5974751,13.1259328 76.3597674,13.0009916 M82.887309,12.8246561 C82.9527907,13.1480855 83.0254485,13.4706287 83.1043854,13.7922859 C83.428206,13.9571019 83.7116611,14.2052121 84.0803322,14.2761007 C83.9287375,14.0855875 83.7618937,13.9092521 83.6022259,13.7267139 C83.6165781,13.4980981 83.6049169,13.2659378 83.4658804,13.0736524 C83.2730233,12.9894722 83.0792691,12.9044058 82.887309,12.8246561 M84.69299,13.2172019 C84.9737542,13.5335424 85.4168771,13.4112595 85.7828571,13.3678402 C85.5541196,13.1746687 85.3271761,12.979725 85.1118937,12.7732619 C84.9764452,12.9247863 84.8356146,13.0727663 84.69299,13.2172019 M74.7756478,12.7431342 C74.794485,12.8822531 74.8142193,13.0213721 74.8483056,13.1578327 C74.968505,13.8091219 75.5560465,14.2477453 76.1265449,14.5153498 C76.0691362,13.9030493 75.5363123,13.5255674 75.2618272,13.0169415 C75.1586711,12.848581 74.9478738,12.806934 74.7756478,12.7431342 M85.8250166,11.9793093 C85.8662791,12.0883005 85.9102326,12.1972918 85.9550831,12.3071692 C86.3273422,12.2859026 86.6888372,12.347044 87.0494352,12.4303381 C86.8664452,12.2965359 86.7013953,12.1441253 86.5641528,11.9660177 C86.3686047,11.7356296 86.0627243,11.943865 85.8250166,11.9793093 M94.3412292,12.7209815 C94.5466445,12.5995847 94.7610299,12.4861629 94.9978405,12.4338826 C95.4983721,12.2699526 95.9693023,12.5986986 96.4294684,12.7457925 C96.3469435,12.52781 96.30299,12.264636 96.1092359,12.1122254 C95.9226578,12.0688062 95.7298007,12.0705784 95.5441196,12.034248 C95.397907,11.9917148 95.3674086,11.8260126 95.2983389,11.714363 C94.7332226,11.5761302 94.2156478,12.1937474 94.3412292,12.7209815 M77.2783056,11.2066233 C77.3339203,11.5841052 77.3518605,12.0085508 77.6299336,12.3045108 C77.7662791,12.166278 77.9080066,12.0307035 78.0748505,11.927915 C78.0865116,12.2017223 78.0838206,12.4755296 78.0766445,12.749337 C78.2596346,12.856556 78.4578738,12.9327613 78.6659801,12.9788389 C78.752093,12.7245259 78.9368771,12.5021129 78.9458472,12.2247611 C79.0301661,12.1769113 79.1171761,12.1326059 79.2068771,12.091845 C79.2382724,12.3807161 79.2795349,12.667815 79.3010631,12.9575723 C79.5280066,13.0435248 79.7684053,12.9894722 79.9863787,12.9017475 C80.0428904,12.577432 80.1281063,12.2593193 80.2088372,11.9403205 C80.369402,12.1246309 80.5057475,12.3319802 80.54701,12.5783182 C80.9282392,12.2504583 81.0592027,11.755124 81.1650498,11.2872591 C80.6707973,11.122443 80.188206,10.9080049 79.6661462,10.8468635 C78.8588372,10.711289 78.0030897,10.8220525 77.2783056,11.2066233 M85.6716279,9.35465792 C85.6617608,9.61871805 85.6500997,9.88986704 85.7137874,10.1494966 C85.8384718,10.5021675 86.1730565,10.744075 86.5489037,10.7742026 C86.4529236,10.4525455 86.3147841,10.1450661 86.1838206,9.83670057 C86.1228239,9.84113111 86.0017276,9.84999219 85.9407309,9.85442273 C85.8483389,9.68872057 85.7631229,9.51947397 85.6716279,9.35465792 M84.6759468,6.71228442 C84.5772757,7.21116312 84.4337542,7.69940852 84.3458472,8.20005944 C84.5180731,8.15752626 84.693887,8.11499309 84.869701,8.07334602 C84.9306977,7.83143859 85.0060465,7.59041726 85.0123256,7.33876264 C84.9522259,7.1074885 84.7961462,6.91520311 84.6759468,6.71228442 M73.5548173,6.46151591 C73.4184718,6.74950095 73.264186,7.04014431 73.2220266,7.35737091 C73.2875083,7.72510565 73.4615282,8.06537105 73.5180399,8.43665022 C73.5790365,7.89435224 73.7799668,7.37154863 73.7674086,6.82216179 C73.7279402,6.58822932 73.9450166,6.44024932 74.073289,6.27631937 C73.9010631,6.34100524 73.7279402,6.40303279 73.5548173,6.46151591 M99.0263123,5.01007131 C99.2909302,5.17045682 99.4945515,5.40261707 99.6865116,5.64009396 C99.9304983,5.68439935 100.16103,5.79339061 100.285714,6.01757589 C100.30186,5.53996378 99.9242193,5.21210389 99.718804,4.81867202 C99.4828904,4.86652184 99.2532558,4.93563825 99.0263123,5.01007131 M73.4983056,5.37160329 C73.6579734,5.32020904 73.8194352,5.26704257 73.98,5.2138761 C73.978206,4.94627154 73.979103,4.67866698 73.978206,4.41017632 C73.7611296,4.69816136 73.5395681,5.00386855 73.4983056,5.37160329 M96.4196013,4.42967069 C96.658206,4.62018387 96.9542193,4.59714506 97.2260133,4.49612877 C97.5112625,4.64145045 97.8404651,4.57410626 98.1490365,4.57765069 C97.9086379,4.37207368 97.6431229,4.18244661 97.3426246,4.07788588 C97.0394352,4.20814373 96.751495,4.38004865 96.4196013,4.42967069 M74.8509967,2.23566774 C74.6599336,2.55821098 74.4572093,2.87455147 74.2804983,3.20506969 C74.3791694,3.57369054 74.52,3.93345031 74.7083721,4.26662685 C74.9299336,4.60955057 75.2959136,4.82133034 75.6421595,5.02424903 C75.3533223,5.61351073 75.506711,6.28429434 75.6403654,6.8921643 C75.5416944,6.94267245 75.4430233,6.99318059 75.3452492,7.04368874 C75.4744186,7.63915319 75.8619269,8.13803189 76.2960797,8.55361646 C76.4584385,8.70691311 76.4162791,8.94616222 76.4333223,9.14553648 C75.4869767,9.02679803 74.5576744,9.34756906 73.7288372,9.77112859 C73.7458804,9.92885578 73.7638206,10.086583 73.7817608,10.2443102 C74.5002658,9.68783446 75.4600664,9.42200211 76.3624585,9.53631002 C76.3588704,9.71973434 76.3570764,9.90315866 76.3543854,10.086583 C75.6251163,10.4614066 74.8258804,10.7325556 74.2024585,11.2801702 C74.2042525,11.4272641 74.2051495,11.574358 74.2096346,11.7214519 C74.9559468,11.2039649 75.7022591,10.6660975 76.5508306,10.3205154 C76.7078073,10.5243202 76.8710631,10.7245806 77.0675083,10.8938272 C77.7232226,10.5748284 78.4076412,10.2602601 79.1539535,10.242538 C79.1665116,10.0218971 79.1844518,9.80125626 79.2059801,9.58061541 C78.8713953,9.42377433 78.6076744,9.10388941 78.6937874,8.71666029 C78.5475748,8.7848906 78.3986711,8.84337371 78.2443854,8.8876791 C78.0909967,8.73792688 78.0362791,8.54121095 78.026412,8.33474783 C78.4982392,7.98827967 79.111794,8.06271273 79.6634551,8.06980159 C79.9971429,8.09904315 80.3954153,8.08486542 80.638505,8.35512831 C80.7030897,8.52526101 80.6681063,8.71488808 80.5739203,8.86729862 C80.4402658,8.8646403 80.3084053,8.86198198 80.1774419,8.86109587 C80.0375083,9.1818669 79.7953156,9.45124367 79.4616279,9.58150152 C79.5423588,9.85619494 79.5504319,10.3045655 79.9137209,10.349757 C80.4680731,10.4525455 80.9587375,10.7493916 81.4054485,11.0781376 C81.5534551,10.8823078 81.715814,10.6979974 81.8889369,10.5243202 C82.8586047,10.7954692 83.6255482,11.4768861 84.3189369,12.1671641 C84.3189369,11.9633593 84.3171429,11.7595545 84.3144518,11.5557497 C83.8309635,11.1525707 83.2990365,10.8078747 82.7294352,10.5340674 C82.4773754,10.399379 82.2010963,10.3036794 81.9678738,10.1388633 C81.9831229,9.96607231 82.0064452,9.79328129 82.0243854,9.62049027 C83.0424917,9.67454284 84.0103654,10.0396193 84.8939203,10.5234341 C84.8607309,10.3701375 84.9315947,10.1778521 84.8266445,10.0475942 C84.2077076,9.74011482 83.5546844,9.48314355 82.8693688,9.36794954 C82.5383721,9.31035253 82.1993023,9.31478307 81.8700997,9.24921109 C82.0602658,9.08793947 82.3078405,9.00287312 82.4827575,8.82210712 C82.6513953,8.65640496 82.7698007,8.45082795 82.8729568,8.24170651 C82.9922591,7.9803047 83.2218937,7.7871332 83.337608,7.52307307 C83.4613953,7.25724072 83.433588,6.95507796 83.4954817,6.67418178 C83.3734884,6.78140083 83.2227907,6.84785891 83.07299,6.90191149 C83.3044186,6.36404405 83.4219269,5.75617409 83.251495,5.18374844 C83.6632226,5.02159071 83.9771761,4.69284471 84.2462791,4.35612374 C84.3530233,4.04775822 84.331495,3.70749282 84.4301661,3.39381065 C84.2166777,3.0251898 84.0928904,2.60251637 83.8094352,2.2764287 C83.5277741,2.04338234 83.1286047,2.08591552 82.8056811,1.93970773 C82.2952824,1.75805563 81.8826578,2.22592055 81.4825914,2.46073912 C81.3336877,2.67872165 81.2852492,2.95430118 81.1740199,3.19355029 C80.5577741,3.10848394 79.923588,3.22633628 79.3853821,3.5355879 C78.927907,3.23342514 78.3618937,3.23253903 77.84701,3.12177555 C77.672093,2.81341003 77.5940532,2.33757014 77.1500332,2.31364523 C77.1042857,2.20199564 77.0621262,2.08945995 77.0226578,1.97692426 C76.684485,1.85198305 76.3346512,1.7438779 75.9731561,1.72349742 C75.5623256,1.80590545 75.243887,2.10718211 74.8509967,2.23566774 M77.6631229,1.77221564e-05 L77.8200997,1.77221564e-05 C78.3179402,0.117870061 78.7709302,0.354460848 79.2427575,0.541429597 C79.5145515,0.473199295 79.7684053,0.348258093 80.0357143,0.263191743 C79.9352492,0.685865171 79.7872425,1.0979053 79.7262458,1.52943981 C80.1325914,1.1430968 80.3344186,0.629154271 80.5263787,0.118756169 C80.9524585,0.0709063473 81.3821262,0.0735646708 81.81,0.112553415 C81.543588,0.250786234 81.4162126,0.504213069 81.4296678,0.798400863 C81.8638206,0.745234394 82.2432558,0.383702406 82.6962458,0.513074147 C82.8693688,0.545860136 82.9958472,0.677004092 83.1348837,0.77536206 C82.9142193,0.890556076 82.6935548,1.00397788 82.4782724,1.12626075 C82.8406645,1.13069129 83.2048505,1.13423572 83.5681395,1.11739968 C83.6820598,1.08904423 83.8237874,0.930430927 83.9332226,1.05448602 C84.8113953,1.65792544 85.0966445,2.72922979 85.498505,3.6490097 C85.3451163,3.56660168 85.1962126,3.48330754 85.0446179,3.40178562 C85.0724252,3.57989329 85.0383389,3.79521749 85.1845515,3.9316781 C85.3926578,4.04864433 85.6438206,4.09915247 85.8079734,4.28434901 C86.2143189,4.70790854 86.7830233,4.9985519 87.0350831,5.54882486 C87.1947508,5.90149577 87.3508306,6.256825 87.4916611,6.61747088 C87.7042525,7.16508551 87.7715282,7.75611942 87.9912957,8.30196184 C87.7221927,8.18765393 87.4468106,8.09195428 87.1732226,7.99359632 C87.301495,8.23638986 87.4037542,8.51019717 87.6235216,8.69096317 C87.7903654,8.81679048 88.0119269,8.81767659 88.2110631,8.8531209 C88.56,9.27490822 88.5725581,9.84201722 88.6380399,10.3568459 C88.4828571,10.2460824 88.3267774,10.1370911 88.1680066,10.0343026 C87.9581063,10.4764704 88.466711,10.7334417 88.7788704,10.9212965 C88.7788704,11.2677647 88.7788704,11.6142328 88.7770764,11.960701 C89.5341528,12.5295822 90.45,12.9168113 91.4080066,12.9558001 C92.2018605,12.9611167 92.9993023,12.7635147 93.6819269,12.3567912 C93.6532226,11.7489212 94.0021595,11.1738373 94.5215282,10.8645856 C94.8390698,10.7316695 95.1951827,10.7635693 95.5333555,10.7679999 C96.302093,10.8123053 96.9515282,11.2792841 97.5157475,11.7577823 C98.4253156,12.5313544 99.0819269,13.5503784 99.5860465,14.6163661 C100.635548,16.8741688 101.043688,19.4208427 100.731528,21.8868807 C100.675914,22.299807 100.588007,22.7074166 100.476777,23.1079373 C100.922591,23.3888335 101.460797,23.5846633 101.996312,23.4809887 C103.428837,23.253259 104.62186,22.2439822 105.343953,21.0353311 C106.389867,19.3056487 106.65897,17.2241814 106.510066,15.2428443 C106.26608,13.0878301 105.330498,11.0125656 103.855814,9.40427996 C103.028771,8.52526101 102.072558,7.73662505 100.954884,7.24660743 C100.167309,7.02862491 99.3716611,7.38749857 98.5760133,7.33255989 C98.1750498,7.33787653 97.8243189,7.12078012 97.4897342,6.93115305 C97.1354153,6.70165112 96.7649502,6.45885758 96.5460797,6.08935062 C96.8788704,6.25859722 97.2475415,6.31530812 97.6171096,6.34100524 C97.5695681,6.25505279 97.473588,6.08226176 97.4260465,5.9963093 C97.8117608,5.81022666 98.2432226,5.80047948 98.6639203,5.79693505 C98.458505,5.50097504 98.098804,5.45489743 97.7642193,5.46464461 C97.5130565,5.50008893 97.3094352,5.20767335 97.0699336,5.3388173 C97.0896678,5.51072222 97.1363123,5.6781966 97.1757807,5.84655708 C96.8618272,5.70655205 96.5200664,5.67731049 96.1854817,5.63389121 C95.8813953,5.32995623 95.7674751,4.89399118 95.4813289,4.57676458 C95.3369103,4.40308745 95.1413621,4.28434901 94.947608,4.17181331 C94.9377409,4.13991343 94.9162126,4.07699978 94.9063455,4.0450999 C95.8688372,3.84040899 96.7748173,3.38051903 97.7722924,3.34684694 C98.1185382,3.35216358 98.4890033,3.3424164 98.8020598,3.51432131 C98.6980066,3.62331258 98.5939535,3.73141773 98.4907973,3.83952288 C98.7957807,4.05484708 99.1402326,4.21257427 99.5160797,4.25953799 C99.4407309,4.0344666 99.3671761,3.81028132 99.2972093,3.58520994 C99.6775415,3.79876192 100.066844,4.0344666 100.326977,4.39245416 C100.993455,5.57540809 102.050133,6.48809914 103.162425,7.2545824 C104.471163,8.14069021 105.516179,9.36440511 106.322591,10.7050862 C107.302126,12.3381829 107.865449,14.2025538 108,16.094394 L108,17.3969724 C107.829568,20.0304849 106.746877,22.7260248 104.613787,24.3989964 C103.545449,25.2319377 102.167641,25.5970142 100.820332,25.5837225 C100.455249,25.6049891 100.062359,25.5101756 99.7250831,25.6865111 C99.3429568,25.8761381 98.9285382,26.0179154 98.4961794,26.006396 C96.9927907,26.0028515 95.490299,26.0072821 93.9869103,26.0037376 C94.0326578,25.6679028 94.0909635,25.332954 94.1806645,25.0059802 C94.2506312,24.7419201 94.498206,24.5921679 94.7206645,24.4619101 C94.8713621,24.7578701 95.0193688,25.0564884 95.1772425,25.3506762 C95.308206,25.1637074 95.4472425,24.9599026 95.4230233,24.7197674 C95.4257143,24.3848187 95.128804,24.16595 94.9251827,23.9373342 C95.0749834,23.7884681 95.2247841,23.6404881 95.3763787,23.4933942 C95.5342525,23.6280826 95.6392027,23.9125232 95.8903654,23.8629012 C96.0581063,23.8664456 96.1944518,23.7601127 96.3343854,23.6830213 C95.9684053,23.3392115 95.6535548,22.8350161 95.0911296,22.8208384 C94.7009302,22.8979298 94.4497674,23.2337646 94.225515,23.5297246 C93.9913953,23.8726484 93.783289,24.2448136 93.686412,24.6497649 C93.6137542,25.0963632 93.6209302,25.5518227 93.5931229,26.0028515 C93.3204319,26.0037376 93.0477409,26.0055099 92.7750498,26.0108265 C92.8324585,25.4446036 92.7284053,24.8730641 92.8450166,24.3112717 C92.9858472,24.3901353 93.1266777,24.4707711 93.2675083,24.552293 C93.3634884,24.3750715 93.4567774,24.1969638 93.5455814,24.0161978 C93.3805316,23.8593567 93.2181728,23.7007434 93.056711,23.5421301 C93.1311628,23.3400976 93.2065116,23.138065 93.2845515,22.9369185 C93.5034219,23.0060349 93.7231894,23.072493 93.9447508,23.1371789 C93.8828571,23.0281876 93.8218605,22.9191963 93.7617608,22.8110912 C93.9770432,22.6179197 94.2470432,22.8164078 94.4820598,22.8607132 C94.503588,22.7561525 94.5260133,22.6515918 94.5493355,22.5470311 C94.050598,22.3618345 93.4818937,22.2218295 92.96701,22.4256343 C92.9508638,22.4876618 92.9176744,22.6108308 92.9015282,22.6719723 C92.3588372,22.7446331 91.8125581,22.8172939 91.2788372,22.9289435 C90.9989701,23.2461701 90.7783056,23.6103604 90.5083056,23.9364481 C90.5056146,24.3112717 90.5020266,24.6896398 90.5675083,25.0609189 C90.6231229,25.4127037 90.8590365,25.6953721 91.0231894,26.0028515 C88.2047841,26.006396 85.3872757,26.006396 82.5697674,26.0028515 C82.713289,25.719297 82.8729568,25.4446036 83.0478738,25.1787713 C83.2954485,25.5305561 83.7565116,25.448148 84.1260797,25.3976399 C84.237309,25.3613095 84.4507973,25.2992819 84.3951827,25.1459853 C84.0794352,25.0059802 83.7134551,24.9359777 83.4658804,24.6807787 C83.4138538,24.3440577 83.4838206,23.9993618 83.4174419,23.664413 C83.3313289,23.3135143 82.9554817,23.1230011 82.615515,23.105279 C82.2647841,23.1123678 81.9660797,23.3090838 81.7122259,23.5288385 C81.4664452,23.3525031 81.2134884,23.1832565 80.9309302,23.0698347 C80.9282392,22.8022301 80.9551495,22.5363978 81.0134551,22.274996 C81.1874751,22.2492988 81.361495,22.2147406 81.54,22.217399 C81.987608,22.2200573 82.353588,22.5567783 82.8092691,22.5204478 C82.5105648,21.8044727 81.5974086,21.6316817 80.8986379,21.7309258 C80.5945515,21.7521924 80.4546179,22.0552412 80.278804,22.2563877 C80.2393355,22.217399 80.1595017,22.1394215 80.1200332,22.1004327 C79.6840864,22.2253739 79.2508306,22.3529735 78.8130897,22.4681675 C78.6399668,23.0335043 78.1609635,23.4561777 78.0192359,24.03392 C77.9761794,24.4149463 77.9286379,24.8128087 78.029103,25.1885185 C78.1528904,25.4711869 78.3565116,25.7122082 78.4722259,26.0010793 C74.8097342,26.006396 71.1472425,26.0108265 67.4856478,25.998421 C67.135814,25.4047288 67.0111296,24.6993869 67.1277409,24.0241728 C67.1878405,23.7672015 67.3636545,23.5607384 67.5107641,23.3480725 C67.4497674,22.7552664 67.8713621,22.2617043 68.3431894,21.9577694 C68.6840532,21.7663701 69.0930897,21.8186504 69.4554817,21.9187806 C70.0313621,21.1833111 71.191196,21.1301447 71.9043189,21.6972537 C72.3025914,20.204162 72.7573754,18.7013231 73.5395681,17.3553254 C72.9977741,16.0385692 72.538505,14.6819381 72.271196,13.2827739 C72.2371096,13.1551743 72.268505,13.0195998 72.364485,12.9256724 C72.6183389,12.643004 72.7403322,12.2796998 72.9161462,11.9509538 C72.6156478,12.0723506 72.3196346,12.2212167 72.1196013,12.4826185 C72.1196013,12.0714645 72.0290033,11.664741 72.0415615,11.2544731 C72.0657807,10.9815519 72.3151495,10.8255969 72.540299,10.7130612 C72.543887,10.4312789 72.543887,10.1486105 72.5456811,9.86594213 C72.3241196,10.0493664 72.1052492,10.2354491 71.8944518,10.4303928 C71.8989369,10.0484803 71.8944518,9.66745398 71.9025249,9.28642762 C72.0603987,9.15351145 72.2631229,9.01084809 72.2514618,8.77957395 C72.2577409,7.4929454 72.3025914,6.18150584 72.7089369,4.94804376 C72.8219601,4.62727273 73.08299,4.39334027 73.3296678,4.17092721 C73.3332558,3.82268683 73.3323588,3.47444646 73.3350498,3.12620609 C73.5772425,2.95518728 73.804186,2.763788 74.0302326,2.5715026 C73.8840199,2.56973038 73.7387043,2.56707206 73.5942857,2.56529985 C73.8705648,1.7553973 74.5522924,1.17233836 75.235814,0.692954033 C75.7210963,0.817009127 76.2144518,0.924228173 76.7131894,0.98625572 C76.5185382,0.780678707 76.2790365,0.628268163 76.0180066,0.520163009 C76.3418272,0.281800007 76.7257475,0.139136649 77.130299,0.120528385 C77.3428904,0.48737702 77.5447176,0.887011645 77.8999336,1.14043848 C77.9151827,0.751437149 77.9681063,0.302180487 77.6631229,1.77221564e-05 M74.9972183,3.70391294 C74.9613379,3.10313184 75.3273179,2.22677122 76.0655571,2.32867361 C76.5436635,2.59361985 77.2173179,2.7690692 77.3177831,3.39377521 C76.8271186,3.62947989 76.3795106,3.93961762 75.9417698,4.25861643 C75.6834309,3.9599981 75.150607,4.11329475 74.9972183,3.70391294 Z M82.0118093,2.77795686 C82.2226066,2.5785826 82.4988857,2.46781912 82.7464605,2.31983912 C83.1384538,2.61579913 83.6443674,2.85770656 83.786992,3.36721856 C83.8659289,3.72166168 83.9027063,4.12749906 83.7197163,4.45624506 C83.4918757,4.54662806 83.246992,4.58118626 83.0083874,4.6192889 C82.7437694,4.09559918 82.2997495,3.67026743 81.7830718,3.38848514 C81.8342013,3.18024981 81.8377894,2.93302573 82.0118093,2.77795686 Z M79.9567864,4.21610984 C80.1648927,4.00964672 80.459112,4.17003224 80.7129658,4.16826002 C80.8358561,4.38801476 80.9964209,4.59447788 81.2664209,4.6308083 C81.2861551,4.67865812 81.3256236,4.77347166 81.3453578,4.82132148 C81.088813,4.82486591 80.8304741,4.84790471 80.5775173,4.80714376 C80.4519359,4.66093597 80.4097764,4.46865057 80.3155904,4.30560673 C80.196288,4.27016242 80.0769857,4.24092086 79.9567864,4.21610984 Z M77.8398339,4.40306087 C78.1690365,4.25685308 78.5161794,4.11507583 78.8839535,4.11418972 C78.7413289,4.37470542 78.4964452,4.56256028 78.3609967,4.82750651 C78.0838206,4.82839262 77.8075415,4.82839262 77.5312625,4.82041765 C77.5967442,4.66091824 77.6631229,4.4748356 77.8398339,4.40306087 Z M76.1741043,5.38487719 C76.7078252,5.37956054 77.2415462,5.38044665 77.7752671,5.38044665 C78.0748684,5.34588845 78.3529415,5.64893732 78.3054,5.94046679 C78.2614465,6.53681735 78.1125429,7.11987629 78.0730744,7.71711296 C77.85241,7.86420685 77.6173934,8.03079512 77.5680578,8.30726076 C77.3007488,8.41979645 77.046895,8.56334592 76.771513,8.65550113 C76.7239714,8.37106052 76.779586,8.08750602 76.863008,7.81547092 C77.0980246,7.7445823 77.3285561,7.66040206 77.5554997,7.56470241 C77.8030744,7.15797893 77.767194,6.6679613 77.7743701,6.21250189 C77.581513,6.26123782 77.3877588,6.30554321 77.1975927,6.36225411 C76.9249017,6.30111267 76.7033402,6.1123717 76.592111,5.86071709 C76.3795196,5.77387852 76.2135728,5.61703744 76.1741043,5.38487719 Z M80.2187043,5.81464834 C80.4662791,5.70742929 80.6492691,5.48678845 80.8995349,5.37425276 C81.452093,5.45931911 82.0091362,5.51603001 82.5616944,5.59843803 C82.43701,5.77477349 82.2360797,5.83148439 82.0324585,5.85806762 C81.9445515,6.38618788 81.3534219,6.47036812 80.909402,6.37998513 C80.8313621,6.29403267 80.7533223,6.20985243 80.6761794,6.12567218 C80.7362791,6.50492633 80.7380731,6.88949712 80.729103,7.2722957 C80.8717276,7.32546216 81.0152492,7.37685642 81.1587708,7.43445343 C81.1955482,7.57180014 81.2457807,7.70560242 81.3040864,7.83586027 C81.5866445,7.94485153 81.9059801,7.99713189 82.1266445,8.21954495 C82.0557807,8.40385537 81.9696678,8.58284915 81.8449834,8.73791802 C81.5606312,8.57132975 81.2592359,8.43841358 80.9542525,8.31435849 C80.9363123,7.96789033 80.6770764,7.72421068 80.3478738,7.65066373 C80.3496678,7.03659102 80.37299,6.41454333 80.2187043,5.81464834 Z M76.8306977,9.42463385 C77.133887,9.49463637 77.488206,9.32538978 77.7501329,9.53451122 C77.5025581,9.61514703 77.2576744,9.71084668 77.0504651,9.86945998 C76.9248837,9.74806321 76.8298007,9.60451374 76.8306977,9.42463385 Z M80.6815794,9.62755254 C80.9309482,9.4636226 81.2556658,9.57527218 81.5382239,9.54780284 C81.5373269,9.6789468 81.5373269,9.81009075 81.5382239,9.94212082 C81.2520777,9.83667399 80.9650346,9.73654381 80.6815794,9.62755254 Z M79.1512714,23.0919785 C79.4114043,23.014001 79.6849924,22.98919 79.9523013,22.939568 C79.8536302,23.1681838 79.7702083,23.4074329 79.7540621,23.6564292 C79.6975505,24.460129 79.8141618,25.2886398 80.1756568,26.0161343 C79.8832316,26.0028427 79.5908063,26.0028427 79.2983811,26.0037288 C79.1584475,25.4729502 78.6767532,25.0431879 78.7404409,24.4645595 C78.7736302,24.0702415 79.3889791,24.1951827 79.4293445,23.7787121 C79.3889791,23.7175706 79.3091452,23.5935155 79.2696767,23.5323741 C79.1189791,23.5846545 78.9691784,23.6378209 78.8202748,23.6892152 C78.8803744,23.4685743 78.9763545,23.2479335 79.1512714,23.0919785 Z M91.7336392,23.3568982 C91.9731409,23.3374038 92.2117455,23.3170233 92.4521442,23.298415 C92.3310478,23.6200722 92.1740711,23.9372988 92.1507488,24.2837669 C92.1534399,24.8659398 92.2781243,25.4383654 92.3830744,26.0081327 C92.1516458,26.0054744 91.9220113,26.0045883 91.6932738,26.0054744 C91.4017455,25.4481126 91.087792,24.8251788 91.2349017,24.1800923 C91.2752671,24.0852788 91.3012804,23.8610935 91.4519781,23.9629959 C91.5461641,24.1411036 91.6017787,24.3413639 91.7354332,24.498205 C91.8439714,24.3200974 91.9785229,24.1411036 91.9937721,23.9257794 C91.9901841,23.7060246 91.8583236,23.5261448 91.7336392,23.3568982 Z M80.3694199,24.0950348 C80.3649349,23.8407219 80.5506159,23.6413476 80.7156658,23.4667844 C80.9273601,23.7069196 81.2117123,23.8974328 81.3785561,24.1676957 C81.3955993,24.7808823 81.3076924,25.3922967 81.3094864,26.0063694 C81.1094532,26.0045972 80.9094199,26.0045972 80.7102837,26.0054833 C80.5012804,25.3905245 80.3577588,24.7463241 80.3694199,24.0950348 Z M81.9472515,24.0773393 C82.1060223,23.9329037 82.2863213,23.7565682 82.5249259,23.7920125 C82.7545605,23.7787209 83.0057233,23.9329037 82.9725339,24.1881027 C82.8559226,24.8243281 82.5249259,25.3976399 82.3204076,26.0081682 C82.1454907,26.0055099 81.9705738,26.0046238 81.7974508,26.0037376 C81.8440953,25.3613095 81.9167532,24.7206535 81.9472515,24.0773393 Z M44.9787887,7.481426 C46.7916458,6.3587274 48.9094864,5.73402139 51.0461641,5.66579109 C53.0294532,5.56300258 54.99839,6.03086751 56.8229083,6.77253975 C57.1861973,6.88241712 57.5988219,7.10394407 57.9737721,6.9373558 C58.3612804,6.63342082 58.3846027,6.09289506 58.4787887,5.64895504 L59.2161309,5.64895504 C59.4260312,7.95106314 59.6475927,10.2531712 59.8619781,12.5552793 C59.5668618,12.5561655 59.2726425,12.5561655 58.9784233,12.5579377 C58.8411807,12.0386785 58.6519116,11.533597 58.416895,11.0497822 C57.781812,9.76935638 56.6901508,8.73261023 55.4190877,8.0706877 C53.829586,7.27584899 51.9611143,7.0507776 50.2173269,7.38749857 C48.6762638,7.6737114 47.2751342,8.57133861 46.352111,9.81897842 C45.3178585,11.2083955 44.822709,12.9185836 44.644204,14.6163661 C44.5114465,16.0686968 44.557194,17.5520413 44.9357322,18.9671555 C45.3223435,20.4301195 46.0408485,21.8363726 47.1459648,22.8970437 C48.2842704,24.0534143 49.8594199,24.77382 51.485699,24.8987612 C53.0339382,25.0467412 54.5767953,24.6329289 55.9734399,23.9975896 C55.9662638,22.1996768 55.987792,20.4008779 55.9626757,18.6029652 C55.9429415,18.001298 55.9312804,17.2667146 55.3894864,16.8732827 C54.7651674,16.4408621 53.9632405,16.4780786 53.2366625,16.4337733 C53.2366625,16.168827 53.2366625,15.9047669 53.2375595,15.6398206 L62.3646359,15.6398206 C62.3637389,15.9047669 62.3646359,16.168827 62.3646359,16.4337733 C61.8533402,16.4630148 61.3196193,16.4603565 60.844204,16.6721363 C60.4970611,16.8236607 60.2862638,17.1807621 60.2243701,17.5387497 C60.1194199,18.1262392 60.1481243,18.7252481 60.1445362,19.3180542 C60.1427422,21.0087479 60.1481243,22.6985555 60.1418452,24.3883631 C57.7916791,25.5509366 55.2334066,26.3537502 52.5970944,26.4946414 L50.9259648,26.4946414 C48.2618452,26.3555225 45.5510811,25.6333446 43.4153003,24.0020201 C41.8105495,22.7942551 40.6067621,21.0645727 40.0855993,19.1364021 C39.5070279,17.0274655 39.6738718,14.7368768 40.4991209,12.7138926 C41.3710146,10.5535618 42.9856326,8.70957143 44.9787887,7.481426 Z M0,6.09199123 C3.39877076,6.0893329 6.79664452,6.09642176 10.1954153,6.08844679 C10.1990033,6.35427914 10.1999003,6.62011148 10.1999003,6.88594383 C9.57378738,6.88062718 8.93332226,6.86644946 8.32784053,7.04987377 C7.9376412,7.16418168 7.63086379,7.48052217 7.48644518,7.85002913 C7.31601329,8.28422196 7.27833887,8.75651742 7.26578073,9.2181796 C7.26667774,13.7647988 7.26488372,18.3123041 7.26667774,22.8598094 C7.29,23.5704679 7.40750831,24.4069536 8.05245847,24.8393743 C8.68664452,25.2372367 9.47780731,25.1955896 10.1990033,25.2115395 L10.1990033,26.0072644 L0,26.0072644 L0,25.2124256 C0.762458472,25.2000201 1.61372093,25.2177423 2.24521595,24.7277247 C2.84621262,24.1969461 2.91707641,23.3418521 2.93591362,22.5957493 C2.93770764,18.1935656 2.94039867,13.791382 2.9341196,9.3891984 C2.90182724,8.63246233 2.87491694,7.70913799 2.19139535,7.21912037 C1.53747508,6.83189125 0.733754153,6.89657712 0,6.88594383 L0,6.09199123 Z M13.8390698,6.09285961 C16.1228571,6.0910874 18.4057475,6.0910874 20.6886379,6.09285961 C24.9126578,10.3559243 29.0972093,14.6553194 33.3346844,18.9050925 C33.3095681,18.6277408 33.2772757,18.3512751 33.2781728,18.0730373 C33.2799668,15.2374923 33.2799668,12.4028334 33.2781728,9.56817446 C33.2431894,8.84776881 33.2342193,8.03609405 32.7238206,7.4636684 C32.1784385,6.93200371 31.3540864,6.88947054 30.6319934,6.88326778 C30.6328904,6.61920765 30.6319934,6.35514752 30.6337874,6.0919735 C33.0548173,6.0919735 35.4758472,6.09285961 37.8977741,6.0910874 C37.8986711,6.35514752 37.8986711,6.61920765 37.8995681,6.88326778 C37.1945183,6.89035664 36.4015615,6.92757317 35.8436213,7.4069575 C35.3215615,7.85798638 35.2121262,8.58105035 35.1484385,9.22525074 C35.0605316,10.6377066 35.1071761,12.0537069 35.095515,13.467935 C35.095515,17.6990998 35.096412,21.9311507 35.095515,26.1623155 C34.6819934,26.1614294 34.2684718,26.166746 33.8549502,26.1569989 C28.7357143,20.9218739 23.6003322,15.7018128 18.4748173,10.4720044 C18.4927575,10.7015064 18.5214618,10.9292361 18.5232558,11.1596241 C18.5241528,14.7962106 18.5223588,18.4336831 18.5241528,22.0711557 C18.5465781,22.764092 18.540299,23.4800671 18.7914618,24.1384453 C18.9439535,24.5522576 19.2973754,24.875687 19.7189701,25.0121476 C20.2114286,25.1760775 20.7379734,25.213294 21.2546512,25.2088635 C21.2600332,25.4746958 21.2600332,25.7414143 21.2582392,26.0081327 C18.8291362,26.0054744 16.4000332,26.0090189 13.9709302,26.0063605 C13.9709302,25.7423004 13.9709302,25.4782403 13.9700332,25.2141801 C14.7432558,25.1955719 15.661794,25.1477221 16.1901329,24.5052939 C16.6700332,23.856663 16.6646512,23.0122022 16.7086047,22.245719 C16.7130897,18.0783539 16.7103987,13.9109889 16.7103987,9.74362381 C16.6825914,9.02055983 16.6260797,8.22040447 16.1201661,7.64975104 C15.5568439,7.02061449 14.6472757,6.88149557 13.8399668,6.88238167 C13.8408638,6.61920765 13.8408638,6.35603363 13.8390698,6.09285961 Z"/>
</svg>
