<svg xmlns="http://www.w3.org/2000/svg" width="258" height="45" viewBox="0 0 258 45">
  <g fill="none" fill-rule="evenodd">
    <path fill="#FFF" d="M167.654798,15.54245 L167.654798,31.3927625 C167.654798,32.7361375 168.040766,33.418825 169.723614,33.1156375 L169.723614,36.215575 C169.723614,36.215575 164.206542,37.93845 164.206542,32.0816375 L164.206542,15.54245 L167.654798,15.54245 Z M187.221381,29.3246938 C187.221381,33.3211313 183.824725,36.5606313 179.635493,36.5606313 C175.445573,36.5606313 172.048917,33.3211313 172.048917,29.3246938 C172.048917,25.3289438 175.445573,22.0894438 179.635493,22.0894438 C183.824725,22.0894438 187.221381,25.3289438 187.221381,29.3246938 Z M183.773125,29.3246938 C183.773125,27.0408188 181.920341,25.1900688 179.635493,25.1900688 C177.349957,25.1900688 175.497173,27.0408188 175.497173,29.3246938 C175.497173,31.6078813 177.349957,33.4600063 179.635493,33.4600063 C181.920341,33.4600063 183.773125,31.6078813 183.773125,29.3246938 Z M202.478125,24.30945 L200.703085,26.6283875 C199.832765,25.7497625 198.531069,25.1901375 197.017469,25.1901375 C194.742253,25.1901375 192.879837,27.041575 192.879837,29.3247625 C192.879837,31.60795 194.727805,33.460075 197.017469,33.460075 C198.531069,33.460075 199.832765,32.90045 200.703085,32.02045 L202.478125,34.340075 C201.097997,35.706825 199.164717,36.5607 197.017469,36.5607 C192.828925,36.5607 189.431581,33.3212 189.431581,29.3247625 C189.431581,25.328325 192.828925,22.0895125 197.017469,22.0895125 C199.164717,22.0895125 201.097997,22.9433875 202.478125,24.30945 Z M218.35517,36.21585 C218.35517,36.21585 214.162498,37.5695375 212.024882,32.5521625 C211.60245,31.5607875 210.975682,30.081975 210.975682,30.081975 L209.389842,30.5955375 L209.389842,36.21585 L205.941586,36.21585 L205.941586,15.542725 L209.389842,15.542725 L209.389842,27.3519125 C213.534354,26.017475 213.87285,24.779975 213.87285,22.4335375 L217.320418,22.4335375 C217.320418,25.8236 215.971938,27.6200375 213.933394,28.8107875 C214.116402,29.234975 214.468658,30.054475 214.831234,30.9310375 C215.734578,33.1145375 216.81061,33.252725 218.35517,33.1145375 L218.35517,36.21585 Z M245.443174,25.5347125 C240.27079,24.8802125 240.27079,30.013775 240.27079,31.73665 L240.27079,36.2164 L236.823222,36.2164 L236.823222,22.4334 L240.27079,22.4334 L240.27079,25.5732125 C240.801926,23.9314625 242.133206,21.7713375 245.443174,22.4334 L245.443174,25.5347125 Z M248.600338,32.1693625 C248.600338,32.1693625 250.160034,33.598675 252.410482,33.598675 C253.386754,33.598675 254.410498,33.2391125 254.410498,32.4258 C254.410498,30.2553625 247.410786,31.04805 247.410786,26.2238625 C247.410786,23.6484875 249.840802,22.0892375 252.824658,22.0892375 C255.943362,22.0892375 257.44733,23.6168625 257.44733,23.6168625 L256.268786,25.9743 C256.268786,25.9743 254.869394,25.0592375 252.754482,25.0592375 C251.859394,25.0592375 250.859042,25.3562375 250.859042,26.2238625 C250.859042,28.1743 257.754866,27.6016125 257.754866,32.4258 C257.754866,34.7296125 255.71701,36.560425 252.43525,36.560425 C248.99181,36.560425 247.066786,34.528175 247.066786,34.528175 L248.600338,32.1693625 Z M227.199066,22.0891688 C230.99201,22.0891688 233.405514,24.9842313 233.405514,28.9799813 C233.405514,29.5746688 233.340842,30.2497938 233.340842,30.2497938 L223.862266,30.2497938 C224.283322,32.0867938 225.918698,33.4597313 227.888442,33.4597313 C229.400666,33.4597313 230.703738,32.9007938 231.574058,32.0214813 L233.34841,34.3397312 C231.969658,35.7071688 230.034314,36.5610438 227.888442,36.5610438 C223.698522,36.5610438 220.302554,33.3208563 220.302554,29.3244188 C220.302554,24.8453563 223.750122,22.0891688 227.199066,22.0891688 Z M227.199066,24.8453562 C225.805178,24.8453562 224.41129,25.5225437 223.929002,27.6022312 L230.156778,27.6022312 C229.76049,25.5225437 228.592266,24.8453562 227.199066,24.8453562 Z M139.057115,40.168975 C142.160683,40.8585375 143.073659,40.4900375 144.303803,36.2069125 L142.580363,36.2055375 L137.831099,22.423225 L141.478187,22.423225 L145.154859,33.0939125 L148.831531,22.423225 L152.478619,22.423225 C152.478619,22.423225 146.962235,38.43235 146.623739,39.4147875 C144.490939,45.60435 138.023051,42.92585 138.023051,42.92585 L139.057115,40.168975 Z M131.85059,30.6929563 C131.85059,32.9678938 132.967902,33.3803938 135.299534,33.0978313 L135.299534,36.1998313 C135.299534,36.1998313 128.402334,37.9288938 128.402334,31.3825188 L128.402334,25.2823313 L126.333518,25.2823313 L126.333518,22.4237063 L128.402334,22.4237063 L128.402334,17.9439563 L131.85059,17.9439563 L131.85059,22.4237063 L135.299534,22.4237063 L135.299534,25.2823313 L131.85059,25.2823313 L131.85059,30.6929563 Z M119.885376,36.2065 L119.885376,22.4241875 L123.333632,22.4241875 L123.333632,36.2065 L119.885376,36.2065 Z M119.885376,18.9784375 L119.885376,15.532 L123.333632,15.532 L123.333632,18.9784375 L119.885376,18.9784375 Z M114.227333,15.5324125 L114.227333,31.382725 C114.227333,32.7261 114.613301,33.4087875 116.296149,33.1062875 L116.296149,36.206225 C116.296149,36.206225 110.778389,37.9291 110.778389,32.0716 L110.778389,15.5324125 L114.227333,15.5324125 Z M102.433568,36.2065 L102.433568,22.4241875 L105.881824,22.4241875 L105.881824,36.2065 L102.433568,36.2065 Z M102.433568,18.9784375 L102.433568,15.532 L105.881824,15.532 L105.881824,18.9784375 L102.433568,18.9784375 Z M99.0610608,24.3000312 L97.2860208,26.6189687 C96.4157008,25.7396562 95.1133168,25.1800312 93.6004048,25.1800312 C91.3245008,25.1800312 89.4627728,27.0314687 89.4627728,29.3153437 C89.4627728,31.5978437 91.3100528,33.4499687 93.6004048,33.4499687 C95.1133168,33.4499687 96.4157008,32.8910312 97.2860208,32.0110312 L99.0610608,34.3306562 C97.6809328,35.6974062 95.7469648,36.5505937 93.6004048,36.5505937 C89.4111728,36.5505937 86.0145168,33.3110937 86.0145168,29.3153437 C86.0145168,25.3182187 89.4111728,22.0794062 93.6004048,22.0794062 C95.7469648,22.0794062 97.6809328,22.9332812 99.0610608,24.3000312 Z M82.9423216,36.2054 L79.4933776,36.2054 L79.4933776,34.7747125 C78.4194096,35.8788375 76.9924976,36.550525 75.3516176,36.550525 C71.7354896,36.550525 68.8039216,33.311025 68.8039216,29.315275 C68.8039216,25.3188375 71.7354896,22.0793375 75.3516176,22.0793375 C76.9924976,22.0793375 78.4194096,22.7517125 79.4933776,23.8544625 L79.4933776,22.423775 L82.9423216,22.423775 L82.9423216,36.2054 Z M79.8380656,29.315275 C79.8380656,27.0314 78.1400816,25.18065 76.0451216,25.18065 C73.9501616,25.18065 72.2528656,27.0314 72.2528656,29.315275 C72.2528656,31.5984625 73.9501616,33.4499 76.0451216,33.4499 C78.1400816,33.4499 79.8380656,31.5984625 79.8380656,29.315275 Z M67.5971696,18.6409437 C64.8382896,18.2882562 64.1489136,18.7708812 64.1489136,21.0458187 L64.1489136,22.4242562 L67.2524816,22.4242562 L67.2524816,25.2821937 L64.1489136,25.2821937 L64.1489136,36.2065687 L60.7013456,36.2065687 L60.7013456,25.2821937 L58.6325296,25.2821937 L58.6325296,22.4242562 L60.7013456,22.4242562 L60.7013456,20.3562562 C60.7013456,13.8098812 67.5971696,15.5389437 67.5971696,15.5389437 L67.5971696,18.6409437 Z"/>
    <path fill="#FF585A" d="M40.5858978,25.6179673 C40.8960762,25.7450946 41.2733576,25.8624437 41.5241712,25.8624437 C43.6748592,25.8624437 43.6748592,21.8082562 43.6748592,21.8082562 C43.6748592,21.8082562 48.3601392,25.2876937 48.3601392,27.7063187 C48.3601392,28.8393698 46.8598692,29.9327503 45.7162989,30.2912166 C47.7122819,32.8888168 48.5544193,35.2146984 48.5728,35.2679938 L46.893392,36.2064313 C46.838352,36.1397438 41.213952,29.4180563 31.63424,29.4180563 C22.0504,29.4180563 16.778944,35.4474313 16.725968,35.5079313 L15.057568,34.5619313 C15.0774099,34.503157 16.1404563,31.4853447 18.8833812,28.5718862 C18.5780768,28.6011079 18.2765153,28.61705 17.981912,28.61705 C7.361256,28.61705 5.39908,20.8984875 5.3062,15.1503 C5.191992,8.03605 1.857256,7.4482375 -0.000344,8.21755 C2.757848,-2.365825 20.089256,-2.2785125 20.089256,11.5856125 C20.089256,17.4107121 14.5182655,27.4217785 23.3268896,25.1557699 C25.5438639,23.9782703 28.2835253,23.1769313 31.63424,23.1769313 C35.2784036,23.1769313 38.2303013,24.1845102 40.5858978,25.6179673 Z"/>
  </g>
</svg>
