<svg xmlns="http://www.w3.org/2000/svg" width="160" height="160" viewBox="0 0 160 160">
  <path fill="#213C6D" fill-rule="evenodd" d="M53,126 L108,126 L108,62 L53,62 L53,126 Z M60,49 L101,49 C105.0025,49 108,51.9781421 108,56 L108,59 L53,59 L53,56 C53,51.9781421 55.9975,49 60,49 L60,49 Z M59.8387097,46 C54.4257679,46 50,50.528472 50,56 L50,135 C50,140.472643 54.4257679,145 59.8387097,145 L101.16129,145 C106.574232,145 111,140.472643 111,135 L111,56 C111,50.528472 106.574232,46 101.16129,46 L59.8387097,46 Z M72.6468378,89.21375 L74.9322966,98.2606667 L73.2446396,98.2606667 L70.7207074,89.21375 L72.6468378,89.21375 Z M76.1030818,89.21375 L78.3885406,98.2606667 L76.4645684,98.2606667 L74.1791095,89.21375 L76.1030818,89.21375 Z M79.5582467,89.21375 L81.8447846,98.2606667 L79.9197333,98.2606667 L77.6342745,89.21375 L79.5582467,89.21375 Z M83.0144907,89.21375 L85.3010286,98.2606667 L83.3759773,98.2606667 L81.0905185,89.21375 L83.0144907,89.21375 Z M86.4707347,89.21375 L88.7561936,98.2606667 L86.8322213,98.2606667 L84.5456834,89.21375 L86.4707347,89.21375 Z M89.9269787,89.21375 L92.2124376,98.2606667 L90.2884653,98.2606667 L88.0019274,89.21375 L89.9269787,89.21375 Z M93.3821436,89.21375 L94.6306214,94.1559167 L93.5159476,97.3571667 L91.4581714,89.21375 L93.3821436,89.21375 Z M96.3528085,89.21375 L95.5176125,91.6068333 L94.9144154,89.21375 L96.3528085,89.21375 Z M74.9420082,104.596 C75.4610383,104.596 75.8851107,105.020667 75.8851107,105.542833 C75.8851107,106.065 75.4610383,106.49075 74.9420082,106.49075 C74.4218991,106.49075 73.9989057,106.065 73.9989057,105.542833 C73.9989057,105.020667 74.4218991,104.596 74.9420082,104.596 L74.9420082,104.596 Z M87.227159,104.70325 C87.7461891,104.70325 88.1702615,105.127917 88.1702615,105.651167 C88.1702615,106.173333 87.7461891,106.598 87.227159,106.598 C86.7059708,106.598 86.2840565,106.173333 86.2840565,105.651167 C86.2840565,105.127917 86.7059708,104.70325 87.227159,104.70325 L87.227159,104.70325 Z M63.7413174,81.4906667 L67.0249111,81.4906667 L71.7037353,98.2639167 C69.9869435,98.2899167 68.5981873,99.6993333 68.5981873,101.428333 C68.5981873,103.17575 70.0139201,104.596 71.7533722,104.596 L72.7051073,104.596 C72.5820939,104.887417 72.5141128,105.208083 72.5141128,105.543917 C72.5141128,106.88725 73.6039681,107.981417 74.9420082,107.981417 C76.2811274,107.981417 77.3709827,106.88725 77.3709827,105.543917 C77.3709827,105.208083 77.3019226,104.887417 77.1799883,104.596 L85.0409741,104.596 C84.8877469,104.916667 84.7992636,105.273083 84.7992636,105.651167 C84.7992636,106.996667 85.8880398,108.08975 87.227159,108.08975 C88.5651991,108.08975 89.6550544,106.996667 89.6550544,105.651167 C89.6550544,105.273083 89.5665711,104.916667 89.4122649,104.596 L90.716854,104.596 C91.1268986,104.596 91.4592505,104.262333 91.4592505,103.850667 C91.4592505,103.439 91.1268986,103.105333 90.716854,103.105333 L71.7533722,103.105333 C70.8318511,103.105333 70.0829802,102.352417 70.0829802,101.428333 C70.0829802,100.50425 70.8318511,99.7513333 71.7533722,99.7513333 L72.6792097,99.7513333 L72.6802888,99.7513333 L72.6824469,99.7513333 L93.7447093,99.7513333 C94.1159076,99.7513333 94.4212829,99.4761667 94.4752361,99.1175833 L96.1035446,94.443 L96.1035446,94.4419167 L98.0987351,88.7143333 C98.1785859,88.4868333 98.1429768,88.2333333 98.0037774,88.03725 C97.8645781,87.8400833 97.6390536,87.7230833 97.3973431,87.7230833 L70.3052675,87.7230833 L68.3036026,80.5438333 C68.2140403,80.2220833 67.9205347,80 67.5881828,80 L63.7413174,80 C63.3312728,80 63,80.3336667 63,80.7453333 C63,81.157 63.3312728,81.4906667 63.7413174,81.4906667 L63.7413174,81.4906667 Z M101,142 L60,142 C55.9975,142 53,138.94454 53,135 L53,129 L108,129 L108,135 C108,138.94454 105.0025,142 101,142 Z M80.50696,139.041667 C82.443881,139.041667 84.0139201,137.465417 84.0139201,135.520833 C84.0139201,133.57625 82.443881,132 80.50696,132 C78.570039,132 77,133.57625 77,135.520833 C77,137.465417 78.570039,139.041667 80.50696,139.041667 Z"/>
</svg>
