<svg xmlns="http://www.w3.org/2000/svg" width="160" height="160" viewBox="0 0 160 160">
  <g fill="#213C6D" fill-rule="evenodd" transform="translate(7 31)">
    <path d="M59.5309455,109.749434 C57.2595119,109.749434 55.4528755,107.945817 55.4528755,105.67818 C55.4528755,103.410543 57.2595119,101.608092 59.5309455,101.608092 C61.802379,101.608092 63.6078476,103.410543 63.6078476,105.67818 C63.6078476,107.945817 61.802379,109.749434 59.5309455,109.749434 M23.6493021,109.749434 C21.3778685,109.749434 19.5712322,107.945817 19.5712322,105.67818 C19.5712322,103.410543 21.3778685,101.608092 23.6493021,101.608092 C25.9207357,101.608092 27.727372,103.410543 27.727372,105.67818 C27.727372,107.945817 25.9207357,109.749434 23.6493021,109.749434 M73.9548406,86.2406252 C74.5761273,86.4691377 75.0257427,87.1068742 75.0257427,87.7679283 L75.0257427,106.49313 C75.0257427,107.345389 74.2479664,108.120699 73.3942811,108.120699 L66.4375049,108.120699 C65.4214909,110.957286 62.7062811,113.005737 59.5309455,113.005737 C56.3556098,113.005737 53.6392322,110.957286 52.624386,108.120699 L30.5546937,108.120699 C29.5398476,110.957286 26.8246378,113.005737 23.6493021,113.005737 C20.4751343,113.005737 17.7575888,110.957286 16.7427427,108.120699 L9.78596643,108.120699 C8.93228112,108.120699 8.15567273,107.345389 8.15567273,106.49313 L8.15567273,95.0954854 C8.15567273,94.1954259 8.88556783,93.4667508 9.78596643,93.4667508 C10.6875329,93.4667508 11.417428,94.1954259 11.417428,95.0954854 L11.417428,104.864396 L16.3608615,104.864396 C16.7625958,101.208195 19.885379,98.3517889 23.6493021,98.3517889 C27.4132252,98.3517889 30.5360084,101.208195 30.9377427,104.864396 L52.2425049,104.864396 C52.6442392,101.208195 55.7658545,98.3517889 59.5309455,98.3517889 C63.2948685,98.3517889 66.4164839,101.208195 66.8182182,104.864396 L71.7639874,104.864396 L71.7639874,88.8871733 L59.7855329,84.4101932 C59.4550364,84.2924393 59.1642462,84.0662586 58.970386,83.7736226 L50.4837497,70.6714608 L9.78596643,70.6714608 C8.88556783,70.6714608 8.15567273,69.9416197 8.15567273,69.0427261 C8.15567273,68.1438325 8.88556783,67.4151573 9.78596643,67.4151573 L51.3771413,67.4151573 C51.9190154,67.4116597 52.4550503,67.6984662 52.7516797,68.1531595 L61.4426867,81.560782 L73.9548406,86.2406252 Z M26.060642,88.5819458 C26.060642,89.4808395 25.3307469,90.2095146 24.4303483,90.2095146 L6.52397762,90.2095146 C5.62357902,90.2095146 4.89368392,89.4808395 4.89368392,88.5819458 C4.89368392,87.6830522 5.62357902,86.9543771 6.52397762,86.9543771 L24.4303483,86.9543771 C25.3307469,86.9543771 26.060642,87.6830522 26.060642,88.5819458 Z M24.4297643,77.184534 L1.63251259,77.184534 C0.730946154,77.184534 -0.000116783217,76.4558589 -0.000116783217,75.5557993 C-0.000116783217,74.6569057 0.730946154,73.9282306 1.63251259,73.9282306 L24.4297643,73.9282306 C25.3301629,73.9282306 26.060058,74.6569057 26.060058,75.5557993 C26.060058,76.4558589 25.3301629,77.184534 24.4297643,77.184534 Z M26.060642,82.0688726 C26.060642,82.9677662 25.3307469,83.6976073 24.4303483,83.6976073 L3.26339021,83.6976073 C2.36182378,83.6976073 1.63192867,82.9677662 1.63192867,82.0688726 C1.63192867,81.1699789 2.36182378,80.4413038 3.26339021,80.4413038 L24.4303483,80.4413038 C25.3307469,80.4413038 26.060642,81.1699789 26.060642,82.0688726 Z"/>
    <path d="M44,32 L33,32 L21,32 L21,52 L44,52 L44,53 L21,53 L21,62 L20,62 L20,32 L3,32 L3,31 L20,31 L20,3 L21,3 L21,16 L44,16 L44,3 L45,3 L45,23.5 L45,31 L62,31 L62,5 C62,3.8954305 61.1045695,3 60,3 L60,3 L5,3 L5,3 C3.8954305,3 3,3.8954305 3,5 L3,5 L3,60 C3,61.1045695 3.8954305,62 5,62 L60,62 C61.1045695,62 62,61.1045695 62,60 L62,32 L45,32 L45,62 L44,62 L44,32 Z M61,0 C63.2565895,0 65,1.74453856 65,4 L65,61 C65,63.2566206 63.2565895,65 61,65 L4,65 C1.74341049,65 0,63.2566206 0,61 L0,4 C0,1.74453856 1.74341049,0 4,0 L61,0 Z M45,16 L62,16 L62,17 L45,17 L45,16 Z M45,46 L62,46 L62,47 L45,47 L45,46 Z" transform="translate(81 43)"/>
    <path d="M46.9525086,26.2554099 L51.7831711,45.8276144 L46.5836942,49.5565022 L45.4106182,44.8047804 C45.2565565,44.1189299 44.5749501,43.6877269 43.8890996,43.8417886 C43.8759428,43.8447595 43.8632104,43.8481548 43.8500536,43.8511256 C43.169296,44.0268324 42.759738,44.7211712 42.9350204,45.4023532 C42.9362936,45.4065973 42.9375668,45.4108414 42.9384157,45.4150855 L44.3559533,51.1582348 L39.1594472,54.8994306 L34.3253894,35.3144936 L39.5252907,31.5856058 L40.7013376,36.35006 C40.8600679,37.0350617 41.5442208,37.4615962 42.2292225,37.302866 C42.9142242,37.1441357 43.3407587,36.4599828 43.1820284,35.7749811 C43.1790575,35.7630976 43.1765111,35.7516384 43.1735402,35.7397549 L41.7526073,29.9842977 L46.9525086,26.2554099 Z M16.4610205,33.7810914 L31.8531869,35.9247987 L36.6872447,55.5097357 L21.2916831,53.353296 L16.4610205,33.7810914 Z M22.5284209,28.2535437 L36.9588687,30.2656831 L32.5521942,33.4432591 L18.1183512,31.4188117 L22.5284209,28.2535437 Z M29.9556388,22.9233477 L44.3865109,24.9354872 L39.9794121,28.1130632 L25.5328367,26.0915867 L29.9556388,22.9233477 Z M29.2846427,20.3705068 C29.1263369,20.4150701 28.9879784,20.4821273 28.8789044,20.5525798 L14.0240443,31.2133961 C13.6123642,31.5113337 13.4107683,32.0711337 13.5376676,32.5630277 L19.0291403,54.8132748 C19.1496734,55.302198 19.5863938,55.697326 20.084654,55.7686273 L38.1939089,58.2934569 C38.5168868,58.3397179 38.8568411,58.2561086 39.1208257,58.0646986 L53.9756858,47.4038823 C54.3835462,47.1089156 54.5859909,46.5563306 54.4654578,46.0674075 L48.9735607,23.8167359 C48.8568473,23.3222954 48.4175804,22.9208013 47.9150761,22.8486511 L29.8058212,20.3238215 C29.6207774,20.3038741 29.4429486,20.3259435 29.2846427,20.3705068 L29.2846427,20.3705068 Z M103.566585,24.8455222 L103.959443,24.7665779 L103.95928,24.7657711 L103.566585,24.8455222 Z M103.868388,24.3153269 C103.911587,24.2488908 103.95712,24.183619 104.000317,24.1160167 L107.029674,19.3522301 L108.014157,19.9771419 L104.985968,24.7409285 C104.672989,25.2364276 104.146297,26.0665343 103.249401,26.2857198 C103.095248,26.3241938 102.939926,26.341682 102.78694,26.341682 C102.05938,26.341682 101.39722,25.9546098 100.973297,25.7062773 L93.9044084,21.5720661 L94.4953315,20.5659114 L101.56422,24.7012886 C102.050038,24.9857633 102.554541,25.2550817 102.971457,25.154816 C103.131283,25.1152176 103.274792,25.00814 103.413628,24.8765851 L102.813683,24.9977719 L101.470676,18.3802358 C100.781655,14.9805291 99.9244664,10.7483839 97.2851657,7.92112436 C96.5891378,7.17379514 95.7389559,6.48126229 94.6119979,5.74326011 C87.7755084,1.26861183 78.5928441,0.331244138 70.0443126,3.23661764 C62.5258091,5.79222708 55.4580888,11.3336558 50.1386133,18.8407585 L49.1856622,18.1680456 C54.642942,10.4615774 61.9197042,4.76741837 69.6682706,2.13252907 C78.5566413,-0.88710069 88.1200189,0.0980680944 95.2531378,4.76858425 C96.4618441,5.55905103 97.3785923,6.30871201 98.1400189,7.12599405 C101.003543,10.1945908 101.896935,14.6051156 102.61632,18.1493915 L103.868236,24.3145661 L103.868389,24.3153268 Z"/>
  </g>
</svg>
